M48
;DRILL file {Pcbnew (22-Jun-2014 BZR 4027)-stable} date Fri 30 Mar 2018 10:34:12 PM CDT
;FORMAT={-:-/ absolute / inch / decimal}
FMAT,2
INCH,TZ
T1C0.025
T2C0.032
T3C0.040
T4C0.056
%
G90
G05
M72
T1
X7.8Y-5.7
X7.9Y-5.7
X8.125Y-6.25
X8.225Y-6.25
X8.475Y-5.95
X8.525Y-6.65
X8.575Y-5.85
X8.625Y-6.65
T2
X7.15Y-5.05
X7.15Y-5.2
X7.15Y-5.7
X7.25Y-5.2
X7.25Y-5.3
X7.25Y-5.4
X7.275Y-5.05
X7.35Y-6.25
X7.35Y-6.35
X7.35Y-6.45
X7.35Y-6.55
X7.35Y-6.65
X7.6Y-5.55
X7.6Y-5.85
X7.7Y-5.55
X7.7Y-5.85
X7.7Y-5.95
X7.7Y-6.075
X7.75Y-5.2
X7.75Y-5.3
X7.75Y-5.4
X7.8Y-5.55
X7.8Y-5.85
X7.8Y-5.95
X7.8Y-6.075
X7.85Y-6.25
X7.85Y-6.35
X7.85Y-6.45
X7.85Y-6.55
X7.85Y-6.65
X7.9Y-5.05
X7.9Y-5.15
X7.9Y-5.55
X7.9Y-5.85
X7.9Y-5.95
X7.9Y-6.075
X7.95Y-6.25
X7.95Y-6.35
X7.95Y-6.45
X7.95Y-6.55
X7.95Y-6.65
X8.Y-5.325
X8.Y-5.45
X8.Y-5.55
X8.Y-5.85
X8.Y-5.95
X8.Y-6.075
X8.1Y-5.325
X8.1Y-5.45
X8.1Y-5.55
X8.1Y-5.85
X8.1Y-5.95
X8.1Y-6.075
X8.2Y-5.35
X8.2Y-5.55
X8.2Y-5.85
X8.4Y-5.05
X8.4Y-5.15
X8.45Y-6.25
X8.45Y-6.35
X8.45Y-6.45
X8.45Y-6.55
X8.45Y-6.65
X8.7Y-5.35
X8.7Y-5.5
X8.75Y-5.45
X8.75Y-5.55
X8.825Y-5.
X8.825Y-5.1
X9.1Y-6.75
X9.2Y-6.75
T3
X6.94Y-4.9
X7.04Y-4.9
X7.14Y-4.9
X7.24Y-4.9
X7.3Y-6.8
X7.34Y-4.9
X7.4Y-6.8
X7.44Y-4.9
X7.5Y-6.8
X7.54Y-4.9
X7.6Y-6.8
X7.64Y-4.9
X7.7Y-6.8
X7.74Y-4.9
X7.8Y-6.8
X7.84Y-4.9
X7.9Y-6.8
X8.Y-4.9
X8.Y-6.8
X8.1Y-4.9
X8.2Y-4.9
X8.2Y-6.8
X8.3Y-4.9
X8.3Y-6.8
X8.4Y-4.9
X8.4Y-6.8
X8.5Y-4.9
X8.5Y-6.8
X8.55Y-5.05
X8.55Y-5.15
X8.6Y-4.9
X8.6Y-6.8
X8.7Y-4.9
X8.7Y-6.8
X9.15Y-5.25
X9.15Y-5.65
X9.15Y-6.05
X9.15Y-6.45
T4
X9.15Y-5.15
X9.15Y-5.35
X9.15Y-5.55
X9.15Y-5.75
X9.15Y-5.95
X9.15Y-6.15
X9.15Y-6.35
X9.15Y-6.55
T0
M30
