G04 (created by PCBNEW (22-Jun-2014 BZR 4027)-stable) date Sat 31 Mar 2018 01:43:06 AM CDT*
%MOIN*%
G04 Gerber Fmt 3.4, Leading zero omitted, Abs format*
%FSLAX34Y34*%
G01*
G70*
G90*
G04 APERTURE LIST*
%ADD10C,0.00590551*%
%ADD11C,0.006*%
%ADD12C,0.008*%
%ADD13C,0.01*%
%ADD14C,0.012*%
%ADD15C,0.0001*%
%ADD16C,0.005*%
G04 APERTURE END LIST*
G54D10*
G54D11*
X85342Y-55092D02*
X85328Y-55107D01*
X85285Y-55121D01*
X85257Y-55121D01*
X85214Y-55107D01*
X85185Y-55078D01*
X85171Y-55050D01*
X85157Y-54992D01*
X85157Y-54950D01*
X85171Y-54892D01*
X85185Y-54864D01*
X85214Y-54835D01*
X85257Y-54821D01*
X85285Y-54821D01*
X85328Y-54835D01*
X85342Y-54850D01*
X85271Y-55964D02*
X85314Y-55978D01*
X85328Y-55992D01*
X85342Y-56021D01*
X85342Y-56064D01*
X85328Y-56092D01*
X85314Y-56107D01*
X85285Y-56121D01*
X85171Y-56121D01*
X85171Y-55821D01*
X85271Y-55821D01*
X85300Y-55835D01*
X85314Y-55850D01*
X85328Y-55878D01*
X85328Y-55907D01*
X85314Y-55935D01*
X85300Y-55950D01*
X85271Y-55964D01*
X85171Y-55964D01*
X85185Y-56964D02*
X85285Y-56964D01*
X85328Y-57121D02*
X85185Y-57121D01*
X85185Y-56821D01*
X85328Y-56821D01*
G54D12*
X88450Y-52161D02*
X88221Y-52161D01*
X88335Y-52161D02*
X88335Y-51761D01*
X88297Y-51819D01*
X88259Y-51857D01*
X88221Y-51876D01*
X88602Y-51800D02*
X88621Y-51780D01*
X88659Y-51761D01*
X88754Y-51761D01*
X88792Y-51780D01*
X88811Y-51800D01*
X88830Y-51838D01*
X88830Y-51876D01*
X88811Y-51933D01*
X88583Y-52161D01*
X88830Y-52161D01*
X88945Y-51761D02*
X89078Y-52161D01*
X89211Y-51761D01*
X88335Y-53280D02*
X88297Y-53261D01*
X88240Y-53261D01*
X88183Y-53280D01*
X88145Y-53319D01*
X88126Y-53357D01*
X88107Y-53433D01*
X88107Y-53490D01*
X88126Y-53566D01*
X88145Y-53604D01*
X88183Y-53642D01*
X88240Y-53661D01*
X88278Y-53661D01*
X88335Y-53642D01*
X88354Y-53623D01*
X88354Y-53490D01*
X88278Y-53490D01*
X88526Y-53661D02*
X88526Y-53261D01*
X88754Y-53661D01*
X88754Y-53261D01*
X88945Y-53661D02*
X88945Y-53261D01*
X89040Y-53261D01*
X89097Y-53280D01*
X89135Y-53319D01*
X89154Y-53357D01*
X89173Y-53433D01*
X89173Y-53490D01*
X89154Y-53566D01*
X89135Y-53604D01*
X89097Y-53642D01*
X89040Y-53661D01*
X88945Y-53661D01*
X88430Y-55661D02*
X88430Y-55261D01*
X88430Y-55452D02*
X88659Y-55452D01*
X88659Y-55661D02*
X88659Y-55261D01*
X88850Y-55509D02*
X89154Y-55509D01*
X89002Y-55661D02*
X89002Y-55357D01*
X89173Y-57623D02*
X89154Y-57642D01*
X89097Y-57661D01*
X89059Y-57661D01*
X89002Y-57642D01*
X88964Y-57604D01*
X88945Y-57566D01*
X88926Y-57490D01*
X88926Y-57433D01*
X88945Y-57357D01*
X88964Y-57319D01*
X89002Y-57280D01*
X89059Y-57261D01*
X89097Y-57261D01*
X89154Y-57280D01*
X89173Y-57300D01*
X88983Y-59452D02*
X89116Y-59452D01*
X89173Y-59661D02*
X88983Y-59661D01*
X88983Y-59261D01*
X89173Y-59261D01*
X88430Y-61661D02*
X88430Y-61261D01*
X88430Y-61452D02*
X88659Y-61452D01*
X88659Y-61661D02*
X88659Y-61261D01*
X88850Y-61509D02*
X89154Y-61509D01*
X88069Y-63261D02*
X88297Y-63261D01*
X88183Y-63661D02*
X88183Y-63261D01*
X88430Y-63661D02*
X88430Y-63261D01*
X88430Y-63452D02*
X88659Y-63452D01*
X88659Y-63661D02*
X88659Y-63261D01*
X88850Y-63509D02*
X89154Y-63509D01*
X88069Y-65261D02*
X88297Y-65261D01*
X88183Y-65661D02*
X88183Y-65261D01*
X88430Y-65661D02*
X88430Y-65261D01*
X88430Y-65452D02*
X88659Y-65452D01*
X88659Y-65661D02*
X88659Y-65261D01*
X88850Y-65509D02*
X89154Y-65509D01*
X89002Y-65661D02*
X89002Y-65357D01*
G54D11*
X69421Y-57707D02*
X69621Y-57635D01*
X69421Y-57564D01*
X69621Y-57292D02*
X69621Y-57464D01*
X69621Y-57378D02*
X69321Y-57378D01*
X69364Y-57407D01*
X69392Y-57435D01*
X69407Y-57464D01*
X69592Y-57164D02*
X69607Y-57150D01*
X69621Y-57164D01*
X69607Y-57178D01*
X69592Y-57164D01*
X69621Y-57164D01*
X69621Y-56864D02*
X69621Y-57035D01*
X69621Y-56950D02*
X69321Y-56950D01*
X69364Y-56978D01*
X69392Y-57007D01*
X69407Y-57035D01*
G54D13*
X84892Y-52702D02*
X84654Y-52702D01*
X84654Y-52202D01*
X85154Y-52202D02*
X85250Y-52202D01*
X85297Y-52226D01*
X85345Y-52273D01*
X85369Y-52369D01*
X85369Y-52535D01*
X85345Y-52630D01*
X85297Y-52678D01*
X85250Y-52702D01*
X85154Y-52702D01*
X85107Y-52678D01*
X85059Y-52630D01*
X85035Y-52535D01*
X85035Y-52369D01*
X85059Y-52273D01*
X85107Y-52226D01*
X85154Y-52202D01*
X85869Y-52654D02*
X85845Y-52678D01*
X85773Y-52702D01*
X85726Y-52702D01*
X85654Y-52678D01*
X85607Y-52630D01*
X85583Y-52583D01*
X85559Y-52488D01*
X85559Y-52416D01*
X85583Y-52321D01*
X85607Y-52273D01*
X85654Y-52226D01*
X85726Y-52202D01*
X85773Y-52202D01*
X85845Y-52226D01*
X85869Y-52250D01*
X86083Y-52702D02*
X86083Y-52202D01*
X86369Y-52702D02*
X86154Y-52416D01*
X86369Y-52202D02*
X86083Y-52488D01*
G54D14*
X69492Y-67685D02*
X68892Y-67685D01*
X69464Y-67428D02*
X69492Y-67371D01*
X69492Y-67257D01*
X69464Y-67200D01*
X69407Y-67171D01*
X69378Y-67171D01*
X69321Y-67200D01*
X69292Y-67257D01*
X69292Y-67342D01*
X69264Y-67400D01*
X69207Y-67428D01*
X69178Y-67428D01*
X69121Y-67400D01*
X69092Y-67342D01*
X69092Y-67257D01*
X69121Y-67200D01*
X69492Y-66828D02*
X69464Y-66885D01*
X69435Y-66914D01*
X69378Y-66942D01*
X69207Y-66942D01*
X69150Y-66914D01*
X69121Y-66885D01*
X69092Y-66828D01*
X69092Y-66742D01*
X69121Y-66685D01*
X69150Y-66657D01*
X69207Y-66628D01*
X69378Y-66628D01*
X69435Y-66657D01*
X69464Y-66685D01*
X69492Y-66742D01*
X69492Y-66828D01*
X69092Y-66457D02*
X69092Y-66228D01*
X68892Y-66371D02*
X69407Y-66371D01*
X69464Y-66342D01*
X69492Y-66285D01*
X69492Y-66228D01*
X69492Y-66028D02*
X68892Y-66028D01*
X69492Y-65771D02*
X69178Y-65771D01*
X69121Y-65800D01*
X69092Y-65857D01*
X69092Y-65942D01*
X69121Y-66000D01*
X69150Y-66028D01*
X69464Y-65257D02*
X69492Y-65314D01*
X69492Y-65428D01*
X69464Y-65485D01*
X69407Y-65514D01*
X69178Y-65514D01*
X69121Y-65485D01*
X69092Y-65428D01*
X69092Y-65314D01*
X69121Y-65257D01*
X69178Y-65228D01*
X69235Y-65228D01*
X69292Y-65514D01*
X69492Y-64971D02*
X69092Y-64971D01*
X69207Y-64971D02*
X69150Y-64942D01*
X69121Y-64914D01*
X69092Y-64857D01*
X69092Y-64800D01*
X69492Y-64600D02*
X69092Y-64600D01*
X69150Y-64600D02*
X69121Y-64571D01*
X69092Y-64514D01*
X69092Y-64428D01*
X69121Y-64371D01*
X69178Y-64342D01*
X69492Y-64342D01*
X69178Y-64342D02*
X69121Y-64314D01*
X69092Y-64257D01*
X69092Y-64171D01*
X69121Y-64114D01*
X69178Y-64085D01*
X69492Y-64085D01*
X69492Y-63542D02*
X69178Y-63542D01*
X69121Y-63571D01*
X69092Y-63628D01*
X69092Y-63742D01*
X69121Y-63800D01*
X69464Y-63542D02*
X69492Y-63600D01*
X69492Y-63742D01*
X69464Y-63800D01*
X69407Y-63828D01*
X69350Y-63828D01*
X69292Y-63800D01*
X69264Y-63742D01*
X69264Y-63600D01*
X69235Y-63542D01*
X69492Y-63171D02*
X69464Y-63228D01*
X69407Y-63257D01*
X68892Y-63257D01*
X69435Y-62142D02*
X69464Y-62171D01*
X69492Y-62257D01*
X69492Y-62314D01*
X69464Y-62400D01*
X69407Y-62457D01*
X69350Y-62485D01*
X69235Y-62514D01*
X69150Y-62514D01*
X69035Y-62485D01*
X68978Y-62457D01*
X68921Y-62400D01*
X68892Y-62314D01*
X68892Y-62257D01*
X68921Y-62171D01*
X68950Y-62142D01*
X69492Y-61800D02*
X69464Y-61857D01*
X69435Y-61885D01*
X69378Y-61914D01*
X69207Y-61914D01*
X69150Y-61885D01*
X69121Y-61857D01*
X69092Y-61800D01*
X69092Y-61714D01*
X69121Y-61657D01*
X69150Y-61628D01*
X69207Y-61600D01*
X69378Y-61600D01*
X69435Y-61628D01*
X69464Y-61657D01*
X69492Y-61714D01*
X69492Y-61800D01*
X69092Y-61342D02*
X69492Y-61342D01*
X69150Y-61342D02*
X69121Y-61314D01*
X69092Y-61257D01*
X69092Y-61171D01*
X69121Y-61114D01*
X69178Y-61085D01*
X69492Y-61085D01*
X69092Y-60885D02*
X69092Y-60657D01*
X68892Y-60800D02*
X69407Y-60800D01*
X69464Y-60771D01*
X69492Y-60714D01*
X69492Y-60657D01*
X69492Y-60457D02*
X69092Y-60457D01*
X69207Y-60457D02*
X69150Y-60428D01*
X69121Y-60400D01*
X69092Y-60342D01*
X69092Y-60285D01*
X69492Y-60000D02*
X69464Y-60057D01*
X69435Y-60085D01*
X69378Y-60114D01*
X69207Y-60114D01*
X69150Y-60085D01*
X69121Y-60057D01*
X69092Y-60000D01*
X69092Y-59914D01*
X69121Y-59857D01*
X69150Y-59828D01*
X69207Y-59800D01*
X69378Y-59800D01*
X69435Y-59828D01*
X69464Y-59857D01*
X69492Y-59914D01*
X69492Y-60000D01*
X69492Y-59457D02*
X69464Y-59514D01*
X69407Y-59542D01*
X68892Y-59542D01*
X69492Y-59142D02*
X69464Y-59200D01*
X69407Y-59228D01*
X68892Y-59228D01*
X69464Y-58685D02*
X69492Y-58742D01*
X69492Y-58857D01*
X69464Y-58914D01*
X69407Y-58942D01*
X69178Y-58942D01*
X69121Y-58914D01*
X69092Y-58857D01*
X69092Y-58742D01*
X69121Y-58685D01*
X69178Y-58657D01*
X69235Y-58657D01*
X69292Y-58942D01*
X69492Y-58400D02*
X69092Y-58400D01*
X69207Y-58400D02*
X69150Y-58371D01*
X69121Y-58342D01*
X69092Y-58285D01*
X69092Y-58228D01*
G54D13*
X89250Y-50500D02*
G75*
G03X89250Y-50500I-1000J0D01*
G74*
G01*
X79500Y-58000D02*
X82500Y-58000D01*
X79500Y-56000D02*
X82500Y-56000D01*
X75800Y-57000D02*
G75*
G03X75500Y-56700I-300J0D01*
G74*
G01*
X75500Y-57300D02*
G75*
G03X75800Y-57000I0J300D01*
G74*
G01*
X75500Y-56000D02*
X79500Y-56000D01*
X82500Y-56000D02*
X82500Y-58000D01*
X79500Y-58000D02*
X75500Y-58000D01*
X75500Y-58000D02*
X75500Y-56000D01*
X70850Y-50650D02*
X72900Y-50650D01*
X70850Y-49850D02*
X72900Y-49850D01*
X72900Y-49850D02*
X72900Y-50650D01*
X70850Y-50650D02*
X70850Y-49850D01*
X76600Y-59100D02*
X76600Y-61150D01*
X77400Y-59100D02*
X77400Y-61150D01*
X77400Y-61150D02*
X76600Y-61150D01*
X76600Y-59100D02*
X77400Y-59100D01*
X77600Y-59100D02*
X77600Y-61150D01*
X78400Y-59100D02*
X78400Y-61150D01*
X78400Y-61150D02*
X77600Y-61150D01*
X77600Y-59100D02*
X78400Y-59100D01*
X81400Y-54900D02*
X81400Y-52850D01*
X80600Y-54900D02*
X80600Y-52850D01*
X80600Y-52850D02*
X81400Y-52850D01*
X81400Y-54900D02*
X80600Y-54900D01*
X80600Y-59100D02*
X80600Y-61150D01*
X81400Y-59100D02*
X81400Y-61150D01*
X81400Y-61150D02*
X80600Y-61150D01*
X80600Y-59100D02*
X81400Y-59100D01*
X79600Y-59100D02*
X79600Y-61150D01*
X80400Y-59100D02*
X80400Y-61150D01*
X80400Y-61150D02*
X79600Y-61150D01*
X79600Y-59100D02*
X80400Y-59100D01*
X78600Y-59100D02*
X78600Y-61150D01*
X79400Y-59100D02*
X79400Y-61150D01*
X79400Y-61150D02*
X78600Y-61150D01*
X78600Y-59100D02*
X79400Y-59100D01*
X72500Y-68500D02*
X80500Y-68500D01*
X72500Y-67500D02*
X80500Y-67500D01*
X73500Y-67500D02*
X73500Y-68500D01*
X80500Y-67500D02*
X80500Y-68500D01*
X72500Y-68500D02*
X72500Y-67500D01*
X79500Y-49500D02*
X87500Y-49500D01*
X79500Y-48500D02*
X87500Y-48500D01*
X80500Y-48500D02*
X80500Y-49500D01*
X87500Y-48500D02*
X87500Y-49500D01*
X79500Y-49500D02*
X79500Y-48500D01*
X81500Y-68500D02*
X87500Y-68500D01*
X81500Y-67500D02*
X87500Y-67500D01*
X82500Y-67500D02*
X82500Y-68500D01*
X87500Y-67500D02*
X87500Y-68500D01*
X81500Y-68500D02*
X81500Y-67500D01*
X68900Y-49500D02*
X78900Y-49500D01*
X68900Y-48500D02*
X78900Y-48500D01*
X69900Y-48500D02*
X69900Y-49500D01*
X78900Y-48500D02*
X78900Y-49500D01*
X68900Y-49500D02*
X68900Y-48500D01*
X86051Y-51551D02*
X84948Y-51551D01*
X84948Y-50448D02*
G75*
G03X84948Y-51551I551J-551D01*
G74*
G01*
X86051Y-50448D02*
G75*
G03X84948Y-50448I-551J-551D01*
G74*
G01*
X86051Y-51551D02*
G75*
G03X86051Y-50448I-551J551D01*
G74*
G01*
X92500Y-67500D02*
G75*
G03X92500Y-67500I-500J0D01*
G74*
G01*
X92000Y-67500D02*
X91000Y-67500D01*
G54D15*
G36*
X71457Y-67477D02*
X71453Y-67469D01*
X71441Y-67450D01*
X71424Y-67424D01*
X71403Y-67393D01*
X71382Y-67362D01*
X71365Y-67336D01*
X71353Y-67318D01*
X71349Y-67311D01*
X71350Y-67307D01*
X71358Y-67292D01*
X71369Y-67270D01*
X71375Y-67258D01*
X71384Y-67238D01*
X71386Y-67228D01*
X71383Y-67227D01*
X71368Y-67219D01*
X71342Y-67208D01*
X71308Y-67193D01*
X71268Y-67176D01*
X71225Y-67158D01*
X71181Y-67140D01*
X71139Y-67122D01*
X71101Y-67107D01*
X71071Y-67094D01*
X71049Y-67086D01*
X71040Y-67083D01*
X71038Y-67084D01*
X71029Y-67094D01*
X71016Y-67111D01*
X70985Y-67149D01*
X70939Y-67185D01*
X70887Y-67208D01*
X70829Y-67215D01*
X70776Y-67209D01*
X70725Y-67188D01*
X70678Y-67152D01*
X70644Y-67108D01*
X70622Y-67057D01*
X70615Y-67000D01*
X70621Y-66945D01*
X70642Y-66893D01*
X70677Y-66846D01*
X70700Y-66827D01*
X70747Y-66800D01*
X70797Y-66784D01*
X70809Y-66783D01*
X70865Y-66785D01*
X70918Y-66801D01*
X70965Y-66830D01*
X71004Y-66871D01*
X71008Y-66876D01*
X71022Y-66895D01*
X71031Y-66907D01*
X71039Y-66917D01*
X71209Y-66847D01*
X71236Y-66836D01*
X71282Y-66816D01*
X71322Y-66799D01*
X71354Y-66786D01*
X71375Y-66776D01*
X71384Y-66772D01*
X71384Y-66772D01*
X71385Y-66766D01*
X71380Y-66753D01*
X71369Y-66729D01*
X71361Y-66713D01*
X71352Y-66695D01*
X71349Y-66687D01*
X71353Y-66680D01*
X71364Y-66663D01*
X71381Y-66638D01*
X71401Y-66608D01*
X71421Y-66579D01*
X71439Y-66552D01*
X71451Y-66533D01*
X71456Y-66523D01*
X71456Y-66522D01*
X71451Y-66514D01*
X71439Y-66498D01*
X71417Y-66475D01*
X71385Y-66443D01*
X71380Y-66438D01*
X71352Y-66411D01*
X71329Y-66389D01*
X71313Y-66374D01*
X71306Y-66369D01*
X71306Y-66369D01*
X71296Y-66374D01*
X71277Y-66386D01*
X71250Y-66404D01*
X71219Y-66425D01*
X71137Y-66481D01*
X71060Y-66450D01*
X71037Y-66441D01*
X71008Y-66429D01*
X70988Y-66420D01*
X70979Y-66415D01*
X70976Y-66407D01*
X70971Y-66386D01*
X70964Y-66355D01*
X70958Y-66319D01*
X70951Y-66284D01*
X70945Y-66253D01*
X70941Y-66230D01*
X70939Y-66220D01*
X70937Y-66218D01*
X70932Y-66216D01*
X70922Y-66214D01*
X70903Y-66214D01*
X70873Y-66213D01*
X70829Y-66213D01*
X70825Y-66213D01*
X70783Y-66214D01*
X70750Y-66214D01*
X70729Y-66215D01*
X70721Y-66217D01*
X70721Y-66217D01*
X70718Y-66227D01*
X70714Y-66249D01*
X70707Y-66280D01*
X70700Y-66318D01*
X70700Y-66320D01*
X70693Y-66357D01*
X70686Y-66388D01*
X70681Y-66410D01*
X70678Y-66419D01*
X70676Y-66421D01*
X70661Y-66429D01*
X70638Y-66440D01*
X70610Y-66452D01*
X70581Y-66464D01*
X70554Y-66475D01*
X70535Y-66482D01*
X70526Y-66484D01*
X70526Y-66484D01*
X70517Y-66478D01*
X70497Y-66465D01*
X70471Y-66447D01*
X70439Y-66425D01*
X70436Y-66424D01*
X70405Y-66402D01*
X70378Y-66385D01*
X70359Y-66373D01*
X70351Y-66369D01*
X70350Y-66369D01*
X70341Y-66376D01*
X70323Y-66392D01*
X70299Y-66415D01*
X70271Y-66443D01*
X70263Y-66452D01*
X70233Y-66482D01*
X70213Y-66503D01*
X70203Y-66517D01*
X70200Y-66523D01*
X70201Y-66523D01*
X70206Y-66533D01*
X70219Y-66553D01*
X70238Y-66580D01*
X70259Y-66612D01*
X70261Y-66614D01*
X70282Y-66645D01*
X70300Y-66671D01*
X70312Y-66690D01*
X70317Y-66698D01*
X70317Y-66700D01*
X70313Y-66712D01*
X70306Y-66735D01*
X70295Y-66762D01*
X70283Y-66791D01*
X70272Y-66818D01*
X70263Y-66838D01*
X70258Y-66847D01*
X70257Y-66847D01*
X70246Y-66851D01*
X70222Y-66856D01*
X70190Y-66863D01*
X70151Y-66870D01*
X70145Y-66871D01*
X70108Y-66878D01*
X70077Y-66884D01*
X70055Y-66889D01*
X70046Y-66891D01*
X70045Y-66896D01*
X70044Y-66915D01*
X70043Y-66943D01*
X70043Y-66977D01*
X70043Y-67012D01*
X70044Y-67046D01*
X70045Y-67076D01*
X70046Y-67097D01*
X70048Y-67106D01*
X70049Y-67107D01*
X70060Y-67110D01*
X70084Y-67115D01*
X70116Y-67122D01*
X70155Y-67129D01*
X70162Y-67130D01*
X70199Y-67137D01*
X70230Y-67144D01*
X70251Y-67148D01*
X70259Y-67151D01*
X70261Y-67154D01*
X70268Y-67169D01*
X70278Y-67194D01*
X70291Y-67226D01*
X70320Y-67298D01*
X70259Y-67386D01*
X70254Y-67394D01*
X70232Y-67426D01*
X70215Y-67452D01*
X70203Y-67470D01*
X70199Y-67478D01*
X70199Y-67478D01*
X70207Y-67487D01*
X70223Y-67505D01*
X70247Y-67529D01*
X70274Y-67556D01*
X70295Y-67577D01*
X70320Y-67601D01*
X70336Y-67617D01*
X70347Y-67625D01*
X70354Y-67628D01*
X70358Y-67627D01*
X70367Y-67622D01*
X70386Y-67609D01*
X70413Y-67591D01*
X70444Y-67569D01*
X70471Y-67551D01*
X70500Y-67532D01*
X70521Y-67520D01*
X70532Y-67515D01*
X70536Y-67516D01*
X70553Y-67523D01*
X70580Y-67533D01*
X70611Y-67546D01*
X70681Y-67577D01*
X70689Y-67623D01*
X70695Y-67651D01*
X70702Y-67690D01*
X70709Y-67727D01*
X70721Y-67785D01*
X70933Y-67787D01*
X70937Y-67778D01*
X70940Y-67769D01*
X70944Y-67748D01*
X70950Y-67717D01*
X70957Y-67681D01*
X70963Y-67650D01*
X70969Y-67619D01*
X70973Y-67597D01*
X70975Y-67587D01*
X70979Y-67584D01*
X70994Y-67576D01*
X71018Y-67565D01*
X71047Y-67553D01*
X71076Y-67541D01*
X71104Y-67530D01*
X71125Y-67522D01*
X71136Y-67519D01*
X71144Y-67523D01*
X71162Y-67535D01*
X71188Y-67552D01*
X71219Y-67573D01*
X71250Y-67595D01*
X71277Y-67612D01*
X71296Y-67625D01*
X71304Y-67630D01*
X71310Y-67627D01*
X71325Y-67615D01*
X71349Y-67592D01*
X71384Y-67557D01*
X71389Y-67551D01*
X71416Y-67524D01*
X71437Y-67500D01*
X71452Y-67484D01*
X71457Y-67477D01*
X71457Y-67477D01*
G37*
G54D10*
X93000Y-52000D02*
X92500Y-52000D01*
X92500Y-52000D02*
X92500Y-51000D01*
X92500Y-51000D02*
X93000Y-51000D01*
X93000Y-54000D02*
X92500Y-54000D01*
X92500Y-54000D02*
X92500Y-53000D01*
X92500Y-53000D02*
X93000Y-53000D01*
X89500Y-54500D02*
X93000Y-54500D01*
X93000Y-54500D02*
X93000Y-50500D01*
X93000Y-50500D02*
X89500Y-50500D01*
X89500Y-50500D02*
X89500Y-54500D01*
X93000Y-56000D02*
X92500Y-56000D01*
X92500Y-56000D02*
X92500Y-55000D01*
X92500Y-55000D02*
X93000Y-55000D01*
X93000Y-58000D02*
X92500Y-58000D01*
X92500Y-58000D02*
X92500Y-57000D01*
X92500Y-57000D02*
X93000Y-57000D01*
X89500Y-58500D02*
X93000Y-58500D01*
X93000Y-58500D02*
X93000Y-54500D01*
X93000Y-54500D02*
X89500Y-54500D01*
X89500Y-54500D02*
X89500Y-58500D01*
X93000Y-60000D02*
X92500Y-60000D01*
X92500Y-60000D02*
X92500Y-59000D01*
X92500Y-59000D02*
X93000Y-59000D01*
X93000Y-62000D02*
X92500Y-62000D01*
X92500Y-62000D02*
X92500Y-61000D01*
X92500Y-61000D02*
X93000Y-61000D01*
X89500Y-62500D02*
X93000Y-62500D01*
X93000Y-62500D02*
X93000Y-58500D01*
X93000Y-58500D02*
X89500Y-58500D01*
X89500Y-58500D02*
X89500Y-62500D01*
X93000Y-64000D02*
X92500Y-64000D01*
X92500Y-64000D02*
X92500Y-63000D01*
X92500Y-63000D02*
X93000Y-63000D01*
X93000Y-66000D02*
X92500Y-66000D01*
X92500Y-66000D02*
X92500Y-65000D01*
X92500Y-65000D02*
X93000Y-65000D01*
X89500Y-66500D02*
X93000Y-66500D01*
X93000Y-66500D02*
X93000Y-62500D01*
X93000Y-62500D02*
X89500Y-62500D01*
X89500Y-62500D02*
X89500Y-66500D01*
G54D13*
X78500Y-51500D02*
X78100Y-51500D01*
X78100Y-51500D02*
X78100Y-51900D01*
X78100Y-51900D02*
X74900Y-51900D01*
X74900Y-51900D02*
X74900Y-51100D01*
X74900Y-51100D02*
X78100Y-51100D01*
X78100Y-51100D02*
X78100Y-51500D01*
X74500Y-51500D02*
X74900Y-51500D01*
X74500Y-53500D02*
X74900Y-53500D01*
X74900Y-53500D02*
X74900Y-53100D01*
X74900Y-53100D02*
X78100Y-53100D01*
X78100Y-53100D02*
X78100Y-53900D01*
X78100Y-53900D02*
X74900Y-53900D01*
X74900Y-53900D02*
X74900Y-53500D01*
X78500Y-53500D02*
X78100Y-53500D01*
X71250Y-57750D02*
X71250Y-57350D01*
X71250Y-57350D02*
X70850Y-57350D01*
X70850Y-57350D02*
X70850Y-54150D01*
X70850Y-54150D02*
X71650Y-54150D01*
X71650Y-54150D02*
X71650Y-57350D01*
X71650Y-57350D02*
X71250Y-57350D01*
X71250Y-53750D02*
X71250Y-54150D01*
X80000Y-50250D02*
X80400Y-50250D01*
X80400Y-50250D02*
X80400Y-49850D01*
X80400Y-49850D02*
X83600Y-49850D01*
X83600Y-49850D02*
X83600Y-50650D01*
X83600Y-50650D02*
X80400Y-50650D01*
X80400Y-50650D02*
X80400Y-50250D01*
X84000Y-50250D02*
X83600Y-50250D01*
X72850Y-52000D02*
X73250Y-52000D01*
X70650Y-52000D02*
X70250Y-52000D01*
X72850Y-51600D02*
X70650Y-51600D01*
X70650Y-52400D02*
X72850Y-52400D01*
X70900Y-52400D02*
X70900Y-51600D01*
X70650Y-52000D02*
X70650Y-52400D01*
X72850Y-52400D02*
X72850Y-52000D01*
X72850Y-52000D02*
X72850Y-51600D01*
X70650Y-51600D02*
X70650Y-52000D01*
X79500Y-62500D02*
X79900Y-62500D01*
X79900Y-62500D02*
X79900Y-62100D01*
X79900Y-62100D02*
X83100Y-62100D01*
X83100Y-62100D02*
X83100Y-62900D01*
X83100Y-62900D02*
X79900Y-62900D01*
X79900Y-62900D02*
X79900Y-62500D01*
X83500Y-62500D02*
X83100Y-62500D01*
X83500Y-63500D02*
X83100Y-63500D01*
X83100Y-63500D02*
X83100Y-63900D01*
X83100Y-63900D02*
X79900Y-63900D01*
X79900Y-63900D02*
X79900Y-63100D01*
X79900Y-63100D02*
X83100Y-63100D01*
X83100Y-63100D02*
X83100Y-63500D01*
X79500Y-63500D02*
X79900Y-63500D01*
X79500Y-64500D02*
X79900Y-64500D01*
X79900Y-64500D02*
X79900Y-64100D01*
X79900Y-64100D02*
X83100Y-64100D01*
X83100Y-64100D02*
X83100Y-64900D01*
X83100Y-64900D02*
X79900Y-64900D01*
X79900Y-64900D02*
X79900Y-64500D01*
X83500Y-64500D02*
X83100Y-64500D01*
X79500Y-66500D02*
X79900Y-66500D01*
X79900Y-66500D02*
X79900Y-66100D01*
X79900Y-66100D02*
X83100Y-66100D01*
X83100Y-66100D02*
X83100Y-66900D01*
X83100Y-66900D02*
X79900Y-66900D01*
X79900Y-66900D02*
X79900Y-66500D01*
X83500Y-66500D02*
X83100Y-66500D01*
X83500Y-65500D02*
X83100Y-65500D01*
X83100Y-65500D02*
X83100Y-65900D01*
X83100Y-65900D02*
X79900Y-65900D01*
X79900Y-65900D02*
X79900Y-65100D01*
X79900Y-65100D02*
X83100Y-65100D01*
X83100Y-65100D02*
X83100Y-65500D01*
X79500Y-65500D02*
X79900Y-65500D01*
X78500Y-62500D02*
X78100Y-62500D01*
X78100Y-62500D02*
X78100Y-62900D01*
X78100Y-62900D02*
X74900Y-62900D01*
X74900Y-62900D02*
X74900Y-62100D01*
X74900Y-62100D02*
X78100Y-62100D01*
X78100Y-62100D02*
X78100Y-62500D01*
X74500Y-62500D02*
X74900Y-62500D01*
X74500Y-63500D02*
X74900Y-63500D01*
X74900Y-63500D02*
X74900Y-63100D01*
X74900Y-63100D02*
X78100Y-63100D01*
X78100Y-63100D02*
X78100Y-63900D01*
X78100Y-63900D02*
X74900Y-63900D01*
X74900Y-63900D02*
X74900Y-63500D01*
X78500Y-63500D02*
X78100Y-63500D01*
X78500Y-64500D02*
X78100Y-64500D01*
X78100Y-64500D02*
X78100Y-64900D01*
X78100Y-64900D02*
X74900Y-64900D01*
X74900Y-64900D02*
X74900Y-64100D01*
X74900Y-64100D02*
X78100Y-64100D01*
X78100Y-64100D02*
X78100Y-64500D01*
X74500Y-64500D02*
X74900Y-64500D01*
X74500Y-65500D02*
X74900Y-65500D01*
X74900Y-65500D02*
X74900Y-65100D01*
X74900Y-65100D02*
X78100Y-65100D01*
X78100Y-65100D02*
X78100Y-65900D01*
X78100Y-65900D02*
X74900Y-65900D01*
X74900Y-65900D02*
X74900Y-65500D01*
X78500Y-65500D02*
X78100Y-65500D01*
X78500Y-66500D02*
X78100Y-66500D01*
X78100Y-66500D02*
X78100Y-66900D01*
X78100Y-66900D02*
X74900Y-66900D01*
X74900Y-66900D02*
X74900Y-66100D01*
X74900Y-66100D02*
X78100Y-66100D01*
X78100Y-66100D02*
X78100Y-66500D01*
X74500Y-66500D02*
X74900Y-66500D01*
X83250Y-56250D02*
X83250Y-55850D01*
X83250Y-55850D02*
X82850Y-55850D01*
X82850Y-55850D02*
X82850Y-52650D01*
X82850Y-52650D02*
X83650Y-52650D01*
X83650Y-52650D02*
X83650Y-55850D01*
X83650Y-55850D02*
X83250Y-55850D01*
X83250Y-52250D02*
X83250Y-52650D01*
X80000Y-51250D02*
X80400Y-51250D01*
X80400Y-51250D02*
X80400Y-50850D01*
X80400Y-50850D02*
X83600Y-50850D01*
X83600Y-50850D02*
X83600Y-51650D01*
X83600Y-51650D02*
X80400Y-51650D01*
X80400Y-51650D02*
X80400Y-51250D01*
X84000Y-51250D02*
X83600Y-51250D01*
X70250Y-57750D02*
X70250Y-57350D01*
X70250Y-57350D02*
X69850Y-57350D01*
X69850Y-57350D02*
X69850Y-54150D01*
X69850Y-54150D02*
X70650Y-54150D01*
X70650Y-54150D02*
X70650Y-57350D01*
X70650Y-57350D02*
X70250Y-57350D01*
X70250Y-53750D02*
X70250Y-54150D01*
X78500Y-52500D02*
X78100Y-52500D01*
X78100Y-52500D02*
X78100Y-52900D01*
X78100Y-52900D02*
X74900Y-52900D01*
X74900Y-52900D02*
X74900Y-52100D01*
X74900Y-52100D02*
X78100Y-52100D01*
X78100Y-52100D02*
X78100Y-52500D01*
X74500Y-52500D02*
X74900Y-52500D01*
X79400Y-49850D02*
X77350Y-49850D01*
X79400Y-50650D02*
X77350Y-50650D01*
X77350Y-50650D02*
X77350Y-49850D01*
X79400Y-49850D02*
X79400Y-50650D01*
X86000Y-58000D02*
X85750Y-58000D01*
X85750Y-58000D02*
X85750Y-54000D01*
X85750Y-54000D02*
X86000Y-54000D01*
X87500Y-58000D02*
X86000Y-58000D01*
X86000Y-58000D02*
X86000Y-54000D01*
X86000Y-54000D02*
X87500Y-54000D01*
X87500Y-54000D02*
X87500Y-58000D01*
G54D16*
X88877Y-50660D02*
X88889Y-50672D01*
X88901Y-50708D01*
X88901Y-50732D01*
X88889Y-50767D01*
X88865Y-50791D01*
X88841Y-50803D01*
X88794Y-50815D01*
X88758Y-50815D01*
X88710Y-50803D01*
X88686Y-50791D01*
X88663Y-50767D01*
X88651Y-50732D01*
X88651Y-50708D01*
X88663Y-50672D01*
X88675Y-50660D01*
X88651Y-50446D02*
X88651Y-50494D01*
X88663Y-50517D01*
X88675Y-50529D01*
X88710Y-50553D01*
X88758Y-50565D01*
X88853Y-50565D01*
X88877Y-50553D01*
X88889Y-50541D01*
X88901Y-50517D01*
X88901Y-50470D01*
X88889Y-50446D01*
X88877Y-50434D01*
X88853Y-50422D01*
X88794Y-50422D01*
X88770Y-50434D01*
X88758Y-50446D01*
X88746Y-50470D01*
X88746Y-50517D01*
X88758Y-50541D01*
X88770Y-50553D01*
X88794Y-50565D01*
X88651Y-50267D02*
X88651Y-50244D01*
X88663Y-50220D01*
X88675Y-50208D01*
X88698Y-50196D01*
X88746Y-50184D01*
X88805Y-50184D01*
X88853Y-50196D01*
X88877Y-50208D01*
X88889Y-50220D01*
X88901Y-50244D01*
X88901Y-50267D01*
X88889Y-50291D01*
X88877Y-50303D01*
X88853Y-50315D01*
X88805Y-50327D01*
X88746Y-50327D01*
X88698Y-50315D01*
X88675Y-50303D01*
X88663Y-50291D01*
X88651Y-50267D01*
X87751Y-50767D02*
X87751Y-50910D01*
X87751Y-50839D02*
X87501Y-50839D01*
X87536Y-50863D01*
X87560Y-50886D01*
X87572Y-50910D01*
X87501Y-50613D02*
X87501Y-50589D01*
X87513Y-50565D01*
X87525Y-50553D01*
X87548Y-50541D01*
X87596Y-50529D01*
X87655Y-50529D01*
X87703Y-50541D01*
X87727Y-50553D01*
X87739Y-50565D01*
X87751Y-50589D01*
X87751Y-50613D01*
X87739Y-50636D01*
X87727Y-50648D01*
X87703Y-50660D01*
X87655Y-50672D01*
X87596Y-50672D01*
X87548Y-50660D01*
X87525Y-50648D01*
X87513Y-50636D01*
X87501Y-50613D01*
X87584Y-50315D02*
X87751Y-50315D01*
X87584Y-50422D02*
X87715Y-50422D01*
X87739Y-50410D01*
X87751Y-50386D01*
X87751Y-50351D01*
X87739Y-50327D01*
X87727Y-50315D01*
X87620Y-50113D02*
X87620Y-50196D01*
X87751Y-50196D02*
X87501Y-50196D01*
X87501Y-50077D01*
G54D11*
X89007Y-49614D02*
X89007Y-49385D01*
X89121Y-49500D02*
X88892Y-49500D01*
G54D12*
X74861Y-57304D02*
X75185Y-57304D01*
X75223Y-57285D01*
X75242Y-57266D01*
X75261Y-57228D01*
X75261Y-57152D01*
X75242Y-57114D01*
X75223Y-57095D01*
X75185Y-57076D01*
X74861Y-57076D01*
X75261Y-56676D02*
X75261Y-56904D01*
X75261Y-56790D02*
X74861Y-56790D01*
X74919Y-56828D01*
X74957Y-56866D01*
X74976Y-56904D01*
X80323Y-57161D02*
X80133Y-57161D01*
X80133Y-56761D01*
X80457Y-57161D02*
X80457Y-56761D01*
X80590Y-57047D01*
X80723Y-56761D01*
X80723Y-57161D01*
X80876Y-56761D02*
X81123Y-56761D01*
X80990Y-56914D01*
X81047Y-56914D01*
X81085Y-56933D01*
X81104Y-56952D01*
X81123Y-56990D01*
X81123Y-57085D01*
X81104Y-57123D01*
X81085Y-57142D01*
X81047Y-57161D01*
X80933Y-57161D01*
X80895Y-57142D01*
X80876Y-57123D01*
X81276Y-56800D02*
X81295Y-56780D01*
X81333Y-56761D01*
X81428Y-56761D01*
X81466Y-56780D01*
X81485Y-56800D01*
X81504Y-56838D01*
X81504Y-56876D01*
X81485Y-56933D01*
X81257Y-57161D01*
X81504Y-57161D01*
X81847Y-56895D02*
X81847Y-57161D01*
X81752Y-56742D02*
X81657Y-57028D01*
X81904Y-57028D01*
G54D16*
X71089Y-51077D02*
X71077Y-51089D01*
X71041Y-51101D01*
X71017Y-51101D01*
X70982Y-51089D01*
X70958Y-51065D01*
X70946Y-51041D01*
X70934Y-50994D01*
X70934Y-50958D01*
X70946Y-50910D01*
X70958Y-50886D01*
X70982Y-50863D01*
X71017Y-50851D01*
X71041Y-50851D01*
X71077Y-50863D01*
X71089Y-50875D01*
X71172Y-50851D02*
X71327Y-50851D01*
X71244Y-50946D01*
X71279Y-50946D01*
X71303Y-50958D01*
X71315Y-50970D01*
X71327Y-50994D01*
X71327Y-51053D01*
X71315Y-51077D01*
X71303Y-51089D01*
X71279Y-51101D01*
X71208Y-51101D01*
X71184Y-51089D01*
X71172Y-51077D01*
X71482Y-50851D02*
X71505Y-50851D01*
X71529Y-50863D01*
X71541Y-50875D01*
X71553Y-50898D01*
X71565Y-50946D01*
X71565Y-51005D01*
X71553Y-51053D01*
X71541Y-51077D01*
X71529Y-51089D01*
X71505Y-51101D01*
X71482Y-51101D01*
X71458Y-51089D01*
X71446Y-51077D01*
X71434Y-51053D01*
X71422Y-51005D01*
X71422Y-50946D01*
X71434Y-50898D01*
X71446Y-50875D01*
X71458Y-50863D01*
X71482Y-50851D01*
X72089Y-50851D02*
X72113Y-50851D01*
X72136Y-50863D01*
X72148Y-50875D01*
X72160Y-50898D01*
X72172Y-50946D01*
X72172Y-51005D01*
X72160Y-51053D01*
X72148Y-51077D01*
X72136Y-51089D01*
X72113Y-51101D01*
X72089Y-51101D01*
X72065Y-51089D01*
X72053Y-51077D01*
X72041Y-51053D01*
X72029Y-51005D01*
X72029Y-50946D01*
X72041Y-50898D01*
X72053Y-50875D01*
X72065Y-50863D01*
X72089Y-50851D01*
X72279Y-51077D02*
X72291Y-51089D01*
X72279Y-51101D01*
X72267Y-51089D01*
X72279Y-51077D01*
X72279Y-51101D01*
X72529Y-51101D02*
X72386Y-51101D01*
X72458Y-51101D02*
X72458Y-50851D01*
X72434Y-50886D01*
X72410Y-50910D01*
X72386Y-50922D01*
X72744Y-50934D02*
X72744Y-51101D01*
X72636Y-50934D02*
X72636Y-51065D01*
X72648Y-51089D01*
X72672Y-51101D01*
X72708Y-51101D01*
X72732Y-51089D01*
X72744Y-51077D01*
X72946Y-50970D02*
X72863Y-50970D01*
X72863Y-51101D02*
X72863Y-50851D01*
X72982Y-50851D01*
X76839Y-61577D02*
X76827Y-61589D01*
X76791Y-61601D01*
X76767Y-61601D01*
X76732Y-61589D01*
X76708Y-61565D01*
X76696Y-61541D01*
X76684Y-61494D01*
X76684Y-61458D01*
X76696Y-61410D01*
X76708Y-61386D01*
X76732Y-61363D01*
X76767Y-61351D01*
X76791Y-61351D01*
X76827Y-61363D01*
X76839Y-61375D01*
X76934Y-61375D02*
X76946Y-61363D01*
X76970Y-61351D01*
X77029Y-61351D01*
X77053Y-61363D01*
X77065Y-61375D01*
X77077Y-61398D01*
X77077Y-61422D01*
X77065Y-61458D01*
X76922Y-61601D01*
X77077Y-61601D01*
X77160Y-61351D02*
X77315Y-61351D01*
X77232Y-61446D01*
X77267Y-61446D01*
X77291Y-61458D01*
X77303Y-61470D01*
X77315Y-61494D01*
X77315Y-61553D01*
X77303Y-61577D01*
X77291Y-61589D01*
X77267Y-61601D01*
X77196Y-61601D01*
X77172Y-61589D01*
X77160Y-61577D01*
X76101Y-60660D02*
X76101Y-60636D01*
X76113Y-60613D01*
X76125Y-60601D01*
X76148Y-60589D01*
X76196Y-60577D01*
X76255Y-60577D01*
X76303Y-60589D01*
X76327Y-60601D01*
X76339Y-60613D01*
X76351Y-60636D01*
X76351Y-60660D01*
X76339Y-60684D01*
X76327Y-60696D01*
X76303Y-60708D01*
X76255Y-60720D01*
X76196Y-60720D01*
X76148Y-60708D01*
X76125Y-60696D01*
X76113Y-60684D01*
X76101Y-60660D01*
X76327Y-60470D02*
X76339Y-60458D01*
X76351Y-60470D01*
X76339Y-60482D01*
X76327Y-60470D01*
X76351Y-60470D01*
X76351Y-60220D02*
X76351Y-60363D01*
X76351Y-60291D02*
X76101Y-60291D01*
X76136Y-60315D01*
X76160Y-60339D01*
X76172Y-60363D01*
X76184Y-60005D02*
X76351Y-60005D01*
X76184Y-60113D02*
X76315Y-60113D01*
X76339Y-60101D01*
X76351Y-60077D01*
X76351Y-60041D01*
X76339Y-60017D01*
X76327Y-60005D01*
X76220Y-59803D02*
X76220Y-59886D01*
X76351Y-59886D02*
X76101Y-59886D01*
X76101Y-59767D01*
X77839Y-61577D02*
X77827Y-61589D01*
X77791Y-61601D01*
X77767Y-61601D01*
X77732Y-61589D01*
X77708Y-61565D01*
X77696Y-61541D01*
X77684Y-61494D01*
X77684Y-61458D01*
X77696Y-61410D01*
X77708Y-61386D01*
X77732Y-61363D01*
X77767Y-61351D01*
X77791Y-61351D01*
X77827Y-61363D01*
X77839Y-61375D01*
X77934Y-61375D02*
X77946Y-61363D01*
X77970Y-61351D01*
X78029Y-61351D01*
X78053Y-61363D01*
X78065Y-61375D01*
X78077Y-61398D01*
X78077Y-61422D01*
X78065Y-61458D01*
X77922Y-61601D01*
X78077Y-61601D01*
X78315Y-61601D02*
X78172Y-61601D01*
X78244Y-61601D02*
X78244Y-61351D01*
X78220Y-61386D01*
X78196Y-61410D01*
X78172Y-61422D01*
X80839Y-52577D02*
X80827Y-52589D01*
X80791Y-52601D01*
X80767Y-52601D01*
X80732Y-52589D01*
X80708Y-52565D01*
X80696Y-52541D01*
X80684Y-52494D01*
X80684Y-52458D01*
X80696Y-52410D01*
X80708Y-52386D01*
X80732Y-52363D01*
X80767Y-52351D01*
X80791Y-52351D01*
X80827Y-52363D01*
X80839Y-52375D01*
X81053Y-52434D02*
X81053Y-52601D01*
X80994Y-52339D02*
X80934Y-52517D01*
X81089Y-52517D01*
X81232Y-52351D02*
X81255Y-52351D01*
X81279Y-52363D01*
X81291Y-52375D01*
X81303Y-52398D01*
X81315Y-52446D01*
X81315Y-52505D01*
X81303Y-52553D01*
X81291Y-52577D01*
X81279Y-52589D01*
X81255Y-52601D01*
X81232Y-52601D01*
X81208Y-52589D01*
X81196Y-52577D01*
X81184Y-52553D01*
X81172Y-52505D01*
X81172Y-52446D01*
X81184Y-52398D01*
X81196Y-52375D01*
X81208Y-52363D01*
X81232Y-52351D01*
X81851Y-53767D02*
X81851Y-53910D01*
X81851Y-53839D02*
X81601Y-53839D01*
X81636Y-53863D01*
X81660Y-53886D01*
X81672Y-53910D01*
X81601Y-53613D02*
X81601Y-53589D01*
X81613Y-53565D01*
X81625Y-53553D01*
X81648Y-53541D01*
X81696Y-53529D01*
X81755Y-53529D01*
X81803Y-53541D01*
X81827Y-53553D01*
X81839Y-53565D01*
X81851Y-53589D01*
X81851Y-53613D01*
X81839Y-53636D01*
X81827Y-53648D01*
X81803Y-53660D01*
X81755Y-53672D01*
X81696Y-53672D01*
X81648Y-53660D01*
X81625Y-53648D01*
X81613Y-53636D01*
X81601Y-53613D01*
X81684Y-53422D02*
X81851Y-53422D01*
X81708Y-53422D02*
X81696Y-53410D01*
X81684Y-53386D01*
X81684Y-53351D01*
X81696Y-53327D01*
X81720Y-53315D01*
X81851Y-53315D01*
X81720Y-53113D02*
X81720Y-53196D01*
X81851Y-53196D02*
X81601Y-53196D01*
X81601Y-53077D01*
X81827Y-60910D02*
X81839Y-60922D01*
X81851Y-60958D01*
X81851Y-60982D01*
X81839Y-61017D01*
X81815Y-61041D01*
X81791Y-61053D01*
X81744Y-61065D01*
X81708Y-61065D01*
X81660Y-61053D01*
X81636Y-61041D01*
X81613Y-61017D01*
X81601Y-60982D01*
X81601Y-60958D01*
X81613Y-60922D01*
X81625Y-60910D01*
X81851Y-60672D02*
X81851Y-60815D01*
X81851Y-60744D02*
X81601Y-60744D01*
X81636Y-60767D01*
X81660Y-60791D01*
X81672Y-60815D01*
X81601Y-60589D02*
X81601Y-60434D01*
X81696Y-60517D01*
X81696Y-60482D01*
X81708Y-60458D01*
X81720Y-60446D01*
X81744Y-60434D01*
X81803Y-60434D01*
X81827Y-60446D01*
X81839Y-60458D01*
X81851Y-60482D01*
X81851Y-60553D01*
X81839Y-60577D01*
X81827Y-60589D01*
X79839Y-61577D02*
X79827Y-61589D01*
X79791Y-61601D01*
X79767Y-61601D01*
X79732Y-61589D01*
X79708Y-61565D01*
X79696Y-61541D01*
X79684Y-61494D01*
X79684Y-61458D01*
X79696Y-61410D01*
X79708Y-61386D01*
X79732Y-61363D01*
X79767Y-61351D01*
X79791Y-61351D01*
X79827Y-61363D01*
X79839Y-61375D01*
X80077Y-61601D02*
X79934Y-61601D01*
X80005Y-61601D02*
X80005Y-61351D01*
X79982Y-61386D01*
X79958Y-61410D01*
X79934Y-61422D01*
X80315Y-61601D02*
X80172Y-61601D01*
X80244Y-61601D02*
X80244Y-61351D01*
X80220Y-61386D01*
X80196Y-61410D01*
X80172Y-61422D01*
X78839Y-61577D02*
X78827Y-61589D01*
X78791Y-61601D01*
X78767Y-61601D01*
X78732Y-61589D01*
X78708Y-61565D01*
X78696Y-61541D01*
X78684Y-61494D01*
X78684Y-61458D01*
X78696Y-61410D01*
X78708Y-61386D01*
X78732Y-61363D01*
X78767Y-61351D01*
X78791Y-61351D01*
X78827Y-61363D01*
X78839Y-61375D01*
X79077Y-61601D02*
X78934Y-61601D01*
X79005Y-61601D02*
X79005Y-61351D01*
X78982Y-61386D01*
X78958Y-61410D01*
X78934Y-61422D01*
X79172Y-61375D02*
X79184Y-61363D01*
X79208Y-61351D01*
X79267Y-61351D01*
X79291Y-61363D01*
X79303Y-61375D01*
X79315Y-61398D01*
X79315Y-61422D01*
X79303Y-61458D01*
X79160Y-61601D01*
X79315Y-61601D01*
G54D11*
X86671Y-51478D02*
X86671Y-51621D01*
X86371Y-51621D01*
X86514Y-51378D02*
X86514Y-51278D01*
X86671Y-51235D02*
X86671Y-51378D01*
X86371Y-51378D01*
X86371Y-51235D01*
X86671Y-51107D02*
X86371Y-51107D01*
X86371Y-51035D01*
X86385Y-50992D01*
X86414Y-50964D01*
X86442Y-50950D01*
X86500Y-50935D01*
X86542Y-50935D01*
X86600Y-50950D01*
X86628Y-50964D01*
X86657Y-50992D01*
X86671Y-51035D01*
X86671Y-51107D01*
X86500Y-50764D02*
X86485Y-50792D01*
X86471Y-50807D01*
X86442Y-50821D01*
X86428Y-50821D01*
X86400Y-50807D01*
X86385Y-50792D01*
X86371Y-50764D01*
X86371Y-50707D01*
X86385Y-50678D01*
X86400Y-50664D01*
X86428Y-50650D01*
X86442Y-50650D01*
X86471Y-50664D01*
X86485Y-50678D01*
X86500Y-50707D01*
X86500Y-50764D01*
X86514Y-50792D01*
X86528Y-50807D01*
X86557Y-50821D01*
X86614Y-50821D01*
X86642Y-50807D01*
X86657Y-50792D01*
X86671Y-50764D01*
X86671Y-50707D01*
X86657Y-50678D01*
X86642Y-50664D01*
X86614Y-50650D01*
X86557Y-50650D01*
X86528Y-50664D01*
X86514Y-50678D01*
X86500Y-50707D01*
X86371Y-50464D02*
X86371Y-50435D01*
X86385Y-50407D01*
X86400Y-50392D01*
X86428Y-50378D01*
X86485Y-50364D01*
X86557Y-50364D01*
X86614Y-50378D01*
X86642Y-50392D01*
X86657Y-50407D01*
X86671Y-50435D01*
X86671Y-50464D01*
X86657Y-50492D01*
X86642Y-50507D01*
X86614Y-50521D01*
X86557Y-50535D01*
X86485Y-50535D01*
X86428Y-50521D01*
X86400Y-50507D01*
X86385Y-50492D01*
X86371Y-50464D01*
G54D16*
X89559Y-67351D02*
X89702Y-67351D01*
X89630Y-67601D02*
X89630Y-67351D01*
X89785Y-67601D02*
X89785Y-67351D01*
X89785Y-67470D02*
X89928Y-67470D01*
X89928Y-67601D02*
X89928Y-67351D01*
X90035Y-67375D02*
X90047Y-67363D01*
X90071Y-67351D01*
X90130Y-67351D01*
X90154Y-67363D01*
X90166Y-67375D01*
X90178Y-67398D01*
X90178Y-67422D01*
X90166Y-67458D01*
X90023Y-67601D01*
X90178Y-67601D01*
X90333Y-67351D02*
X90357Y-67351D01*
X90380Y-67363D01*
X90392Y-67375D01*
X90404Y-67398D01*
X90416Y-67446D01*
X90416Y-67505D01*
X90404Y-67553D01*
X90392Y-67577D01*
X90380Y-67589D01*
X90357Y-67601D01*
X90333Y-67601D01*
X90309Y-67589D01*
X90297Y-67577D01*
X90285Y-67553D01*
X90273Y-67505D01*
X90273Y-67446D01*
X90285Y-67398D01*
X90297Y-67375D01*
X90309Y-67363D01*
X90333Y-67351D01*
X90851Y-67001D02*
X90708Y-67001D01*
X90779Y-67001D02*
X90779Y-66751D01*
X90755Y-66786D01*
X90732Y-66810D01*
X90708Y-66822D01*
X91005Y-66751D02*
X91029Y-66751D01*
X91053Y-66763D01*
X91065Y-66775D01*
X91077Y-66798D01*
X91089Y-66846D01*
X91089Y-66905D01*
X91077Y-66953D01*
X91065Y-66977D01*
X91053Y-66989D01*
X91029Y-67001D01*
X91005Y-67001D01*
X90982Y-66989D01*
X90970Y-66977D01*
X90958Y-66953D01*
X90946Y-66905D01*
X90946Y-66846D01*
X90958Y-66798D01*
X90970Y-66775D01*
X90982Y-66763D01*
X91005Y-66751D01*
X91196Y-67001D02*
X91196Y-66751D01*
X91220Y-66905D02*
X91291Y-67001D01*
X91291Y-66834D02*
X91196Y-66929D01*
G54D11*
X90121Y-52864D02*
X89821Y-52864D01*
X89821Y-52750D01*
X89835Y-52721D01*
X89850Y-52707D01*
X89878Y-52692D01*
X89921Y-52692D01*
X89950Y-52707D01*
X89964Y-52721D01*
X89978Y-52750D01*
X89978Y-52864D01*
X89821Y-52435D02*
X89821Y-52492D01*
X89835Y-52521D01*
X89850Y-52535D01*
X89892Y-52564D01*
X89950Y-52578D01*
X90064Y-52578D01*
X90092Y-52564D01*
X90107Y-52550D01*
X90121Y-52521D01*
X90121Y-52464D01*
X90107Y-52435D01*
X90092Y-52421D01*
X90064Y-52407D01*
X89992Y-52407D01*
X89964Y-52421D01*
X89950Y-52435D01*
X89935Y-52464D01*
X89935Y-52521D01*
X89950Y-52550D01*
X89964Y-52564D01*
X89992Y-52578D01*
X89821Y-52221D02*
X89821Y-52192D01*
X89835Y-52164D01*
X89850Y-52150D01*
X89878Y-52135D01*
X89935Y-52121D01*
X90007Y-52121D01*
X90064Y-52135D01*
X90092Y-52150D01*
X90107Y-52164D01*
X90121Y-52192D01*
X90121Y-52221D01*
X90107Y-52250D01*
X90092Y-52264D01*
X90064Y-52278D01*
X90007Y-52292D01*
X89935Y-52292D01*
X89878Y-52278D01*
X89850Y-52264D01*
X89835Y-52250D01*
X89821Y-52221D01*
X90121Y-56864D02*
X89821Y-56864D01*
X89821Y-56750D01*
X89835Y-56721D01*
X89850Y-56707D01*
X89878Y-56692D01*
X89921Y-56692D01*
X89950Y-56707D01*
X89964Y-56721D01*
X89978Y-56750D01*
X89978Y-56864D01*
X89921Y-56435D02*
X90121Y-56435D01*
X89807Y-56507D02*
X90021Y-56578D01*
X90021Y-56392D01*
X89821Y-56221D02*
X89821Y-56192D01*
X89835Y-56164D01*
X89850Y-56150D01*
X89878Y-56135D01*
X89935Y-56121D01*
X90007Y-56121D01*
X90064Y-56135D01*
X90092Y-56150D01*
X90107Y-56164D01*
X90121Y-56192D01*
X90121Y-56221D01*
X90107Y-56250D01*
X90092Y-56264D01*
X90064Y-56278D01*
X90007Y-56292D01*
X89935Y-56292D01*
X89878Y-56278D01*
X89850Y-56264D01*
X89835Y-56250D01*
X89821Y-56221D01*
X90121Y-60864D02*
X89821Y-60864D01*
X89821Y-60750D01*
X89835Y-60721D01*
X89850Y-60707D01*
X89878Y-60692D01*
X89921Y-60692D01*
X89950Y-60707D01*
X89964Y-60721D01*
X89978Y-60750D01*
X89978Y-60864D01*
X89921Y-60435D02*
X90121Y-60435D01*
X89807Y-60507D02*
X90021Y-60578D01*
X90021Y-60392D01*
X90121Y-60121D02*
X90121Y-60292D01*
X90121Y-60207D02*
X89821Y-60207D01*
X89864Y-60235D01*
X89892Y-60264D01*
X89907Y-60292D01*
X90121Y-64864D02*
X89821Y-64864D01*
X89821Y-64750D01*
X89835Y-64721D01*
X89850Y-64707D01*
X89878Y-64692D01*
X89921Y-64692D01*
X89950Y-64707D01*
X89964Y-64721D01*
X89978Y-64750D01*
X89978Y-64864D01*
X90121Y-64407D02*
X90121Y-64578D01*
X90121Y-64492D02*
X89821Y-64492D01*
X89864Y-64521D01*
X89892Y-64550D01*
X89907Y-64578D01*
X89821Y-64221D02*
X89821Y-64192D01*
X89835Y-64164D01*
X89850Y-64150D01*
X89878Y-64135D01*
X89935Y-64121D01*
X90007Y-64121D01*
X90064Y-64135D01*
X90092Y-64150D01*
X90107Y-64164D01*
X90121Y-64192D01*
X90121Y-64221D01*
X90107Y-64250D01*
X90092Y-64264D01*
X90064Y-64278D01*
X90007Y-64292D01*
X89935Y-64292D01*
X89878Y-64278D01*
X89850Y-64264D01*
X89835Y-64250D01*
X89821Y-64221D01*
X77107Y-51621D02*
X77007Y-51478D01*
X76935Y-51621D02*
X76935Y-51321D01*
X77050Y-51321D01*
X77078Y-51335D01*
X77092Y-51350D01*
X77107Y-51378D01*
X77107Y-51421D01*
X77092Y-51450D01*
X77078Y-51464D01*
X77050Y-51478D01*
X76935Y-51478D01*
X77364Y-51421D02*
X77364Y-51621D01*
X77292Y-51307D02*
X77221Y-51521D01*
X77407Y-51521D01*
X77492Y-51321D02*
X77678Y-51321D01*
X77578Y-51435D01*
X77621Y-51435D01*
X77650Y-51450D01*
X77664Y-51464D01*
X77678Y-51492D01*
X77678Y-51564D01*
X77664Y-51592D01*
X77650Y-51607D01*
X77621Y-51621D01*
X77535Y-51621D01*
X77507Y-51607D01*
X77492Y-51592D01*
X75664Y-51621D02*
X75492Y-51621D01*
X75578Y-51621D02*
X75578Y-51321D01*
X75550Y-51364D01*
X75521Y-51392D01*
X75492Y-51407D01*
X75792Y-51621D02*
X75792Y-51321D01*
X75821Y-51507D02*
X75907Y-51621D01*
X75907Y-51421D02*
X75792Y-51535D01*
X75507Y-53621D02*
X75407Y-53478D01*
X75335Y-53621D02*
X75335Y-53321D01*
X75450Y-53321D01*
X75478Y-53335D01*
X75492Y-53350D01*
X75507Y-53378D01*
X75507Y-53421D01*
X75492Y-53450D01*
X75478Y-53464D01*
X75450Y-53478D01*
X75335Y-53478D01*
X75764Y-53421D02*
X75764Y-53621D01*
X75692Y-53307D02*
X75621Y-53521D01*
X75807Y-53521D01*
X75907Y-53350D02*
X75921Y-53335D01*
X75950Y-53321D01*
X76021Y-53321D01*
X76050Y-53335D01*
X76064Y-53350D01*
X76078Y-53378D01*
X76078Y-53407D01*
X76064Y-53450D01*
X75892Y-53621D01*
X76078Y-53621D01*
X77121Y-53621D02*
X76950Y-53621D01*
X77035Y-53621D02*
X77035Y-53321D01*
X77007Y-53364D01*
X76978Y-53392D01*
X76950Y-53407D01*
X77307Y-53321D02*
X77335Y-53321D01*
X77364Y-53335D01*
X77378Y-53350D01*
X77392Y-53378D01*
X77407Y-53435D01*
X77407Y-53507D01*
X77392Y-53564D01*
X77378Y-53592D01*
X77364Y-53607D01*
X77335Y-53621D01*
X77307Y-53621D01*
X77278Y-53607D01*
X77264Y-53592D01*
X77250Y-53564D01*
X77235Y-53507D01*
X77235Y-53435D01*
X77250Y-53378D01*
X77264Y-53350D01*
X77278Y-53335D01*
X77307Y-53321D01*
X77535Y-53621D02*
X77535Y-53321D01*
X77564Y-53507D02*
X77650Y-53621D01*
X77650Y-53421D02*
X77535Y-53535D01*
X71371Y-56742D02*
X71228Y-56842D01*
X71371Y-56914D02*
X71071Y-56914D01*
X71071Y-56800D01*
X71085Y-56771D01*
X71100Y-56757D01*
X71128Y-56742D01*
X71171Y-56742D01*
X71200Y-56757D01*
X71214Y-56771D01*
X71228Y-56800D01*
X71228Y-56914D01*
X71071Y-56642D02*
X71071Y-56457D01*
X71185Y-56557D01*
X71185Y-56514D01*
X71200Y-56485D01*
X71214Y-56471D01*
X71242Y-56457D01*
X71314Y-56457D01*
X71342Y-56471D01*
X71357Y-56485D01*
X71371Y-56514D01*
X71371Y-56600D01*
X71357Y-56628D01*
X71342Y-56642D01*
X71371Y-56171D02*
X71371Y-56342D01*
X71371Y-56257D02*
X71071Y-56257D01*
X71114Y-56285D01*
X71142Y-56314D01*
X71157Y-56342D01*
X71071Y-55485D02*
X71071Y-55300D01*
X71185Y-55400D01*
X71185Y-55357D01*
X71200Y-55328D01*
X71214Y-55314D01*
X71242Y-55300D01*
X71314Y-55300D01*
X71342Y-55314D01*
X71357Y-55328D01*
X71371Y-55357D01*
X71371Y-55442D01*
X71357Y-55471D01*
X71342Y-55485D01*
X71071Y-55200D02*
X71071Y-55014D01*
X71185Y-55114D01*
X71185Y-55071D01*
X71200Y-55042D01*
X71214Y-55028D01*
X71242Y-55014D01*
X71314Y-55014D01*
X71342Y-55028D01*
X71357Y-55042D01*
X71371Y-55071D01*
X71371Y-55157D01*
X71357Y-55185D01*
X71342Y-55200D01*
X71071Y-54828D02*
X71071Y-54800D01*
X71085Y-54771D01*
X71100Y-54757D01*
X71128Y-54742D01*
X71185Y-54728D01*
X71257Y-54728D01*
X71314Y-54742D01*
X71342Y-54757D01*
X71357Y-54771D01*
X71371Y-54800D01*
X71371Y-54828D01*
X71357Y-54857D01*
X71342Y-54871D01*
X71314Y-54885D01*
X71257Y-54900D01*
X71185Y-54900D01*
X71128Y-54885D01*
X71100Y-54871D01*
X71085Y-54857D01*
X71071Y-54828D01*
X71371Y-54428D02*
X71228Y-54528D01*
X71371Y-54600D02*
X71071Y-54600D01*
X71071Y-54485D01*
X71085Y-54457D01*
X71100Y-54442D01*
X71128Y-54428D01*
X71171Y-54428D01*
X71200Y-54442D01*
X71214Y-54457D01*
X71228Y-54485D01*
X71228Y-54600D01*
X81007Y-50371D02*
X80907Y-50228D01*
X80835Y-50371D02*
X80835Y-50071D01*
X80950Y-50071D01*
X80978Y-50085D01*
X80992Y-50100D01*
X81007Y-50128D01*
X81007Y-50171D01*
X80992Y-50200D01*
X80978Y-50214D01*
X80950Y-50228D01*
X80835Y-50228D01*
X81264Y-50171D02*
X81264Y-50371D01*
X81192Y-50057D02*
X81121Y-50271D01*
X81307Y-50271D01*
X81550Y-50171D02*
X81550Y-50371D01*
X81478Y-50057D02*
X81407Y-50271D01*
X81592Y-50271D01*
X82478Y-50371D02*
X82307Y-50371D01*
X82392Y-50371D02*
X82392Y-50071D01*
X82364Y-50114D01*
X82335Y-50142D01*
X82307Y-50157D01*
X82664Y-50071D02*
X82692Y-50071D01*
X82721Y-50085D01*
X82735Y-50100D01*
X82750Y-50128D01*
X82764Y-50185D01*
X82764Y-50257D01*
X82750Y-50314D01*
X82735Y-50342D01*
X82721Y-50357D01*
X82692Y-50371D01*
X82664Y-50371D01*
X82635Y-50357D01*
X82621Y-50342D01*
X82607Y-50314D01*
X82592Y-50257D01*
X82592Y-50185D01*
X82607Y-50128D01*
X82621Y-50100D01*
X82635Y-50085D01*
X82664Y-50071D01*
X82950Y-50071D02*
X82978Y-50071D01*
X83007Y-50085D01*
X83021Y-50100D01*
X83035Y-50128D01*
X83050Y-50185D01*
X83050Y-50257D01*
X83035Y-50314D01*
X83021Y-50342D01*
X83007Y-50357D01*
X82978Y-50371D01*
X82950Y-50371D01*
X82921Y-50357D01*
X82907Y-50342D01*
X82892Y-50314D01*
X82878Y-50257D01*
X82878Y-50185D01*
X82892Y-50128D01*
X82907Y-50100D01*
X82921Y-50085D01*
X82950Y-50071D01*
X83178Y-50371D02*
X83178Y-50071D01*
X83207Y-50257D02*
X83292Y-50371D01*
X83292Y-50171D02*
X83178Y-50285D01*
X71385Y-52871D02*
X71385Y-52571D01*
X71457Y-52571D01*
X71500Y-52585D01*
X71528Y-52614D01*
X71542Y-52642D01*
X71557Y-52700D01*
X71557Y-52742D01*
X71542Y-52800D01*
X71528Y-52828D01*
X71500Y-52857D01*
X71457Y-52871D01*
X71385Y-52871D01*
X71657Y-52571D02*
X71842Y-52571D01*
X71742Y-52685D01*
X71785Y-52685D01*
X71814Y-52700D01*
X71828Y-52714D01*
X71842Y-52742D01*
X71842Y-52814D01*
X71828Y-52842D01*
X71814Y-52857D01*
X71785Y-52871D01*
X71700Y-52871D01*
X71671Y-52857D01*
X71657Y-52842D01*
X72028Y-52571D02*
X72057Y-52571D01*
X72085Y-52585D01*
X72100Y-52600D01*
X72114Y-52628D01*
X72128Y-52685D01*
X72128Y-52757D01*
X72114Y-52814D01*
X72100Y-52842D01*
X72085Y-52857D01*
X72057Y-52871D01*
X72028Y-52871D01*
X72000Y-52857D01*
X71985Y-52842D01*
X71971Y-52814D01*
X71957Y-52757D01*
X71957Y-52685D01*
X71971Y-52628D01*
X71985Y-52600D01*
X72000Y-52585D01*
X72028Y-52571D01*
X71071Y-51821D02*
X71271Y-51821D01*
X71071Y-52121D01*
X71271Y-52121D01*
X71385Y-51964D02*
X71485Y-51964D01*
X71528Y-52121D02*
X71385Y-52121D01*
X71385Y-51821D01*
X71528Y-51821D01*
X71657Y-52121D02*
X71657Y-51821D01*
X71828Y-52121D01*
X71828Y-51821D01*
X71971Y-51964D02*
X72071Y-51964D01*
X72114Y-52121D02*
X71971Y-52121D01*
X71971Y-51821D01*
X72114Y-51821D01*
X72414Y-52121D02*
X72314Y-51978D01*
X72242Y-52121D02*
X72242Y-51821D01*
X72357Y-51821D01*
X72385Y-51835D01*
X72400Y-51850D01*
X72414Y-51878D01*
X72414Y-51921D01*
X72400Y-51950D01*
X72385Y-51964D01*
X72357Y-51978D01*
X72242Y-51978D01*
X80807Y-61871D02*
X80707Y-61728D01*
X80635Y-61871D02*
X80635Y-61571D01*
X80750Y-61571D01*
X80778Y-61585D01*
X80792Y-61600D01*
X80807Y-61628D01*
X80807Y-61671D01*
X80792Y-61700D01*
X80778Y-61714D01*
X80750Y-61728D01*
X80635Y-61728D01*
X81092Y-61871D02*
X80921Y-61871D01*
X81007Y-61871D02*
X81007Y-61571D01*
X80978Y-61614D01*
X80950Y-61642D01*
X80921Y-61657D01*
X81350Y-61671D02*
X81350Y-61871D01*
X81278Y-61557D02*
X81207Y-61771D01*
X81392Y-61771D01*
X82178Y-61871D02*
X82007Y-61871D01*
X82092Y-61871D02*
X82092Y-61571D01*
X82064Y-61614D01*
X82035Y-61642D01*
X82007Y-61657D01*
X82292Y-61600D02*
X82307Y-61585D01*
X82335Y-61571D01*
X82407Y-61571D01*
X82435Y-61585D01*
X82450Y-61600D01*
X82464Y-61628D01*
X82464Y-61657D01*
X82450Y-61700D01*
X82278Y-61871D01*
X82464Y-61871D01*
X82650Y-61571D02*
X82678Y-61571D01*
X82707Y-61585D01*
X82721Y-61600D01*
X82735Y-61628D01*
X82750Y-61685D01*
X82750Y-61757D01*
X82735Y-61814D01*
X82721Y-61842D01*
X82707Y-61857D01*
X82678Y-61871D01*
X82650Y-61871D01*
X82621Y-61857D01*
X82607Y-61842D01*
X82592Y-61814D01*
X82578Y-61757D01*
X82578Y-61685D01*
X82592Y-61628D01*
X82607Y-61600D01*
X82621Y-61585D01*
X82650Y-61571D01*
X82878Y-61871D02*
X82878Y-61571D01*
X82907Y-61757D02*
X82992Y-61871D01*
X82992Y-61671D02*
X82878Y-61785D01*
X82107Y-63621D02*
X82007Y-63478D01*
X81935Y-63621D02*
X81935Y-63321D01*
X82050Y-63321D01*
X82078Y-63335D01*
X82092Y-63350D01*
X82107Y-63378D01*
X82107Y-63421D01*
X82092Y-63450D01*
X82078Y-63464D01*
X82050Y-63478D01*
X81935Y-63478D01*
X82392Y-63621D02*
X82221Y-63621D01*
X82307Y-63621D02*
X82307Y-63321D01*
X82278Y-63364D01*
X82250Y-63392D01*
X82221Y-63407D01*
X82492Y-63321D02*
X82678Y-63321D01*
X82578Y-63435D01*
X82621Y-63435D01*
X82650Y-63450D01*
X82664Y-63464D01*
X82678Y-63492D01*
X82678Y-63564D01*
X82664Y-63592D01*
X82650Y-63607D01*
X82621Y-63621D01*
X82535Y-63621D01*
X82507Y-63607D01*
X82492Y-63592D01*
X80335Y-63321D02*
X80521Y-63321D01*
X80421Y-63435D01*
X80464Y-63435D01*
X80492Y-63450D01*
X80507Y-63464D01*
X80521Y-63492D01*
X80521Y-63564D01*
X80507Y-63592D01*
X80492Y-63607D01*
X80464Y-63621D01*
X80378Y-63621D01*
X80350Y-63607D01*
X80335Y-63592D01*
X80621Y-63321D02*
X80807Y-63321D01*
X80707Y-63435D01*
X80750Y-63435D01*
X80778Y-63450D01*
X80792Y-63464D01*
X80807Y-63492D01*
X80807Y-63564D01*
X80792Y-63592D01*
X80778Y-63607D01*
X80750Y-63621D01*
X80664Y-63621D01*
X80635Y-63607D01*
X80621Y-63592D01*
X80935Y-63621D02*
X80935Y-63321D01*
X80964Y-63507D02*
X81050Y-63621D01*
X81050Y-63421D02*
X80935Y-63535D01*
X80507Y-64621D02*
X80407Y-64478D01*
X80335Y-64621D02*
X80335Y-64321D01*
X80450Y-64321D01*
X80478Y-64335D01*
X80492Y-64350D01*
X80507Y-64378D01*
X80507Y-64421D01*
X80492Y-64450D01*
X80478Y-64464D01*
X80450Y-64478D01*
X80335Y-64478D01*
X80792Y-64621D02*
X80621Y-64621D01*
X80707Y-64621D02*
X80707Y-64321D01*
X80678Y-64364D01*
X80650Y-64392D01*
X80621Y-64407D01*
X81064Y-64321D02*
X80921Y-64321D01*
X80907Y-64464D01*
X80921Y-64450D01*
X80950Y-64435D01*
X81021Y-64435D01*
X81050Y-64450D01*
X81064Y-64464D01*
X81078Y-64492D01*
X81078Y-64564D01*
X81064Y-64592D01*
X81050Y-64607D01*
X81021Y-64621D01*
X80950Y-64621D01*
X80921Y-64607D01*
X80907Y-64592D01*
X81935Y-64321D02*
X82121Y-64321D01*
X82021Y-64435D01*
X82064Y-64435D01*
X82092Y-64450D01*
X82107Y-64464D01*
X82121Y-64492D01*
X82121Y-64564D01*
X82107Y-64592D01*
X82092Y-64607D01*
X82064Y-64621D01*
X81978Y-64621D01*
X81950Y-64607D01*
X81935Y-64592D01*
X82221Y-64321D02*
X82407Y-64321D01*
X82307Y-64435D01*
X82350Y-64435D01*
X82378Y-64450D01*
X82392Y-64464D01*
X82407Y-64492D01*
X82407Y-64564D01*
X82392Y-64592D01*
X82378Y-64607D01*
X82350Y-64621D01*
X82264Y-64621D01*
X82235Y-64607D01*
X82221Y-64592D01*
X82535Y-64621D02*
X82535Y-64321D01*
X82564Y-64507D02*
X82650Y-64621D01*
X82650Y-64421D02*
X82535Y-64535D01*
X80507Y-66621D02*
X80407Y-66478D01*
X80335Y-66621D02*
X80335Y-66321D01*
X80450Y-66321D01*
X80478Y-66335D01*
X80492Y-66350D01*
X80507Y-66378D01*
X80507Y-66421D01*
X80492Y-66450D01*
X80478Y-66464D01*
X80450Y-66478D01*
X80335Y-66478D01*
X80792Y-66621D02*
X80621Y-66621D01*
X80707Y-66621D02*
X80707Y-66321D01*
X80678Y-66364D01*
X80650Y-66392D01*
X80621Y-66407D01*
X81078Y-66621D02*
X80907Y-66621D01*
X80992Y-66621D02*
X80992Y-66321D01*
X80964Y-66364D01*
X80935Y-66392D01*
X80907Y-66407D01*
X82121Y-66621D02*
X81950Y-66621D01*
X82035Y-66621D02*
X82035Y-66321D01*
X82007Y-66364D01*
X81978Y-66392D01*
X81950Y-66407D01*
X82307Y-66321D02*
X82335Y-66321D01*
X82364Y-66335D01*
X82378Y-66350D01*
X82392Y-66378D01*
X82407Y-66435D01*
X82407Y-66507D01*
X82392Y-66564D01*
X82378Y-66592D01*
X82364Y-66607D01*
X82335Y-66621D01*
X82307Y-66621D01*
X82278Y-66607D01*
X82264Y-66592D01*
X82250Y-66564D01*
X82235Y-66507D01*
X82235Y-66435D01*
X82250Y-66378D01*
X82264Y-66350D01*
X82278Y-66335D01*
X82307Y-66321D01*
X82535Y-66621D02*
X82535Y-66321D01*
X82564Y-66507D02*
X82650Y-66621D01*
X82650Y-66421D02*
X82535Y-66535D01*
X82107Y-65621D02*
X82007Y-65478D01*
X81935Y-65621D02*
X81935Y-65321D01*
X82050Y-65321D01*
X82078Y-65335D01*
X82092Y-65350D01*
X82107Y-65378D01*
X82107Y-65421D01*
X82092Y-65450D01*
X82078Y-65464D01*
X82050Y-65478D01*
X81935Y-65478D01*
X82392Y-65621D02*
X82221Y-65621D01*
X82307Y-65621D02*
X82307Y-65321D01*
X82278Y-65364D01*
X82250Y-65392D01*
X82221Y-65407D01*
X82650Y-65321D02*
X82592Y-65321D01*
X82564Y-65335D01*
X82550Y-65350D01*
X82521Y-65392D01*
X82507Y-65450D01*
X82507Y-65564D01*
X82521Y-65592D01*
X82535Y-65607D01*
X82564Y-65621D01*
X82621Y-65621D01*
X82650Y-65607D01*
X82664Y-65592D01*
X82678Y-65564D01*
X82678Y-65492D01*
X82664Y-65464D01*
X82650Y-65450D01*
X82621Y-65435D01*
X82564Y-65435D01*
X82535Y-65450D01*
X82521Y-65464D01*
X82507Y-65492D01*
X80535Y-65321D02*
X80564Y-65321D01*
X80592Y-65335D01*
X80607Y-65350D01*
X80621Y-65378D01*
X80635Y-65435D01*
X80635Y-65507D01*
X80621Y-65564D01*
X80607Y-65592D01*
X80592Y-65607D01*
X80564Y-65621D01*
X80535Y-65621D01*
X80507Y-65607D01*
X80492Y-65592D01*
X80478Y-65564D01*
X80464Y-65507D01*
X80464Y-65435D01*
X80478Y-65378D01*
X80492Y-65350D01*
X80507Y-65335D01*
X80535Y-65321D01*
X80935Y-65621D02*
X80835Y-65478D01*
X80764Y-65621D02*
X80764Y-65321D01*
X80878Y-65321D01*
X80907Y-65335D01*
X80921Y-65350D01*
X80935Y-65378D01*
X80935Y-65421D01*
X80921Y-65450D01*
X80907Y-65464D01*
X80878Y-65478D01*
X80764Y-65478D01*
X77107Y-62621D02*
X77007Y-62478D01*
X76935Y-62621D02*
X76935Y-62321D01*
X77050Y-62321D01*
X77078Y-62335D01*
X77092Y-62350D01*
X77107Y-62378D01*
X77107Y-62421D01*
X77092Y-62450D01*
X77078Y-62464D01*
X77050Y-62478D01*
X76935Y-62478D01*
X77221Y-62350D02*
X77235Y-62335D01*
X77264Y-62321D01*
X77335Y-62321D01*
X77364Y-62335D01*
X77378Y-62350D01*
X77392Y-62378D01*
X77392Y-62407D01*
X77378Y-62450D01*
X77207Y-62621D01*
X77392Y-62621D01*
X77650Y-62421D02*
X77650Y-62621D01*
X77578Y-62307D02*
X77507Y-62521D01*
X77692Y-62521D01*
X75378Y-62621D02*
X75207Y-62621D01*
X75292Y-62621D02*
X75292Y-62321D01*
X75264Y-62364D01*
X75235Y-62392D01*
X75207Y-62407D01*
X75492Y-62350D02*
X75507Y-62335D01*
X75535Y-62321D01*
X75607Y-62321D01*
X75635Y-62335D01*
X75650Y-62350D01*
X75664Y-62378D01*
X75664Y-62407D01*
X75650Y-62450D01*
X75478Y-62621D01*
X75664Y-62621D01*
X75850Y-62321D02*
X75878Y-62321D01*
X75907Y-62335D01*
X75921Y-62350D01*
X75935Y-62378D01*
X75950Y-62435D01*
X75950Y-62507D01*
X75935Y-62564D01*
X75921Y-62592D01*
X75907Y-62607D01*
X75878Y-62621D01*
X75850Y-62621D01*
X75821Y-62607D01*
X75807Y-62592D01*
X75792Y-62564D01*
X75778Y-62507D01*
X75778Y-62435D01*
X75792Y-62378D01*
X75807Y-62350D01*
X75821Y-62335D01*
X75850Y-62321D01*
X76078Y-62621D02*
X76078Y-62321D01*
X76107Y-62507D02*
X76192Y-62621D01*
X76192Y-62421D02*
X76078Y-62535D01*
X75507Y-63621D02*
X75407Y-63478D01*
X75335Y-63621D02*
X75335Y-63321D01*
X75450Y-63321D01*
X75478Y-63335D01*
X75492Y-63350D01*
X75507Y-63378D01*
X75507Y-63421D01*
X75492Y-63450D01*
X75478Y-63464D01*
X75450Y-63478D01*
X75335Y-63478D01*
X75621Y-63350D02*
X75635Y-63335D01*
X75664Y-63321D01*
X75735Y-63321D01*
X75764Y-63335D01*
X75778Y-63350D01*
X75792Y-63378D01*
X75792Y-63407D01*
X75778Y-63450D01*
X75607Y-63621D01*
X75792Y-63621D01*
X75892Y-63321D02*
X76078Y-63321D01*
X75978Y-63435D01*
X76021Y-63435D01*
X76050Y-63450D01*
X76064Y-63464D01*
X76078Y-63492D01*
X76078Y-63564D01*
X76064Y-63592D01*
X76050Y-63607D01*
X76021Y-63621D01*
X75935Y-63621D01*
X75907Y-63607D01*
X75892Y-63592D01*
X76935Y-63321D02*
X77121Y-63321D01*
X77021Y-63435D01*
X77064Y-63435D01*
X77092Y-63450D01*
X77107Y-63464D01*
X77121Y-63492D01*
X77121Y-63564D01*
X77107Y-63592D01*
X77092Y-63607D01*
X77064Y-63621D01*
X76978Y-63621D01*
X76950Y-63607D01*
X76935Y-63592D01*
X77221Y-63321D02*
X77407Y-63321D01*
X77307Y-63435D01*
X77350Y-63435D01*
X77378Y-63450D01*
X77392Y-63464D01*
X77407Y-63492D01*
X77407Y-63564D01*
X77392Y-63592D01*
X77378Y-63607D01*
X77350Y-63621D01*
X77264Y-63621D01*
X77235Y-63607D01*
X77221Y-63592D01*
X77535Y-63621D02*
X77535Y-63321D01*
X77564Y-63507D02*
X77650Y-63621D01*
X77650Y-63421D02*
X77535Y-63535D01*
X77107Y-64621D02*
X77007Y-64478D01*
X76935Y-64621D02*
X76935Y-64321D01*
X77050Y-64321D01*
X77078Y-64335D01*
X77092Y-64350D01*
X77107Y-64378D01*
X77107Y-64421D01*
X77092Y-64450D01*
X77078Y-64464D01*
X77050Y-64478D01*
X76935Y-64478D01*
X77221Y-64350D02*
X77235Y-64335D01*
X77264Y-64321D01*
X77335Y-64321D01*
X77364Y-64335D01*
X77378Y-64350D01*
X77392Y-64378D01*
X77392Y-64407D01*
X77378Y-64450D01*
X77207Y-64621D01*
X77392Y-64621D01*
X77664Y-64321D02*
X77521Y-64321D01*
X77507Y-64464D01*
X77521Y-64450D01*
X77550Y-64435D01*
X77621Y-64435D01*
X77650Y-64450D01*
X77664Y-64464D01*
X77678Y-64492D01*
X77678Y-64564D01*
X77664Y-64592D01*
X77650Y-64607D01*
X77621Y-64621D01*
X77550Y-64621D01*
X77521Y-64607D01*
X77507Y-64592D01*
X75335Y-64321D02*
X75521Y-64321D01*
X75421Y-64435D01*
X75464Y-64435D01*
X75492Y-64450D01*
X75507Y-64464D01*
X75521Y-64492D01*
X75521Y-64564D01*
X75507Y-64592D01*
X75492Y-64607D01*
X75464Y-64621D01*
X75378Y-64621D01*
X75350Y-64607D01*
X75335Y-64592D01*
X75621Y-64321D02*
X75807Y-64321D01*
X75707Y-64435D01*
X75750Y-64435D01*
X75778Y-64450D01*
X75792Y-64464D01*
X75807Y-64492D01*
X75807Y-64564D01*
X75792Y-64592D01*
X75778Y-64607D01*
X75750Y-64621D01*
X75664Y-64621D01*
X75635Y-64607D01*
X75621Y-64592D01*
X75935Y-64621D02*
X75935Y-64321D01*
X75964Y-64507D02*
X76050Y-64621D01*
X76050Y-64421D02*
X75935Y-64535D01*
X75507Y-65621D02*
X75407Y-65478D01*
X75335Y-65621D02*
X75335Y-65321D01*
X75450Y-65321D01*
X75478Y-65335D01*
X75492Y-65350D01*
X75507Y-65378D01*
X75507Y-65421D01*
X75492Y-65450D01*
X75478Y-65464D01*
X75450Y-65478D01*
X75335Y-65478D01*
X75621Y-65350D02*
X75635Y-65335D01*
X75664Y-65321D01*
X75735Y-65321D01*
X75764Y-65335D01*
X75778Y-65350D01*
X75792Y-65378D01*
X75792Y-65407D01*
X75778Y-65450D01*
X75607Y-65621D01*
X75792Y-65621D01*
X76050Y-65321D02*
X75992Y-65321D01*
X75964Y-65335D01*
X75950Y-65350D01*
X75921Y-65392D01*
X75907Y-65450D01*
X75907Y-65564D01*
X75921Y-65592D01*
X75935Y-65607D01*
X75964Y-65621D01*
X76021Y-65621D01*
X76050Y-65607D01*
X76064Y-65592D01*
X76078Y-65564D01*
X76078Y-65492D01*
X76064Y-65464D01*
X76050Y-65450D01*
X76021Y-65435D01*
X75964Y-65435D01*
X75935Y-65450D01*
X75921Y-65464D01*
X75907Y-65492D01*
X77135Y-65321D02*
X77164Y-65321D01*
X77192Y-65335D01*
X77207Y-65350D01*
X77221Y-65378D01*
X77235Y-65435D01*
X77235Y-65507D01*
X77221Y-65564D01*
X77207Y-65592D01*
X77192Y-65607D01*
X77164Y-65621D01*
X77135Y-65621D01*
X77107Y-65607D01*
X77092Y-65592D01*
X77078Y-65564D01*
X77064Y-65507D01*
X77064Y-65435D01*
X77078Y-65378D01*
X77092Y-65350D01*
X77107Y-65335D01*
X77135Y-65321D01*
X77535Y-65621D02*
X77435Y-65478D01*
X77364Y-65621D02*
X77364Y-65321D01*
X77478Y-65321D01*
X77507Y-65335D01*
X77521Y-65350D01*
X77535Y-65378D01*
X77535Y-65421D01*
X77521Y-65450D01*
X77507Y-65464D01*
X77478Y-65478D01*
X77364Y-65478D01*
X77107Y-66621D02*
X77007Y-66478D01*
X76935Y-66621D02*
X76935Y-66321D01*
X77050Y-66321D01*
X77078Y-66335D01*
X77092Y-66350D01*
X77107Y-66378D01*
X77107Y-66421D01*
X77092Y-66450D01*
X77078Y-66464D01*
X77050Y-66478D01*
X76935Y-66478D01*
X77221Y-66350D02*
X77235Y-66335D01*
X77264Y-66321D01*
X77335Y-66321D01*
X77364Y-66335D01*
X77378Y-66350D01*
X77392Y-66378D01*
X77392Y-66407D01*
X77378Y-66450D01*
X77207Y-66621D01*
X77392Y-66621D01*
X77678Y-66621D02*
X77507Y-66621D01*
X77592Y-66621D02*
X77592Y-66321D01*
X77564Y-66364D01*
X77535Y-66392D01*
X77507Y-66407D01*
X75521Y-66621D02*
X75350Y-66621D01*
X75435Y-66621D02*
X75435Y-66321D01*
X75407Y-66364D01*
X75378Y-66392D01*
X75350Y-66407D01*
X75707Y-66321D02*
X75735Y-66321D01*
X75764Y-66335D01*
X75778Y-66350D01*
X75792Y-66378D01*
X75807Y-66435D01*
X75807Y-66507D01*
X75792Y-66564D01*
X75778Y-66592D01*
X75764Y-66607D01*
X75735Y-66621D01*
X75707Y-66621D01*
X75678Y-66607D01*
X75664Y-66592D01*
X75650Y-66564D01*
X75635Y-66507D01*
X75635Y-66435D01*
X75650Y-66378D01*
X75664Y-66350D01*
X75678Y-66335D01*
X75707Y-66321D01*
X75935Y-66621D02*
X75935Y-66321D01*
X75964Y-66507D02*
X76050Y-66621D01*
X76050Y-66421D02*
X75935Y-66535D01*
X83371Y-55242D02*
X83228Y-55342D01*
X83371Y-55414D02*
X83071Y-55414D01*
X83071Y-55300D01*
X83085Y-55271D01*
X83100Y-55257D01*
X83128Y-55242D01*
X83171Y-55242D01*
X83200Y-55257D01*
X83214Y-55271D01*
X83228Y-55300D01*
X83228Y-55414D01*
X83171Y-54985D02*
X83371Y-54985D01*
X83057Y-55057D02*
X83271Y-55128D01*
X83271Y-54942D01*
X83071Y-54771D02*
X83071Y-54742D01*
X83085Y-54714D01*
X83100Y-54700D01*
X83128Y-54685D01*
X83185Y-54671D01*
X83257Y-54671D01*
X83314Y-54685D01*
X83342Y-54700D01*
X83357Y-54714D01*
X83371Y-54742D01*
X83371Y-54771D01*
X83357Y-54800D01*
X83342Y-54814D01*
X83314Y-54828D01*
X83257Y-54842D01*
X83185Y-54842D01*
X83128Y-54828D01*
X83100Y-54814D01*
X83085Y-54800D01*
X83071Y-54771D01*
X83371Y-53485D02*
X83371Y-53657D01*
X83371Y-53571D02*
X83071Y-53571D01*
X83114Y-53599D01*
X83142Y-53628D01*
X83157Y-53657D01*
X83371Y-53357D02*
X83071Y-53357D01*
X83257Y-53328D02*
X83371Y-53242D01*
X83171Y-53242D02*
X83285Y-53357D01*
X81007Y-51371D02*
X80907Y-51228D01*
X80835Y-51371D02*
X80835Y-51071D01*
X80950Y-51071D01*
X80978Y-51085D01*
X80992Y-51100D01*
X81007Y-51128D01*
X81007Y-51171D01*
X80992Y-51200D01*
X80978Y-51214D01*
X80950Y-51228D01*
X80835Y-51228D01*
X81178Y-51200D02*
X81150Y-51185D01*
X81135Y-51171D01*
X81121Y-51142D01*
X81121Y-51128D01*
X81135Y-51100D01*
X81150Y-51085D01*
X81178Y-51071D01*
X81235Y-51071D01*
X81264Y-51085D01*
X81278Y-51100D01*
X81292Y-51128D01*
X81292Y-51142D01*
X81278Y-51171D01*
X81264Y-51185D01*
X81235Y-51200D01*
X81178Y-51200D01*
X81150Y-51214D01*
X81135Y-51228D01*
X81121Y-51257D01*
X81121Y-51314D01*
X81135Y-51342D01*
X81150Y-51357D01*
X81178Y-51371D01*
X81235Y-51371D01*
X81264Y-51357D01*
X81278Y-51342D01*
X81292Y-51314D01*
X81292Y-51257D01*
X81278Y-51228D01*
X81264Y-51214D01*
X81235Y-51200D01*
X81478Y-51071D02*
X81507Y-51071D01*
X81535Y-51085D01*
X81550Y-51100D01*
X81564Y-51128D01*
X81578Y-51185D01*
X81578Y-51257D01*
X81564Y-51314D01*
X81550Y-51342D01*
X81535Y-51357D01*
X81507Y-51371D01*
X81478Y-51371D01*
X81450Y-51357D01*
X81435Y-51342D01*
X81421Y-51314D01*
X81407Y-51257D01*
X81407Y-51185D01*
X81421Y-51128D01*
X81435Y-51100D01*
X81450Y-51085D01*
X81478Y-51071D01*
X82571Y-51171D02*
X82571Y-51371D01*
X82500Y-51057D02*
X82428Y-51271D01*
X82614Y-51271D01*
X82700Y-51071D02*
X82900Y-51071D01*
X82771Y-51371D01*
X83071Y-51071D02*
X83100Y-51071D01*
X83128Y-51085D01*
X83142Y-51100D01*
X83157Y-51128D01*
X83171Y-51185D01*
X83171Y-51257D01*
X83157Y-51314D01*
X83142Y-51342D01*
X83128Y-51357D01*
X83100Y-51371D01*
X83071Y-51371D01*
X83042Y-51357D01*
X83028Y-51342D01*
X83014Y-51314D01*
X83000Y-51257D01*
X83000Y-51185D01*
X83014Y-51128D01*
X83028Y-51100D01*
X83042Y-51085D01*
X83071Y-51071D01*
X70371Y-56742D02*
X70228Y-56842D01*
X70371Y-56914D02*
X70071Y-56914D01*
X70071Y-56800D01*
X70085Y-56771D01*
X70100Y-56757D01*
X70128Y-56742D01*
X70171Y-56742D01*
X70200Y-56757D01*
X70214Y-56771D01*
X70228Y-56800D01*
X70228Y-56914D01*
X70071Y-56642D02*
X70071Y-56457D01*
X70185Y-56557D01*
X70185Y-56514D01*
X70200Y-56485D01*
X70214Y-56471D01*
X70242Y-56457D01*
X70314Y-56457D01*
X70342Y-56471D01*
X70357Y-56485D01*
X70371Y-56514D01*
X70371Y-56600D01*
X70357Y-56628D01*
X70342Y-56642D01*
X70071Y-56271D02*
X70071Y-56242D01*
X70085Y-56214D01*
X70100Y-56200D01*
X70128Y-56185D01*
X70185Y-56171D01*
X70257Y-56171D01*
X70314Y-56185D01*
X70342Y-56200D01*
X70357Y-56214D01*
X70371Y-56242D01*
X70371Y-56271D01*
X70357Y-56300D01*
X70342Y-56314D01*
X70314Y-56328D01*
X70257Y-56342D01*
X70185Y-56342D01*
X70128Y-56328D01*
X70100Y-56314D01*
X70085Y-56300D01*
X70071Y-56271D01*
X70371Y-55300D02*
X70371Y-55471D01*
X70371Y-55385D02*
X70071Y-55385D01*
X70114Y-55414D01*
X70142Y-55442D01*
X70157Y-55471D01*
X70071Y-55114D02*
X70071Y-55085D01*
X70085Y-55057D01*
X70100Y-55042D01*
X70128Y-55028D01*
X70185Y-55014D01*
X70257Y-55014D01*
X70314Y-55028D01*
X70342Y-55042D01*
X70357Y-55057D01*
X70371Y-55085D01*
X70371Y-55114D01*
X70357Y-55142D01*
X70342Y-55157D01*
X70314Y-55171D01*
X70257Y-55185D01*
X70185Y-55185D01*
X70128Y-55171D01*
X70100Y-55157D01*
X70085Y-55142D01*
X70071Y-55114D01*
X70071Y-54828D02*
X70071Y-54800D01*
X70085Y-54771D01*
X70100Y-54757D01*
X70128Y-54742D01*
X70185Y-54728D01*
X70257Y-54728D01*
X70314Y-54742D01*
X70342Y-54757D01*
X70357Y-54771D01*
X70371Y-54800D01*
X70371Y-54828D01*
X70357Y-54857D01*
X70342Y-54871D01*
X70314Y-54885D01*
X70257Y-54900D01*
X70185Y-54900D01*
X70128Y-54885D01*
X70100Y-54871D01*
X70085Y-54857D01*
X70071Y-54828D01*
X70371Y-54428D02*
X70228Y-54528D01*
X70371Y-54600D02*
X70071Y-54600D01*
X70071Y-54485D01*
X70085Y-54457D01*
X70100Y-54442D01*
X70128Y-54428D01*
X70171Y-54428D01*
X70200Y-54442D01*
X70214Y-54457D01*
X70228Y-54485D01*
X70228Y-54600D01*
X77107Y-52621D02*
X77007Y-52478D01*
X76935Y-52621D02*
X76935Y-52321D01*
X77050Y-52321D01*
X77078Y-52335D01*
X77092Y-52350D01*
X77107Y-52378D01*
X77107Y-52421D01*
X77092Y-52450D01*
X77078Y-52464D01*
X77050Y-52478D01*
X76935Y-52478D01*
X77364Y-52421D02*
X77364Y-52621D01*
X77292Y-52307D02*
X77221Y-52521D01*
X77407Y-52521D01*
X77678Y-52621D02*
X77507Y-52621D01*
X77592Y-52621D02*
X77592Y-52321D01*
X77564Y-52364D01*
X77535Y-52392D01*
X77507Y-52407D01*
X75535Y-52321D02*
X75564Y-52321D01*
X75592Y-52335D01*
X75607Y-52350D01*
X75621Y-52378D01*
X75635Y-52435D01*
X75635Y-52507D01*
X75621Y-52564D01*
X75607Y-52592D01*
X75592Y-52607D01*
X75564Y-52621D01*
X75535Y-52621D01*
X75507Y-52607D01*
X75492Y-52592D01*
X75478Y-52564D01*
X75464Y-52507D01*
X75464Y-52435D01*
X75478Y-52378D01*
X75492Y-52350D01*
X75507Y-52335D01*
X75535Y-52321D01*
X75935Y-52621D02*
X75835Y-52478D01*
X75764Y-52621D02*
X75764Y-52321D01*
X75878Y-52321D01*
X75907Y-52335D01*
X75921Y-52350D01*
X75935Y-52378D01*
X75935Y-52421D01*
X75921Y-52450D01*
X75907Y-52464D01*
X75878Y-52478D01*
X75764Y-52478D01*
G54D16*
X78889Y-50977D02*
X78877Y-50989D01*
X78841Y-51001D01*
X78817Y-51001D01*
X78782Y-50989D01*
X78758Y-50965D01*
X78746Y-50941D01*
X78734Y-50894D01*
X78734Y-50858D01*
X78746Y-50810D01*
X78758Y-50786D01*
X78782Y-50763D01*
X78817Y-50751D01*
X78841Y-50751D01*
X78877Y-50763D01*
X78889Y-50775D01*
X79103Y-50834D02*
X79103Y-51001D01*
X79044Y-50739D02*
X78984Y-50917D01*
X79139Y-50917D01*
X79341Y-50834D02*
X79341Y-51001D01*
X79282Y-50739D02*
X79222Y-50917D01*
X79377Y-50917D01*
X76851Y-50660D02*
X76851Y-50636D01*
X76863Y-50613D01*
X76875Y-50601D01*
X76898Y-50589D01*
X76946Y-50577D01*
X77005Y-50577D01*
X77053Y-50589D01*
X77077Y-50601D01*
X77089Y-50613D01*
X77101Y-50636D01*
X77101Y-50660D01*
X77089Y-50684D01*
X77077Y-50696D01*
X77053Y-50708D01*
X77005Y-50720D01*
X76946Y-50720D01*
X76898Y-50708D01*
X76875Y-50696D01*
X76863Y-50684D01*
X76851Y-50660D01*
X77077Y-50470D02*
X77089Y-50458D01*
X77101Y-50470D01*
X77089Y-50482D01*
X77077Y-50470D01*
X77101Y-50470D01*
X77101Y-50220D02*
X77101Y-50363D01*
X77101Y-50291D02*
X76851Y-50291D01*
X76886Y-50315D01*
X76910Y-50339D01*
X76922Y-50363D01*
X76934Y-50005D02*
X77101Y-50005D01*
X76934Y-50113D02*
X77065Y-50113D01*
X77089Y-50101D01*
X77101Y-50077D01*
X77101Y-50041D01*
X77089Y-50017D01*
X77077Y-50005D01*
X76970Y-49803D02*
X76970Y-49886D01*
X77101Y-49886D02*
X76851Y-49886D01*
X76851Y-49767D01*
G54D11*
X86721Y-53650D02*
X86692Y-53635D01*
X86664Y-53607D01*
X86621Y-53564D01*
X86592Y-53550D01*
X86564Y-53550D01*
X86578Y-53621D02*
X86550Y-53607D01*
X86521Y-53578D01*
X86507Y-53521D01*
X86507Y-53421D01*
X86521Y-53364D01*
X86550Y-53335D01*
X86578Y-53321D01*
X86635Y-53321D01*
X86664Y-53335D01*
X86692Y-53364D01*
X86707Y-53421D01*
X86707Y-53521D01*
X86692Y-53578D01*
X86664Y-53607D01*
X86635Y-53621D01*
X86578Y-53621D01*
X86992Y-53621D02*
X86821Y-53621D01*
X86907Y-53621D02*
X86907Y-53321D01*
X86878Y-53364D01*
X86850Y-53392D01*
X86821Y-53407D01*
X85935Y-58350D02*
X85950Y-58335D01*
X85978Y-58321D01*
X86050Y-58321D01*
X86078Y-58335D01*
X86092Y-58350D01*
X86107Y-58378D01*
X86107Y-58407D01*
X86092Y-58450D01*
X85921Y-58621D01*
X86107Y-58621D01*
X86235Y-58621D02*
X86235Y-58321D01*
X86407Y-58621D01*
X86407Y-58321D01*
X86521Y-58321D02*
X86707Y-58321D01*
X86607Y-58435D01*
X86650Y-58435D01*
X86678Y-58450D01*
X86692Y-58464D01*
X86707Y-58492D01*
X86707Y-58564D01*
X86692Y-58592D01*
X86678Y-58607D01*
X86650Y-58621D01*
X86564Y-58621D01*
X86535Y-58607D01*
X86521Y-58592D01*
X86850Y-58621D02*
X86907Y-58621D01*
X86935Y-58607D01*
X86950Y-58592D01*
X86978Y-58550D01*
X86992Y-58492D01*
X86992Y-58378D01*
X86978Y-58350D01*
X86964Y-58335D01*
X86935Y-58321D01*
X86878Y-58321D01*
X86850Y-58335D01*
X86835Y-58350D01*
X86821Y-58378D01*
X86821Y-58450D01*
X86835Y-58478D01*
X86850Y-58492D01*
X86878Y-58507D01*
X86935Y-58507D01*
X86964Y-58492D01*
X86978Y-58478D01*
X86992Y-58450D01*
X87178Y-58321D02*
X87207Y-58321D01*
X87235Y-58335D01*
X87250Y-58350D01*
X87264Y-58378D01*
X87278Y-58435D01*
X87278Y-58507D01*
X87264Y-58564D01*
X87250Y-58592D01*
X87235Y-58607D01*
X87207Y-58621D01*
X87178Y-58621D01*
X87150Y-58607D01*
X87135Y-58592D01*
X87121Y-58564D01*
X87107Y-58507D01*
X87107Y-58435D01*
X87121Y-58378D01*
X87135Y-58350D01*
X87150Y-58335D01*
X87178Y-58321D01*
X87535Y-58421D02*
X87535Y-58621D01*
X87464Y-58307D02*
X87392Y-58521D01*
X87578Y-58521D01*
M02*
