G04 (created by PCBNEW (22-Jun-2014 BZR 4027)-stable) date Fri 30 Mar 2018 10:34:09 PM CDT*
%MOIN*%
G04 Gerber Fmt 3.4, Leading zero omitted, Abs format*
%FSLAX34Y34*%
G01*
G70*
G90*
G04 APERTURE LIST*
%ADD10C,0.00590551*%
%ADD11C,0.008*%
G04 APERTURE END LIST*
G54D10*
G54D11*
X69895Y-50614D02*
X70219Y-50614D01*
X70257Y-50595D01*
X70276Y-50576D01*
X70295Y-50538D01*
X70295Y-50480D01*
X70276Y-50442D01*
X70142Y-50614D02*
X70161Y-50576D01*
X70161Y-50500D01*
X70142Y-50461D01*
X70123Y-50442D01*
X70085Y-50423D01*
X69971Y-50423D01*
X69933Y-50442D01*
X69914Y-50461D01*
X69895Y-50500D01*
X69895Y-50576D01*
X69914Y-50614D01*
X70161Y-50804D02*
X69895Y-50804D01*
X69761Y-50804D02*
X69780Y-50785D01*
X69800Y-50804D01*
X69780Y-50823D01*
X69761Y-50804D01*
X69800Y-50804D01*
X69895Y-50938D02*
X69895Y-51090D01*
X69761Y-50995D02*
X70104Y-50995D01*
X70142Y-51014D01*
X70161Y-51052D01*
X70161Y-51090D01*
X70161Y-51223D02*
X69761Y-51223D01*
X70161Y-51395D02*
X69952Y-51395D01*
X69914Y-51376D01*
X69895Y-51338D01*
X69895Y-51280D01*
X69914Y-51242D01*
X69933Y-51223D01*
X69895Y-51757D02*
X70161Y-51757D01*
X69895Y-51585D02*
X70104Y-51585D01*
X70142Y-51604D01*
X70161Y-51642D01*
X70161Y-51700D01*
X70142Y-51738D01*
X70123Y-51757D01*
X70161Y-51947D02*
X69761Y-51947D01*
X69914Y-51947D02*
X69895Y-51985D01*
X69895Y-52061D01*
X69914Y-52100D01*
X69933Y-52119D01*
X69971Y-52138D01*
X70085Y-52138D01*
X70123Y-52119D01*
X70142Y-52100D01*
X70161Y-52061D01*
X70161Y-51985D01*
X70142Y-51947D01*
X70123Y-52309D02*
X70142Y-52328D01*
X70161Y-52309D01*
X70142Y-52290D01*
X70123Y-52309D01*
X70161Y-52309D01*
X70142Y-52671D02*
X70161Y-52633D01*
X70161Y-52557D01*
X70142Y-52519D01*
X70123Y-52500D01*
X70085Y-52480D01*
X69971Y-52480D01*
X69933Y-52500D01*
X69914Y-52519D01*
X69895Y-52557D01*
X69895Y-52633D01*
X69914Y-52671D01*
X70161Y-52900D02*
X70142Y-52861D01*
X70123Y-52842D01*
X70085Y-52823D01*
X69971Y-52823D01*
X69933Y-52842D01*
X69914Y-52861D01*
X69895Y-52900D01*
X69895Y-52957D01*
X69914Y-52995D01*
X69933Y-53014D01*
X69971Y-53033D01*
X70085Y-53033D01*
X70123Y-53014D01*
X70142Y-52995D01*
X70161Y-52957D01*
X70161Y-52900D01*
X70161Y-53204D02*
X69895Y-53204D01*
X69933Y-53204D02*
X69914Y-53223D01*
X69895Y-53261D01*
X69895Y-53319D01*
X69914Y-53357D01*
X69952Y-53376D01*
X70161Y-53376D01*
X69952Y-53376D02*
X69914Y-53395D01*
X69895Y-53433D01*
X69895Y-53490D01*
X69914Y-53528D01*
X69952Y-53547D01*
X70161Y-53547D01*
X69742Y-54023D02*
X70257Y-53680D01*
X69895Y-54157D02*
X70295Y-54157D01*
X69914Y-54157D02*
X69895Y-54195D01*
X69895Y-54271D01*
X69914Y-54309D01*
X69933Y-54328D01*
X69971Y-54347D01*
X70085Y-54347D01*
X70123Y-54328D01*
X70142Y-54309D01*
X70161Y-54271D01*
X70161Y-54195D01*
X70142Y-54157D01*
X70142Y-54671D02*
X70161Y-54633D01*
X70161Y-54557D01*
X70142Y-54519D01*
X70104Y-54500D01*
X69952Y-54500D01*
X69914Y-54519D01*
X69895Y-54557D01*
X69895Y-54633D01*
X69914Y-54671D01*
X69952Y-54690D01*
X69990Y-54690D01*
X70028Y-54500D01*
X69895Y-54861D02*
X70295Y-54861D01*
X69914Y-54861D02*
X69895Y-54900D01*
X69895Y-54976D01*
X69914Y-55014D01*
X69933Y-55033D01*
X69971Y-55052D01*
X70085Y-55052D01*
X70123Y-55033D01*
X70142Y-55014D01*
X70161Y-54976D01*
X70161Y-54900D01*
X70142Y-54861D01*
X70161Y-55395D02*
X69952Y-55395D01*
X69914Y-55376D01*
X69895Y-55338D01*
X69895Y-55261D01*
X69914Y-55223D01*
X70142Y-55395D02*
X70161Y-55357D01*
X70161Y-55261D01*
X70142Y-55223D01*
X70104Y-55204D01*
X70066Y-55204D01*
X70028Y-55223D01*
X70009Y-55261D01*
X70009Y-55357D01*
X69990Y-55395D01*
X70142Y-55566D02*
X70161Y-55604D01*
X70161Y-55680D01*
X70142Y-55719D01*
X70104Y-55738D01*
X70085Y-55738D01*
X70047Y-55719D01*
X70028Y-55680D01*
X70028Y-55623D01*
X70009Y-55585D01*
X69971Y-55566D01*
X69952Y-55566D01*
X69914Y-55585D01*
X69895Y-55623D01*
X69895Y-55680D01*
X69914Y-55719D01*
X70161Y-55966D02*
X70142Y-55928D01*
X70104Y-55909D01*
X69761Y-55909D01*
X70161Y-56290D02*
X69952Y-56290D01*
X69914Y-56271D01*
X69895Y-56233D01*
X69895Y-56157D01*
X69914Y-56119D01*
X70142Y-56290D02*
X70161Y-56252D01*
X70161Y-56157D01*
X70142Y-56119D01*
X70104Y-56100D01*
X70066Y-56100D01*
X70028Y-56119D01*
X70009Y-56157D01*
X70009Y-56252D01*
X69990Y-56290D01*
X70161Y-56480D02*
X69761Y-56480D01*
X69914Y-56480D02*
X69895Y-56519D01*
X69895Y-56595D01*
X69914Y-56633D01*
X69933Y-56652D01*
X69971Y-56671D01*
X70085Y-56671D01*
X70123Y-56652D01*
X70142Y-56633D01*
X70161Y-56595D01*
X70161Y-56519D01*
X70142Y-56480D01*
X70142Y-56823D02*
X70161Y-56861D01*
X70161Y-56938D01*
X70142Y-56976D01*
X70104Y-56995D01*
X70085Y-56995D01*
X70047Y-56976D01*
X70028Y-56938D01*
X70028Y-56880D01*
X70009Y-56842D01*
X69971Y-56823D01*
X69952Y-56823D01*
X69914Y-56842D01*
X69895Y-56880D01*
X69895Y-56938D01*
X69914Y-56976D01*
X69742Y-57452D02*
X70257Y-57109D01*
X70161Y-57585D02*
X69895Y-57585D01*
X69761Y-57585D02*
X69780Y-57566D01*
X69800Y-57585D01*
X69780Y-57604D01*
X69761Y-57585D01*
X69800Y-57585D01*
X70142Y-57757D02*
X70161Y-57795D01*
X70161Y-57871D01*
X70142Y-57909D01*
X70104Y-57928D01*
X70085Y-57928D01*
X70047Y-57909D01*
X70028Y-57871D01*
X70028Y-57814D01*
X70009Y-57776D01*
X69971Y-57757D01*
X69952Y-57757D01*
X69914Y-57776D01*
X69895Y-57814D01*
X69895Y-57871D01*
X69914Y-57909D01*
X70161Y-58157D02*
X70142Y-58119D01*
X70123Y-58100D01*
X70085Y-58080D01*
X69971Y-58080D01*
X69933Y-58100D01*
X69914Y-58119D01*
X69895Y-58157D01*
X69895Y-58214D01*
X69914Y-58252D01*
X69933Y-58271D01*
X69971Y-58290D01*
X70085Y-58290D01*
X70123Y-58271D01*
X70142Y-58252D01*
X70161Y-58214D01*
X70161Y-58157D01*
X69895Y-58404D02*
X69895Y-58557D01*
X69761Y-58461D02*
X70104Y-58461D01*
X70142Y-58480D01*
X70161Y-58519D01*
X70161Y-58557D01*
X70161Y-58690D02*
X69761Y-58690D01*
X70161Y-58861D02*
X69952Y-58861D01*
X69914Y-58842D01*
X69895Y-58804D01*
X69895Y-58747D01*
X69914Y-58709D01*
X69933Y-58690D01*
X70142Y-59204D02*
X70161Y-59166D01*
X70161Y-59090D01*
X70142Y-59052D01*
X70104Y-59033D01*
X69952Y-59033D01*
X69914Y-59052D01*
X69895Y-59090D01*
X69895Y-59166D01*
X69914Y-59204D01*
X69952Y-59223D01*
X69990Y-59223D01*
X70028Y-59033D01*
X70161Y-59395D02*
X69895Y-59395D01*
X69971Y-59395D02*
X69933Y-59414D01*
X69914Y-59433D01*
X69895Y-59471D01*
X69895Y-59509D01*
X70161Y-59642D02*
X69895Y-59642D01*
X69933Y-59642D02*
X69914Y-59661D01*
X69895Y-59700D01*
X69895Y-59757D01*
X69914Y-59795D01*
X69952Y-59814D01*
X70161Y-59814D01*
X69952Y-59814D02*
X69914Y-59833D01*
X69895Y-59871D01*
X69895Y-59928D01*
X69914Y-59966D01*
X69952Y-59985D01*
X70161Y-59985D01*
X70161Y-60347D02*
X69952Y-60347D01*
X69914Y-60328D01*
X69895Y-60290D01*
X69895Y-60214D01*
X69914Y-60176D01*
X70142Y-60347D02*
X70161Y-60309D01*
X70161Y-60214D01*
X70142Y-60176D01*
X70104Y-60157D01*
X70066Y-60157D01*
X70028Y-60176D01*
X70009Y-60214D01*
X70009Y-60309D01*
X69990Y-60347D01*
X70161Y-60595D02*
X70142Y-60557D01*
X70104Y-60538D01*
X69761Y-60538D01*
M02*
