G04 (created by PCBNEW (22-Jun-2014 BZR 4027)-stable) date Sun 28 Jan 2018 01:51:53 PM CST*
%MOIN*%
G04 Gerber Fmt 3.4, Leading zero omitted, Abs format*
%FSLAX34Y34*%
G01*
G70*
G90*
G04 APERTURE LIST*
%ADD10C,0.00590551*%
%ADD11O,0.0885X0.059*%
%ADD12R,0.069X0.069*%
%ADD13C,0.069*%
%ADD14O,0.059X0.059*%
%ADD15R,0.059X0.059*%
%ADD16R,0.059X0.0885*%
%ADD17O,0.059X0.0885*%
%ADD18R,0.064X0.059*%
%ADD19R,0.059X0.064*%
%ADD20O,0.069X0.069*%
%ADD21C,0.035*%
%ADD22C,0.01*%
%ADD23C,0.03*%
%ADD24C,0.02*%
%ADD25C,0.08*%
%ADD26C,0.1*%
G04 APERTURE END LIST*
G54D10*
G54D11*
X87647Y-55500D03*
X86852Y-55000D03*
X87647Y-54500D03*
G54D12*
X91500Y-53500D03*
G54D13*
X91500Y-51500D03*
X91500Y-52500D03*
G54D12*
X91500Y-61500D03*
G54D13*
X91500Y-59500D03*
X91500Y-60500D03*
G54D12*
X91500Y-57500D03*
G54D13*
X91500Y-55500D03*
X91500Y-56500D03*
G54D12*
X91500Y-65500D03*
G54D13*
X91500Y-63500D03*
X91500Y-64500D03*
G54D14*
X78500Y-62500D03*
X73500Y-62500D03*
X79500Y-66500D03*
X84500Y-66500D03*
X78500Y-66500D03*
X73500Y-66500D03*
X72500Y-52000D03*
X77500Y-52000D03*
X73500Y-63500D03*
X78500Y-63500D03*
X78500Y-64500D03*
X73500Y-64500D03*
X77500Y-54000D03*
X72500Y-54000D03*
X73500Y-65500D03*
X78500Y-65500D03*
X72500Y-53000D03*
X77500Y-53000D03*
X79500Y-62500D03*
X84500Y-62500D03*
X71500Y-57000D03*
X71500Y-52000D03*
X87000Y-53500D03*
X82000Y-53500D03*
X79000Y-51500D03*
X84000Y-51500D03*
X84500Y-65500D03*
X79500Y-65500D03*
X79500Y-64500D03*
X84500Y-64500D03*
X84500Y-63500D03*
X79500Y-63500D03*
G54D15*
X88250Y-50000D03*
G54D14*
X88250Y-51000D03*
G54D16*
X76000Y-58352D03*
G54D17*
X77000Y-58352D03*
X78000Y-58352D03*
X79000Y-58352D03*
X79000Y-55647D03*
X78000Y-55647D03*
X77000Y-55647D03*
X76000Y-55647D03*
X80000Y-58352D03*
X81000Y-58352D03*
X82000Y-58352D03*
X80000Y-55647D03*
X81000Y-55647D03*
X82000Y-55647D03*
G54D18*
X71550Y-50500D03*
X72700Y-50500D03*
G54D19*
X77000Y-59550D03*
X77000Y-60700D03*
X78000Y-59550D03*
X78000Y-60700D03*
X81000Y-54450D03*
X81000Y-53300D03*
X80000Y-54450D03*
X80000Y-53300D03*
X81000Y-59550D03*
X81000Y-60700D03*
X80000Y-59550D03*
X80000Y-60700D03*
X79000Y-59550D03*
X79000Y-60700D03*
G54D12*
X73000Y-67950D03*
G54D13*
X74000Y-67950D03*
X75000Y-67950D03*
X76000Y-67950D03*
X77000Y-67950D03*
X78000Y-67950D03*
X79000Y-67950D03*
X80000Y-67950D03*
G54D12*
X80000Y-49050D03*
G54D13*
X81000Y-49050D03*
X82000Y-49050D03*
X83000Y-49050D03*
X84000Y-49050D03*
X85000Y-49050D03*
X86000Y-49050D03*
X87000Y-49050D03*
G54D12*
X82000Y-67950D03*
G54D13*
X83000Y-67950D03*
X84000Y-67950D03*
X85000Y-67950D03*
X86000Y-67950D03*
X87000Y-67950D03*
G54D12*
X69400Y-49050D03*
G54D13*
X70400Y-49050D03*
X71400Y-49050D03*
X72400Y-49050D03*
X73400Y-49050D03*
X74400Y-49050D03*
X75400Y-49050D03*
X76400Y-49050D03*
X77400Y-49050D03*
X78400Y-49050D03*
G54D14*
X79000Y-50500D03*
X84000Y-50500D03*
G54D12*
X85500Y-50500D03*
G54D20*
X85500Y-51500D03*
G54D14*
X92000Y-67500D03*
X91000Y-67500D03*
G54D21*
X82250Y-62500D03*
X81250Y-62500D03*
X86250Y-66500D03*
X85250Y-66500D03*
X78000Y-57000D03*
X79000Y-57000D03*
X84750Y-59500D03*
X85750Y-58500D03*
G54D22*
X77500Y-52000D02*
X78500Y-53000D01*
X78500Y-58000D02*
X79000Y-58500D01*
X78500Y-53000D02*
X78500Y-58000D01*
G54D23*
X79000Y-59500D02*
X79000Y-58500D01*
G54D24*
X91500Y-56500D02*
X92500Y-56500D01*
X79000Y-57750D02*
X79000Y-58500D01*
X79500Y-57250D02*
X79000Y-57750D01*
X83250Y-57250D02*
X79500Y-57250D01*
X88250Y-62250D02*
X83250Y-57250D01*
X88500Y-62250D02*
X88250Y-62250D01*
X92500Y-62250D02*
X88500Y-62250D01*
X92500Y-56500D02*
X92500Y-62250D01*
G54D25*
X91500Y-55500D02*
X90500Y-54500D01*
X90500Y-52500D02*
X91500Y-51500D01*
X90500Y-54500D02*
X90500Y-52500D01*
X91500Y-56500D02*
X91500Y-55500D01*
G54D26*
X91500Y-51500D02*
X90000Y-50000D01*
X90000Y-50000D02*
X88250Y-50000D01*
X91500Y-51500D02*
X91500Y-52500D01*
G54D23*
X71500Y-57000D02*
X71500Y-66000D01*
X75300Y-67250D02*
X76000Y-67950D01*
X72750Y-67250D02*
X75300Y-67250D01*
X71500Y-66000D02*
X72750Y-67250D01*
X78500Y-66500D02*
X79500Y-66500D01*
X78500Y-66500D02*
X79500Y-65500D01*
X78500Y-65500D02*
X78500Y-66500D01*
X76000Y-67950D02*
X76000Y-67000D01*
X76500Y-66500D02*
X78500Y-66500D01*
X76000Y-67000D02*
X76500Y-66500D01*
G54D24*
X82000Y-67000D02*
X82000Y-67950D01*
X80000Y-65000D02*
X82000Y-67000D01*
X76000Y-58500D02*
X73500Y-61000D01*
X76000Y-65000D02*
X80000Y-65000D01*
X73500Y-62500D02*
X76000Y-65000D01*
X73500Y-61000D02*
X73500Y-62500D01*
X85750Y-63250D02*
X84500Y-62500D01*
X85750Y-67250D02*
X85750Y-63250D01*
X84750Y-67250D02*
X85750Y-67250D01*
X83500Y-67250D02*
X84750Y-67250D01*
X84500Y-61000D02*
X84500Y-62500D01*
X83000Y-67950D02*
X83000Y-67750D01*
X83000Y-67750D02*
X83500Y-67250D01*
X82000Y-58500D02*
X84500Y-61000D01*
G54D23*
X72400Y-49050D02*
X72400Y-50150D01*
X72400Y-50150D02*
X72750Y-50500D01*
X71500Y-52000D02*
X71500Y-50500D01*
X71400Y-49050D02*
X71400Y-50400D01*
X71400Y-50400D02*
X71500Y-50500D01*
G54D24*
X85000Y-49050D02*
X85000Y-50000D01*
X85000Y-50000D02*
X85500Y-50500D01*
X84000Y-49050D02*
X84000Y-49250D01*
X83250Y-50750D02*
X84000Y-51500D01*
X83250Y-50000D02*
X83250Y-50750D01*
X84000Y-49250D02*
X83250Y-50000D01*
G54D22*
X77500Y-53000D02*
X78250Y-53750D01*
X78250Y-55250D02*
X78000Y-55500D01*
X78250Y-53750D02*
X78250Y-55250D01*
X72500Y-52000D02*
X76500Y-52000D01*
X76500Y-52000D02*
X77500Y-53000D01*
X72500Y-54000D02*
X74500Y-54000D01*
X74500Y-54000D02*
X76000Y-55500D01*
G54D24*
X84500Y-64500D02*
X84500Y-65500D01*
X85500Y-51500D02*
X85250Y-51500D01*
X84250Y-50500D02*
X84000Y-50500D01*
X85250Y-51500D02*
X84250Y-50500D01*
G54D22*
X77000Y-55500D02*
X77000Y-54500D01*
X77000Y-54500D02*
X77500Y-54000D01*
G54D24*
X79000Y-51500D02*
X79000Y-53500D01*
X79000Y-53500D02*
X80000Y-54500D01*
G54D23*
X80000Y-55500D02*
X80000Y-54500D01*
G54D24*
X87000Y-53500D02*
X87000Y-54500D01*
X87000Y-54500D02*
X87000Y-55000D01*
G54D23*
X81000Y-58500D02*
X81000Y-59500D01*
G54D24*
X81750Y-59500D02*
X81000Y-59500D01*
X82250Y-60000D02*
X81750Y-59500D01*
X82250Y-62500D02*
X82250Y-60000D01*
X79500Y-62500D02*
X81250Y-62500D01*
X79500Y-63500D02*
X79500Y-62500D01*
X79500Y-64500D02*
X79500Y-63500D01*
X91500Y-65500D02*
X89750Y-65500D01*
X85250Y-66500D02*
X84500Y-66500D01*
X88750Y-66500D02*
X86250Y-66500D01*
X89750Y-65500D02*
X88750Y-66500D01*
G54D23*
X80000Y-58500D02*
X80000Y-59500D01*
G54D24*
X80650Y-60150D02*
X80000Y-59500D01*
X81600Y-60150D02*
X80650Y-60150D01*
X81750Y-60300D02*
X81600Y-60150D01*
X81750Y-63750D02*
X81750Y-60300D01*
X84500Y-66500D02*
X81750Y-63750D01*
G54D22*
X84000Y-56850D02*
X84100Y-56850D01*
X79000Y-57000D02*
X79150Y-56850D01*
X79150Y-56850D02*
X83900Y-56850D01*
X83900Y-56850D02*
X84000Y-56850D01*
X78000Y-58500D02*
X78000Y-57000D01*
X92500Y-67000D02*
X92000Y-67500D01*
X92500Y-63250D02*
X92500Y-67000D01*
X92000Y-62750D02*
X92500Y-63250D01*
X88000Y-62750D02*
X92000Y-62750D01*
X84750Y-59500D02*
X88000Y-62750D01*
X84100Y-56850D02*
X85750Y-58500D01*
G54D24*
X73500Y-66500D02*
X73250Y-66500D01*
X73250Y-66500D02*
X72500Y-65750D01*
X72500Y-65750D02*
X72500Y-60250D01*
X72500Y-60250D02*
X75500Y-57250D01*
X75500Y-57250D02*
X77250Y-57250D01*
X77250Y-57250D02*
X78000Y-58000D01*
X78000Y-58000D02*
X78000Y-58500D01*
G54D23*
X78000Y-58500D02*
X78000Y-59500D01*
G54D25*
X91500Y-57500D02*
X89500Y-57500D01*
X89500Y-54500D02*
X88000Y-54500D01*
G54D22*
X88000Y-54500D02*
X87500Y-54500D01*
G54D25*
X89500Y-57500D02*
X89500Y-54500D01*
X91500Y-60500D02*
X91500Y-59500D01*
G54D23*
X81000Y-55500D02*
X81000Y-54500D01*
G54D24*
X81000Y-55500D02*
X81000Y-56000D01*
X87500Y-55500D02*
X87750Y-55750D01*
X86500Y-56500D02*
X87500Y-55500D01*
X81500Y-56500D02*
X86500Y-56500D01*
X81000Y-56000D02*
X81500Y-56500D01*
G54D26*
X91500Y-59500D02*
X88500Y-59500D01*
X87750Y-58750D02*
X87750Y-55750D01*
G54D22*
X87750Y-55750D02*
X87500Y-55500D01*
G54D26*
X88500Y-59500D02*
X87750Y-58750D01*
G54D24*
X73500Y-65500D02*
X73500Y-64500D01*
X78500Y-64500D02*
X78500Y-63500D01*
X77500Y-62500D02*
X78500Y-62500D01*
X76250Y-61250D02*
X77500Y-62500D01*
X78500Y-63500D02*
X78500Y-62500D01*
X76250Y-60250D02*
X76250Y-61250D01*
X77000Y-59500D02*
X76250Y-60250D01*
G54D23*
X77000Y-58500D02*
X77000Y-59500D01*
G54D24*
X82000Y-55500D02*
X82000Y-53500D01*
M02*
