G04 (created by PCBNEW (22-Jun-2014 BZR 4027)-stable) date Thu 21 Jun 2018 11:33:33 PM CDT*
%MOIN*%
G04 Gerber Fmt 3.4, Leading zero omitted, Abs format*
%FSLAX34Y34*%
G01*
G70*
G90*
G04 APERTURE LIST*
%ADD10C,0.00590551*%
%ADD11R,0.059X0.059*%
%ADD12O,0.059X0.059*%
%ADD13R,0.059X0.0885*%
%ADD14O,0.059X0.0885*%
%ADD15R,0.064X0.059*%
%ADD16R,0.059X0.064*%
%ADD17R,0.069X0.069*%
%ADD18C,0.069*%
%ADD19O,0.069X0.069*%
%ADD20R,0.089X0.089*%
%ADD21C,0.089*%
G04 APERTURE END LIST*
G54D10*
G54D11*
X88250Y-50000D03*
G54D12*
X88250Y-51000D03*
G54D13*
X76000Y-58352D03*
G54D14*
X77000Y-58352D03*
X78000Y-58352D03*
X79000Y-58352D03*
X79000Y-55647D03*
X78000Y-55647D03*
X77000Y-55647D03*
X76000Y-55647D03*
X80000Y-58352D03*
X81000Y-58352D03*
X82000Y-58352D03*
X80000Y-55647D03*
X81000Y-55647D03*
X82000Y-55647D03*
G54D15*
X71300Y-50250D03*
X72450Y-50250D03*
G54D16*
X77000Y-59550D03*
X77000Y-60700D03*
X78000Y-59550D03*
X78000Y-60700D03*
X81000Y-54450D03*
X81000Y-53300D03*
X81000Y-59550D03*
X81000Y-60700D03*
X80000Y-59550D03*
X80000Y-60700D03*
X79000Y-59550D03*
X79000Y-60700D03*
G54D17*
X73000Y-68000D03*
G54D18*
X74000Y-68000D03*
X75000Y-68000D03*
X76000Y-68000D03*
X77000Y-68000D03*
X78000Y-68000D03*
X79000Y-68000D03*
X80000Y-68000D03*
G54D17*
X80000Y-49000D03*
G54D18*
X81000Y-49000D03*
X82000Y-49000D03*
X83000Y-49000D03*
X84000Y-49000D03*
X85000Y-49000D03*
X86000Y-49000D03*
X87000Y-49000D03*
G54D17*
X82000Y-68000D03*
G54D18*
X83000Y-68000D03*
X84000Y-68000D03*
X85000Y-68000D03*
X86000Y-68000D03*
X87000Y-68000D03*
G54D17*
X69400Y-49000D03*
G54D18*
X70400Y-49000D03*
X71400Y-49000D03*
X72400Y-49000D03*
X73400Y-49000D03*
X74400Y-49000D03*
X75400Y-49000D03*
X76400Y-49000D03*
X77400Y-49000D03*
X78400Y-49000D03*
G54D17*
X85500Y-50500D03*
G54D19*
X85500Y-51500D03*
G54D20*
X91500Y-51500D03*
G54D21*
X91500Y-49500D03*
G54D18*
X91500Y-50500D03*
G54D20*
X91500Y-55500D03*
G54D21*
X91500Y-53500D03*
G54D18*
X91500Y-54500D03*
G54D20*
X91500Y-59500D03*
G54D21*
X91500Y-57500D03*
G54D18*
X91500Y-58500D03*
G54D20*
X91500Y-63500D03*
G54D21*
X91500Y-61500D03*
G54D18*
X91500Y-62500D03*
G54D12*
X74500Y-53500D03*
X78500Y-53500D03*
X71250Y-57750D03*
X71250Y-53750D03*
X80000Y-50250D03*
X84000Y-50250D03*
G54D11*
X70250Y-52000D03*
G54D12*
X73250Y-52000D03*
X79500Y-63500D03*
X83500Y-63500D03*
X83500Y-62500D03*
X79500Y-62500D03*
X79500Y-64500D03*
X83500Y-64500D03*
X89000Y-64000D03*
X85000Y-64000D03*
X78000Y-63500D03*
X74000Y-63500D03*
X74000Y-62500D03*
X78000Y-62500D03*
X78000Y-64500D03*
X74000Y-64500D03*
X89000Y-65000D03*
X85000Y-65000D03*
X83250Y-56250D03*
X83250Y-52250D03*
X80000Y-51250D03*
X84000Y-51250D03*
X70250Y-57750D03*
X70250Y-53750D03*
X78500Y-52500D03*
X74500Y-52500D03*
G54D15*
X78950Y-50250D03*
X77800Y-50250D03*
G54D17*
X86750Y-57000D03*
G54D19*
X86750Y-56000D03*
X86750Y-55000D03*
G54D20*
X91500Y-67500D03*
G54D21*
X91500Y-65500D03*
G54D18*
X91500Y-66500D03*
M02*
