G04 (created by PCBNEW (22-Jun-2014 BZR 4027)-stable) date Thu 21 Jun 2018 11:33:33 PM CDT*
%MOIN*%
G04 Gerber Fmt 3.4, Leading zero omitted, Abs format*
%FSLAX34Y34*%
G01*
G70*
G90*
G04 APERTURE LIST*
%ADD10C,0.00590551*%
%ADD11R,0.059X0.059*%
%ADD12O,0.059X0.059*%
%ADD13R,0.059X0.0885*%
%ADD14O,0.059X0.0885*%
%ADD15R,0.064X0.059*%
%ADD16R,0.059X0.064*%
%ADD17R,0.069X0.069*%
%ADD18C,0.069*%
%ADD19O,0.069X0.069*%
%ADD20R,0.089X0.089*%
%ADD21C,0.089*%
%ADD22C,0.035*%
%ADD23C,0.03*%
%ADD24C,0.08*%
%ADD25C,0.02*%
%ADD26C,0.01*%
G04 APERTURE END LIST*
G54D10*
G54D11*
X88250Y-50000D03*
G54D12*
X88250Y-51000D03*
G54D13*
X76000Y-58352D03*
G54D14*
X77000Y-58352D03*
X78000Y-58352D03*
X79000Y-58352D03*
X79000Y-55647D03*
X78000Y-55647D03*
X77000Y-55647D03*
X76000Y-55647D03*
X80000Y-58352D03*
X81000Y-58352D03*
X82000Y-58352D03*
X80000Y-55647D03*
X81000Y-55647D03*
X82000Y-55647D03*
G54D15*
X71300Y-50250D03*
X72450Y-50250D03*
G54D16*
X77000Y-59550D03*
X77000Y-60700D03*
X78000Y-59550D03*
X78000Y-60700D03*
X81000Y-54450D03*
X81000Y-53300D03*
X81000Y-59550D03*
X81000Y-60700D03*
X80000Y-59550D03*
X80000Y-60700D03*
X79000Y-59550D03*
X79000Y-60700D03*
G54D17*
X73000Y-68000D03*
G54D18*
X74000Y-68000D03*
X75000Y-68000D03*
X76000Y-68000D03*
X77000Y-68000D03*
X78000Y-68000D03*
X79000Y-68000D03*
X80000Y-68000D03*
G54D17*
X80000Y-49000D03*
G54D18*
X81000Y-49000D03*
X82000Y-49000D03*
X83000Y-49000D03*
X84000Y-49000D03*
X85000Y-49000D03*
X86000Y-49000D03*
X87000Y-49000D03*
G54D17*
X82000Y-68000D03*
G54D18*
X83000Y-68000D03*
X84000Y-68000D03*
X85000Y-68000D03*
X86000Y-68000D03*
X87000Y-68000D03*
G54D17*
X69400Y-49000D03*
G54D18*
X70400Y-49000D03*
X71400Y-49000D03*
X72400Y-49000D03*
X73400Y-49000D03*
X74400Y-49000D03*
X75400Y-49000D03*
X76400Y-49000D03*
X77400Y-49000D03*
X78400Y-49000D03*
G54D17*
X85500Y-50500D03*
G54D19*
X85500Y-51500D03*
G54D20*
X91500Y-51500D03*
G54D21*
X91500Y-49500D03*
G54D18*
X91500Y-50500D03*
G54D20*
X91500Y-55500D03*
G54D21*
X91500Y-53500D03*
G54D18*
X91500Y-54500D03*
G54D20*
X91500Y-59500D03*
G54D21*
X91500Y-57500D03*
G54D18*
X91500Y-58500D03*
G54D20*
X91500Y-63500D03*
G54D21*
X91500Y-61500D03*
G54D18*
X91500Y-62500D03*
G54D12*
X74500Y-53500D03*
X78500Y-53500D03*
X71250Y-57750D03*
X71250Y-53750D03*
X80000Y-50250D03*
X84000Y-50250D03*
G54D11*
X70250Y-52000D03*
G54D12*
X73250Y-52000D03*
X79500Y-63500D03*
X83500Y-63500D03*
X83500Y-62500D03*
X79500Y-62500D03*
X79500Y-64500D03*
X83500Y-64500D03*
X89000Y-64000D03*
X85000Y-64000D03*
X78000Y-63500D03*
X74000Y-63500D03*
X74000Y-62500D03*
X78000Y-62500D03*
X78000Y-64500D03*
X74000Y-64500D03*
X89000Y-65000D03*
X85000Y-65000D03*
X83250Y-56250D03*
X83250Y-52250D03*
X80000Y-51250D03*
X84000Y-51250D03*
X70250Y-57750D03*
X70250Y-53750D03*
X78500Y-52500D03*
X74500Y-52500D03*
G54D15*
X78950Y-50250D03*
X77800Y-50250D03*
G54D17*
X86750Y-57000D03*
G54D19*
X86750Y-56000D03*
X86750Y-55000D03*
G54D20*
X91500Y-67500D03*
G54D21*
X91500Y-65500D03*
G54D18*
X91500Y-66500D03*
G54D22*
X85500Y-64500D03*
X75750Y-64500D03*
X84500Y-66500D03*
X83500Y-66500D03*
X82250Y-66500D03*
X81500Y-65750D03*
G54D23*
X91500Y-54500D02*
X92000Y-54500D01*
X79000Y-58000D02*
X79000Y-58500D01*
X79750Y-57250D02*
X79000Y-58000D01*
X83250Y-57250D02*
X79750Y-57250D01*
X86500Y-60500D02*
X83250Y-57250D01*
X92250Y-60500D02*
X86500Y-60500D01*
X92500Y-60250D02*
X92250Y-60500D01*
X92500Y-55000D02*
X92500Y-60250D01*
X92000Y-54500D02*
X92500Y-55000D01*
X91500Y-53500D02*
X91500Y-54500D01*
G54D24*
X90500Y-49500D02*
X90500Y-53500D01*
G54D23*
X90500Y-53500D02*
X91500Y-53500D01*
X88250Y-50000D02*
X89000Y-50000D01*
X90500Y-49500D02*
X91500Y-49500D01*
G54D24*
X89750Y-49500D02*
X90500Y-49500D01*
X89250Y-50000D02*
X89750Y-49500D01*
G54D23*
X89000Y-50000D02*
X89250Y-50000D01*
X91500Y-49500D02*
X91500Y-50500D01*
X79000Y-59500D02*
X79000Y-58500D01*
G54D25*
X70250Y-57750D02*
X70250Y-63500D01*
X75250Y-67250D02*
X76000Y-68000D01*
X74000Y-67250D02*
X75250Y-67250D01*
X70250Y-63500D02*
X74000Y-67250D01*
X74000Y-66000D02*
X74750Y-66750D01*
X71250Y-63250D02*
X74000Y-66000D01*
X71250Y-57750D02*
X71250Y-63250D01*
X75750Y-66750D02*
X77000Y-68000D01*
X74750Y-66750D02*
X75750Y-66750D01*
X74000Y-63500D02*
X77500Y-67000D01*
X81000Y-67000D02*
X82000Y-68000D01*
X77500Y-67000D02*
X81000Y-67000D01*
X76000Y-58500D02*
X75500Y-59000D01*
X75500Y-62000D02*
X74000Y-63500D01*
X75500Y-59000D02*
X75500Y-62000D01*
X82000Y-58500D02*
X82750Y-59250D01*
X82750Y-62750D02*
X83500Y-63500D01*
X82750Y-59250D02*
X82750Y-62750D01*
X83500Y-63500D02*
X84000Y-64000D01*
X84000Y-67000D02*
X83000Y-68000D01*
X84000Y-66250D02*
X84000Y-67000D01*
X84000Y-64000D02*
X84000Y-66250D01*
X73250Y-52000D02*
X73250Y-51000D01*
X73250Y-51000D02*
X72500Y-50250D01*
X72500Y-50250D02*
X72500Y-49100D01*
X72500Y-49100D02*
X72400Y-49000D01*
G54D26*
X90500Y-64500D02*
X91500Y-65500D01*
X85500Y-64500D02*
X90500Y-64500D01*
G54D25*
X81500Y-66500D02*
X83500Y-64500D01*
X77750Y-66500D02*
X81500Y-66500D01*
X75750Y-64500D02*
X77750Y-66500D01*
X71250Y-53750D02*
X72500Y-55000D01*
X72500Y-63000D02*
X74000Y-64500D01*
X72500Y-55000D02*
X72500Y-63000D01*
X91500Y-62500D02*
X92000Y-62500D01*
X92000Y-62500D02*
X92250Y-62750D01*
X92250Y-62750D02*
X92250Y-64750D01*
X92250Y-64750D02*
X91500Y-65500D01*
X91500Y-65500D02*
X91500Y-66500D01*
X91500Y-61500D02*
X91500Y-62500D01*
X71250Y-53750D02*
X70250Y-53750D01*
X70250Y-53750D02*
X70250Y-52000D01*
X70250Y-52000D02*
X70250Y-51250D01*
X70250Y-51250D02*
X71250Y-50250D01*
X71250Y-50250D02*
X71250Y-49150D01*
X71250Y-49150D02*
X71400Y-49000D01*
X85000Y-49050D02*
X85000Y-50000D01*
X85000Y-50000D02*
X85500Y-50500D01*
X84000Y-50250D02*
X84000Y-49000D01*
X74500Y-52500D02*
X75000Y-52500D01*
X76000Y-53500D02*
X76000Y-55500D01*
X75000Y-52500D02*
X76000Y-53500D01*
X78500Y-53500D02*
X80000Y-55000D01*
X80000Y-55000D02*
X80000Y-55500D01*
X78500Y-52500D02*
X78500Y-53500D01*
X82000Y-55500D02*
X83250Y-54250D01*
X83250Y-54250D02*
X83250Y-52250D01*
X85500Y-51500D02*
X85250Y-51500D01*
X84250Y-51250D02*
X84000Y-51250D01*
X85250Y-51500D02*
X84250Y-51250D01*
X83250Y-56250D02*
X83500Y-56000D01*
X83500Y-56000D02*
X86750Y-56000D01*
X79000Y-50250D02*
X79000Y-51000D01*
X78000Y-52000D02*
X78000Y-55500D01*
X79000Y-51000D02*
X78000Y-52000D01*
X80000Y-50250D02*
X79000Y-50250D01*
G54D26*
X80000Y-58500D02*
X80750Y-57750D01*
X82750Y-57750D02*
X89000Y-64000D01*
X82250Y-57750D02*
X82750Y-57750D01*
X80750Y-57750D02*
X82250Y-57750D01*
G54D25*
X89000Y-64000D02*
X89500Y-63500D01*
X89500Y-63500D02*
X91500Y-63500D01*
G54D23*
X80000Y-58500D02*
X80000Y-59500D01*
G54D25*
X79500Y-62500D02*
X80500Y-61500D01*
X81750Y-60250D02*
X81000Y-59500D01*
X81750Y-61250D02*
X81750Y-60250D01*
X81500Y-61500D02*
X81750Y-61250D01*
X80500Y-61500D02*
X81500Y-61500D01*
X79500Y-63500D02*
X79500Y-62500D01*
X79500Y-64500D02*
X79500Y-63500D01*
G54D23*
X81000Y-58500D02*
X81000Y-59500D01*
G54D26*
X78750Y-64750D02*
X79750Y-65750D01*
X78500Y-60000D02*
X78500Y-61500D01*
X78500Y-61500D02*
X78750Y-61750D01*
X78750Y-61750D02*
X78750Y-64750D01*
X78000Y-59500D02*
X78500Y-60000D01*
X87500Y-66500D02*
X89000Y-65000D01*
X84500Y-66500D02*
X87500Y-66500D01*
X82250Y-66500D02*
X83500Y-66500D01*
X79750Y-65750D02*
X81500Y-65750D01*
G54D25*
X91500Y-67500D02*
X89000Y-65000D01*
G54D23*
X78000Y-58500D02*
X78000Y-59500D01*
G54D25*
X78000Y-62500D02*
X77000Y-61500D01*
X76250Y-60250D02*
X77000Y-59500D01*
X76250Y-61250D02*
X76250Y-60250D01*
X76500Y-61500D02*
X76250Y-61250D01*
X77000Y-61500D02*
X76500Y-61500D01*
X78000Y-63500D02*
X78000Y-62500D01*
X78000Y-64500D02*
X78000Y-63500D01*
G54D23*
X77000Y-58500D02*
X77000Y-59500D01*
X91500Y-55500D02*
X90500Y-55500D01*
X87750Y-55000D02*
X86750Y-55000D01*
G54D24*
X90000Y-55000D02*
X87750Y-55000D01*
X90500Y-55500D02*
X90000Y-55000D01*
G54D23*
X86750Y-57000D02*
X87500Y-57000D01*
X90500Y-57500D02*
X91500Y-57500D01*
G54D24*
X88250Y-57500D02*
X90500Y-57500D01*
X87750Y-57000D02*
X88250Y-57500D01*
G54D23*
X87500Y-57000D02*
X87750Y-57000D01*
X91500Y-57500D02*
X91500Y-58500D01*
G54D26*
X81000Y-55500D02*
X81000Y-55750D01*
X86500Y-56750D02*
X86750Y-57000D01*
X84250Y-56750D02*
X86500Y-56750D01*
X82000Y-56750D02*
X84250Y-56750D01*
X81000Y-55750D02*
X82000Y-56750D01*
G54D23*
X81000Y-55500D02*
X81000Y-54500D01*
M02*
