G04 (created by PCBNEW (22-Jun-2014 BZR 4027)-stable) date Thu 21 Jun 2018 11:33:33 PM CDT*
%MOIN*%
G04 Gerber Fmt 3.4, Leading zero omitted, Abs format*
%FSLAX34Y34*%
G01*
G70*
G90*
G04 APERTURE LIST*
%ADD10C,0.00590551*%
%ADD11R,0.059X0.059*%
%ADD12O,0.059X0.059*%
%ADD13R,0.059X0.0885*%
%ADD14O,0.059X0.0885*%
%ADD15R,0.064X0.059*%
%ADD16R,0.059X0.064*%
%ADD17R,0.069X0.069*%
%ADD18C,0.069*%
%ADD19O,0.069X0.069*%
%ADD20R,0.089X0.089*%
%ADD21C,0.089*%
%ADD22C,0.035*%
%ADD23C,0.01*%
%ADD24C,0.02*%
G04 APERTURE END LIST*
G54D10*
G54D11*
X88250Y-50000D03*
G54D12*
X88250Y-51000D03*
G54D13*
X76000Y-58352D03*
G54D14*
X77000Y-58352D03*
X78000Y-58352D03*
X79000Y-58352D03*
X79000Y-55647D03*
X78000Y-55647D03*
X77000Y-55647D03*
X76000Y-55647D03*
X80000Y-58352D03*
X81000Y-58352D03*
X82000Y-58352D03*
X80000Y-55647D03*
X81000Y-55647D03*
X82000Y-55647D03*
G54D15*
X71300Y-50250D03*
X72450Y-50250D03*
G54D16*
X77000Y-59550D03*
X77000Y-60700D03*
X78000Y-59550D03*
X78000Y-60700D03*
X81000Y-54450D03*
X81000Y-53300D03*
X81000Y-59550D03*
X81000Y-60700D03*
X80000Y-59550D03*
X80000Y-60700D03*
X79000Y-59550D03*
X79000Y-60700D03*
G54D17*
X73000Y-68000D03*
G54D18*
X74000Y-68000D03*
X75000Y-68000D03*
X76000Y-68000D03*
X77000Y-68000D03*
X78000Y-68000D03*
X79000Y-68000D03*
X80000Y-68000D03*
G54D17*
X80000Y-49000D03*
G54D18*
X81000Y-49000D03*
X82000Y-49000D03*
X83000Y-49000D03*
X84000Y-49000D03*
X85000Y-49000D03*
X86000Y-49000D03*
X87000Y-49000D03*
G54D17*
X82000Y-68000D03*
G54D18*
X83000Y-68000D03*
X84000Y-68000D03*
X85000Y-68000D03*
X86000Y-68000D03*
X87000Y-68000D03*
G54D17*
X69400Y-49000D03*
G54D18*
X70400Y-49000D03*
X71400Y-49000D03*
X72400Y-49000D03*
X73400Y-49000D03*
X74400Y-49000D03*
X75400Y-49000D03*
X76400Y-49000D03*
X77400Y-49000D03*
X78400Y-49000D03*
G54D17*
X85500Y-50500D03*
G54D19*
X85500Y-51500D03*
G54D20*
X91500Y-51500D03*
G54D21*
X91500Y-49500D03*
G54D18*
X91500Y-50500D03*
G54D20*
X91500Y-55500D03*
G54D21*
X91500Y-53500D03*
G54D18*
X91500Y-54500D03*
G54D20*
X91500Y-59500D03*
G54D21*
X91500Y-57500D03*
G54D18*
X91500Y-58500D03*
G54D20*
X91500Y-63500D03*
G54D21*
X91500Y-61500D03*
G54D18*
X91500Y-62500D03*
G54D12*
X74500Y-53500D03*
X78500Y-53500D03*
X71250Y-57750D03*
X71250Y-53750D03*
X80000Y-50250D03*
X84000Y-50250D03*
G54D11*
X70250Y-52000D03*
G54D12*
X73250Y-52000D03*
X79500Y-63500D03*
X83500Y-63500D03*
X83500Y-62500D03*
X79500Y-62500D03*
X79500Y-64500D03*
X83500Y-64500D03*
X89000Y-64000D03*
X85000Y-64000D03*
X78000Y-63500D03*
X74000Y-63500D03*
X74000Y-62500D03*
X78000Y-62500D03*
X78000Y-64500D03*
X74000Y-64500D03*
X89000Y-65000D03*
X85000Y-65000D03*
X83250Y-56250D03*
X83250Y-52250D03*
X80000Y-51250D03*
X84000Y-51250D03*
X70250Y-57750D03*
X70250Y-53750D03*
X78500Y-52500D03*
X74500Y-52500D03*
G54D15*
X78950Y-50250D03*
X77800Y-50250D03*
G54D17*
X86750Y-57000D03*
G54D19*
X86750Y-56000D03*
X86750Y-55000D03*
G54D20*
X91500Y-67500D03*
G54D21*
X91500Y-65500D03*
G54D18*
X91500Y-66500D03*
G54D22*
X85500Y-64500D03*
X75750Y-64500D03*
X84500Y-66500D03*
X83500Y-66500D03*
X82250Y-66500D03*
X81500Y-65750D03*
G54D23*
X83500Y-64500D02*
X85500Y-64500D01*
G54D24*
X74000Y-64500D02*
X75750Y-64500D01*
G54D23*
X83500Y-66500D02*
X84500Y-66500D01*
X81500Y-65750D02*
X82250Y-66500D01*
G54D10*
G36*
X92450Y-67950D02*
X92194Y-67950D01*
X92195Y-67895D01*
X92195Y-67005D01*
X92157Y-66913D01*
X92086Y-66843D01*
X92014Y-66813D01*
X92094Y-66618D01*
X92095Y-66382D01*
X92004Y-66163D01*
X91912Y-66070D01*
X92088Y-65894D01*
X92194Y-65638D01*
X92195Y-65362D01*
X92195Y-61362D01*
X92195Y-57362D01*
X92195Y-53362D01*
X92195Y-53362D01*
X92195Y-51994D01*
X92195Y-51612D01*
X92132Y-51550D01*
X91550Y-51550D01*
X91550Y-52132D01*
X91612Y-52195D01*
X91895Y-52195D01*
X91994Y-52194D01*
X92086Y-52156D01*
X92157Y-52086D01*
X92195Y-51994D01*
X92195Y-53362D01*
X92089Y-53106D01*
X91894Y-52911D01*
X91638Y-52805D01*
X91450Y-52804D01*
X91450Y-52132D01*
X91450Y-51550D01*
X90867Y-51550D01*
X90805Y-51612D01*
X90804Y-51994D01*
X90842Y-52086D01*
X90913Y-52156D01*
X91005Y-52194D01*
X91104Y-52195D01*
X91387Y-52195D01*
X91450Y-52132D01*
X91450Y-52804D01*
X91362Y-52804D01*
X91106Y-52910D01*
X90911Y-53105D01*
X90805Y-53361D01*
X90804Y-53637D01*
X90910Y-53893D01*
X91087Y-54070D01*
X90995Y-54162D01*
X90905Y-54381D01*
X90904Y-54617D01*
X90985Y-54813D01*
X90913Y-54842D01*
X90843Y-54913D01*
X90805Y-55005D01*
X90804Y-55104D01*
X90804Y-55994D01*
X90842Y-56086D01*
X90913Y-56156D01*
X91005Y-56194D01*
X91104Y-56195D01*
X91994Y-56195D01*
X92086Y-56157D01*
X92156Y-56086D01*
X92194Y-55994D01*
X92195Y-55895D01*
X92195Y-55005D01*
X92157Y-54913D01*
X92086Y-54843D01*
X92014Y-54813D01*
X92094Y-54618D01*
X92095Y-54382D01*
X92004Y-54163D01*
X91912Y-54070D01*
X92088Y-53894D01*
X92194Y-53638D01*
X92195Y-53362D01*
X92195Y-57362D01*
X92089Y-57106D01*
X91894Y-56911D01*
X91638Y-56805D01*
X91362Y-56804D01*
X91106Y-56910D01*
X90911Y-57105D01*
X90805Y-57361D01*
X90804Y-57637D01*
X90910Y-57893D01*
X91087Y-58070D01*
X90995Y-58162D01*
X90905Y-58381D01*
X90904Y-58617D01*
X90985Y-58813D01*
X90913Y-58843D01*
X90842Y-58913D01*
X90804Y-59005D01*
X90805Y-59387D01*
X90867Y-59450D01*
X91450Y-59450D01*
X91450Y-59442D01*
X91550Y-59442D01*
X91550Y-59450D01*
X92132Y-59450D01*
X92195Y-59387D01*
X92195Y-59005D01*
X92157Y-58913D01*
X92086Y-58843D01*
X92014Y-58813D01*
X92094Y-58618D01*
X92095Y-58382D01*
X92004Y-58163D01*
X91912Y-58070D01*
X92088Y-57894D01*
X92194Y-57638D01*
X92195Y-57362D01*
X92195Y-61362D01*
X92195Y-61362D01*
X92195Y-59994D01*
X92195Y-59612D01*
X92132Y-59550D01*
X91550Y-59550D01*
X91550Y-60132D01*
X91612Y-60195D01*
X91895Y-60195D01*
X91994Y-60194D01*
X92086Y-60156D01*
X92157Y-60086D01*
X92195Y-59994D01*
X92195Y-61362D01*
X92089Y-61106D01*
X91894Y-60911D01*
X91638Y-60805D01*
X91450Y-60804D01*
X91450Y-60132D01*
X91450Y-59550D01*
X90867Y-59550D01*
X90805Y-59612D01*
X90804Y-59994D01*
X90842Y-60086D01*
X90913Y-60156D01*
X91005Y-60194D01*
X91104Y-60195D01*
X91387Y-60195D01*
X91450Y-60132D01*
X91450Y-60804D01*
X91362Y-60804D01*
X91106Y-60910D01*
X90911Y-61105D01*
X90805Y-61361D01*
X90804Y-61637D01*
X90910Y-61893D01*
X91087Y-62070D01*
X90995Y-62162D01*
X90905Y-62381D01*
X90904Y-62617D01*
X90985Y-62813D01*
X90913Y-62842D01*
X90843Y-62913D01*
X90805Y-63005D01*
X90804Y-63104D01*
X90804Y-63994D01*
X90842Y-64086D01*
X90913Y-64156D01*
X91005Y-64194D01*
X91104Y-64195D01*
X91994Y-64195D01*
X92086Y-64157D01*
X92156Y-64086D01*
X92194Y-63994D01*
X92195Y-63895D01*
X92195Y-63005D01*
X92157Y-62913D01*
X92086Y-62843D01*
X92014Y-62813D01*
X92094Y-62618D01*
X92095Y-62382D01*
X92004Y-62163D01*
X91912Y-62070D01*
X92088Y-61894D01*
X92194Y-61638D01*
X92195Y-61362D01*
X92195Y-65362D01*
X92089Y-65106D01*
X91894Y-64911D01*
X91638Y-64805D01*
X91362Y-64804D01*
X91106Y-64910D01*
X90911Y-65105D01*
X90805Y-65361D01*
X90804Y-65637D01*
X90910Y-65893D01*
X91087Y-66070D01*
X90995Y-66162D01*
X90905Y-66381D01*
X90904Y-66617D01*
X90985Y-66813D01*
X90913Y-66842D01*
X90843Y-66913D01*
X90805Y-67005D01*
X90804Y-67104D01*
X90804Y-67950D01*
X89555Y-67950D01*
X89555Y-65000D01*
X89514Y-64791D01*
X89396Y-64614D01*
X89224Y-64500D01*
X89396Y-64385D01*
X89514Y-64208D01*
X89555Y-64000D01*
X89514Y-63791D01*
X89396Y-63614D01*
X89219Y-63496D01*
X89010Y-63455D01*
X88989Y-63455D01*
X88795Y-63493D01*
X88795Y-50245D01*
X88795Y-49655D01*
X88757Y-49563D01*
X88686Y-49493D01*
X88594Y-49455D01*
X88495Y-49454D01*
X87905Y-49454D01*
X87813Y-49492D01*
X87743Y-49563D01*
X87705Y-49655D01*
X87704Y-49754D01*
X87704Y-50344D01*
X87742Y-50436D01*
X87813Y-50506D01*
X87905Y-50544D01*
X87956Y-50545D01*
X87813Y-50673D01*
X87721Y-50865D01*
X87769Y-50950D01*
X88200Y-50950D01*
X88200Y-50942D01*
X88300Y-50942D01*
X88300Y-50950D01*
X88730Y-50950D01*
X88778Y-50865D01*
X88686Y-50673D01*
X88543Y-50545D01*
X88594Y-50545D01*
X88686Y-50507D01*
X88756Y-50436D01*
X88794Y-50344D01*
X88795Y-50245D01*
X88795Y-63493D01*
X88780Y-63496D01*
X88778Y-63498D01*
X88778Y-51134D01*
X88730Y-51050D01*
X88300Y-51050D01*
X88300Y-51479D01*
X88384Y-51528D01*
X88528Y-51468D01*
X88686Y-51326D01*
X88778Y-51134D01*
X88778Y-63498D01*
X88603Y-63614D01*
X88485Y-63791D01*
X88444Y-64000D01*
X88485Y-64208D01*
X88603Y-64385D01*
X88775Y-64500D01*
X88603Y-64614D01*
X88485Y-64791D01*
X88444Y-65000D01*
X88485Y-65208D01*
X88603Y-65385D01*
X88780Y-65503D01*
X88989Y-65545D01*
X89010Y-65545D01*
X89219Y-65503D01*
X89396Y-65385D01*
X89514Y-65208D01*
X89555Y-65000D01*
X89555Y-67950D01*
X88200Y-67950D01*
X88200Y-51479D01*
X88200Y-51050D01*
X87769Y-51050D01*
X87721Y-51134D01*
X87813Y-51326D01*
X87971Y-51468D01*
X88115Y-51528D01*
X88200Y-51479D01*
X88200Y-67950D01*
X87595Y-67950D01*
X87595Y-67882D01*
X87504Y-67663D01*
X87356Y-67515D01*
X87356Y-56000D01*
X87311Y-55772D01*
X87182Y-55579D01*
X87063Y-55500D01*
X87182Y-55420D01*
X87311Y-55227D01*
X87356Y-55000D01*
X87311Y-54772D01*
X87182Y-54579D01*
X86989Y-54450D01*
X86761Y-54405D01*
X86738Y-54405D01*
X86510Y-54450D01*
X86317Y-54579D01*
X86188Y-54772D01*
X86143Y-55000D01*
X86188Y-55227D01*
X86317Y-55420D01*
X86436Y-55500D01*
X86317Y-55579D01*
X86188Y-55772D01*
X86143Y-56000D01*
X86188Y-56227D01*
X86317Y-56420D01*
X86263Y-56442D01*
X86193Y-56513D01*
X86155Y-56605D01*
X86154Y-56704D01*
X86154Y-57394D01*
X86192Y-57486D01*
X86263Y-57556D01*
X86355Y-57594D01*
X86454Y-57595D01*
X87144Y-57595D01*
X87236Y-57557D01*
X87306Y-57486D01*
X87344Y-57394D01*
X87345Y-57295D01*
X87345Y-56605D01*
X87307Y-56513D01*
X87236Y-56443D01*
X87182Y-56420D01*
X87311Y-56227D01*
X87356Y-56000D01*
X87356Y-67515D01*
X87337Y-67495D01*
X87118Y-67405D01*
X86882Y-67404D01*
X86663Y-67495D01*
X86499Y-67658D01*
X86337Y-67495D01*
X86118Y-67405D01*
X86095Y-67405D01*
X86095Y-50795D01*
X86095Y-50105D01*
X86057Y-50013D01*
X85986Y-49943D01*
X85894Y-49905D01*
X85795Y-49904D01*
X85105Y-49904D01*
X85013Y-49942D01*
X84943Y-50013D01*
X84905Y-50105D01*
X84904Y-50204D01*
X84904Y-50894D01*
X84942Y-50986D01*
X85013Y-51056D01*
X85070Y-51080D01*
X84950Y-51260D01*
X84905Y-51488D01*
X84905Y-51511D01*
X84950Y-51739D01*
X85079Y-51932D01*
X85272Y-52061D01*
X85500Y-52106D01*
X85727Y-52061D01*
X85920Y-51932D01*
X86049Y-51739D01*
X86095Y-51511D01*
X86095Y-51488D01*
X86049Y-51260D01*
X85929Y-51080D01*
X85986Y-51057D01*
X86056Y-50986D01*
X86094Y-50894D01*
X86095Y-50795D01*
X86095Y-67405D01*
X85925Y-67404D01*
X85925Y-64415D01*
X85860Y-64259D01*
X85741Y-64139D01*
X85584Y-64075D01*
X85528Y-64075D01*
X85528Y-63865D01*
X85468Y-63721D01*
X85326Y-63563D01*
X85134Y-63471D01*
X85050Y-63519D01*
X85050Y-63950D01*
X85479Y-63950D01*
X85528Y-63865D01*
X85528Y-64075D01*
X85494Y-64074D01*
X85479Y-64050D01*
X85050Y-64050D01*
X85050Y-64057D01*
X84950Y-64057D01*
X84950Y-64050D01*
X84950Y-63950D01*
X84950Y-63519D01*
X84865Y-63471D01*
X84673Y-63563D01*
X84555Y-63694D01*
X84555Y-51250D01*
X84514Y-51041D01*
X84396Y-50864D01*
X84224Y-50750D01*
X84396Y-50635D01*
X84514Y-50458D01*
X84555Y-50250D01*
X84514Y-50041D01*
X84396Y-49864D01*
X84219Y-49746D01*
X84010Y-49705D01*
X83989Y-49705D01*
X83780Y-49746D01*
X83603Y-49864D01*
X83485Y-50041D01*
X83444Y-50250D01*
X83485Y-50458D01*
X83603Y-50635D01*
X83775Y-50750D01*
X83603Y-50864D01*
X83485Y-51041D01*
X83444Y-51250D01*
X83485Y-51458D01*
X83603Y-51635D01*
X83780Y-51753D01*
X83989Y-51795D01*
X84010Y-51795D01*
X84219Y-51753D01*
X84396Y-51635D01*
X84514Y-51458D01*
X84555Y-51250D01*
X84555Y-63694D01*
X84531Y-63721D01*
X84471Y-63865D01*
X84520Y-63950D01*
X84950Y-63950D01*
X84950Y-64050D01*
X84520Y-64050D01*
X84471Y-64134D01*
X84499Y-64200D01*
X83953Y-64200D01*
X83896Y-64114D01*
X83724Y-64000D01*
X83896Y-63885D01*
X84014Y-63708D01*
X84055Y-63500D01*
X84014Y-63291D01*
X83896Y-63114D01*
X83719Y-62996D01*
X83706Y-62993D01*
X83826Y-62936D01*
X83968Y-62778D01*
X84028Y-62634D01*
X84028Y-62365D01*
X83968Y-62221D01*
X83826Y-62063D01*
X83795Y-62048D01*
X83795Y-56260D01*
X83795Y-56239D01*
X83795Y-52260D01*
X83795Y-52239D01*
X83753Y-52030D01*
X83635Y-51853D01*
X83458Y-51735D01*
X83250Y-51694D01*
X83041Y-51735D01*
X82864Y-51853D01*
X82746Y-52030D01*
X82705Y-52239D01*
X82705Y-52260D01*
X82746Y-52469D01*
X82864Y-52646D01*
X83041Y-52764D01*
X83250Y-52805D01*
X83458Y-52764D01*
X83635Y-52646D01*
X83753Y-52469D01*
X83795Y-52260D01*
X83795Y-56239D01*
X83753Y-56030D01*
X83635Y-55853D01*
X83458Y-55735D01*
X83250Y-55694D01*
X83041Y-55735D01*
X82864Y-55853D01*
X82746Y-56030D01*
X82705Y-56239D01*
X82705Y-56260D01*
X82746Y-56469D01*
X82864Y-56646D01*
X83041Y-56764D01*
X83250Y-56805D01*
X83458Y-56764D01*
X83635Y-56646D01*
X83753Y-56469D01*
X83795Y-56260D01*
X83795Y-62048D01*
X83634Y-61971D01*
X83550Y-62019D01*
X83550Y-62450D01*
X83979Y-62450D01*
X84028Y-62365D01*
X84028Y-62634D01*
X83979Y-62550D01*
X83550Y-62550D01*
X83550Y-62557D01*
X83450Y-62557D01*
X83450Y-62550D01*
X83450Y-62450D01*
X83450Y-62019D01*
X83365Y-61971D01*
X83173Y-62063D01*
X83031Y-62221D01*
X82971Y-62365D01*
X83020Y-62450D01*
X83450Y-62450D01*
X83450Y-62550D01*
X83020Y-62550D01*
X82971Y-62634D01*
X83031Y-62778D01*
X83173Y-62936D01*
X83293Y-62993D01*
X83280Y-62996D01*
X83103Y-63114D01*
X82985Y-63291D01*
X82944Y-63500D01*
X82985Y-63708D01*
X83103Y-63885D01*
X83275Y-64000D01*
X83103Y-64114D01*
X82985Y-64291D01*
X82944Y-64500D01*
X82985Y-64708D01*
X83103Y-64885D01*
X83280Y-65003D01*
X83489Y-65045D01*
X83510Y-65045D01*
X83719Y-65003D01*
X83896Y-64885D01*
X83953Y-64800D01*
X84499Y-64800D01*
X84471Y-64865D01*
X84520Y-64950D01*
X84950Y-64950D01*
X84950Y-64942D01*
X85050Y-64942D01*
X85050Y-64950D01*
X85479Y-64950D01*
X85494Y-64924D01*
X85584Y-64925D01*
X85740Y-64860D01*
X85860Y-64741D01*
X85924Y-64584D01*
X85925Y-64415D01*
X85925Y-67404D01*
X85882Y-67404D01*
X85663Y-67495D01*
X85528Y-67630D01*
X85528Y-65134D01*
X85479Y-65050D01*
X85050Y-65050D01*
X85050Y-65480D01*
X85134Y-65528D01*
X85326Y-65436D01*
X85468Y-65278D01*
X85528Y-65134D01*
X85528Y-67630D01*
X85499Y-67658D01*
X85337Y-67495D01*
X85118Y-67405D01*
X84950Y-67404D01*
X84950Y-65480D01*
X84950Y-65050D01*
X84520Y-65050D01*
X84471Y-65134D01*
X84531Y-65278D01*
X84673Y-65436D01*
X84865Y-65528D01*
X84950Y-65480D01*
X84950Y-67404D01*
X84925Y-67404D01*
X84925Y-66415D01*
X84860Y-66259D01*
X84741Y-66139D01*
X84584Y-66075D01*
X84415Y-66074D01*
X84259Y-66139D01*
X84198Y-66200D01*
X83801Y-66200D01*
X83741Y-66139D01*
X83584Y-66075D01*
X83415Y-66074D01*
X83259Y-66139D01*
X83139Y-66258D01*
X83075Y-66415D01*
X83074Y-66584D01*
X83139Y-66740D01*
X83258Y-66860D01*
X83415Y-66924D01*
X83584Y-66925D01*
X83740Y-66860D01*
X83801Y-66800D01*
X84198Y-66800D01*
X84258Y-66860D01*
X84415Y-66924D01*
X84584Y-66925D01*
X84740Y-66860D01*
X84860Y-66741D01*
X84924Y-66584D01*
X84925Y-66415D01*
X84925Y-67404D01*
X84882Y-67404D01*
X84663Y-67495D01*
X84499Y-67658D01*
X84337Y-67495D01*
X84118Y-67405D01*
X83882Y-67404D01*
X83663Y-67495D01*
X83499Y-67658D01*
X83337Y-67495D01*
X83118Y-67405D01*
X82882Y-67404D01*
X82675Y-67490D01*
X82675Y-66415D01*
X82610Y-66259D01*
X82545Y-66193D01*
X82545Y-58513D01*
X82545Y-58191D01*
X82545Y-55808D01*
X82545Y-55486D01*
X82503Y-55277D01*
X82385Y-55101D01*
X82208Y-54982D01*
X82000Y-54941D01*
X81791Y-54982D01*
X81614Y-55101D01*
X81500Y-55272D01*
X81385Y-55101D01*
X81264Y-55020D01*
X81344Y-55020D01*
X81436Y-54982D01*
X81506Y-54911D01*
X81544Y-54819D01*
X81545Y-54720D01*
X81545Y-54080D01*
X81545Y-53669D01*
X81545Y-52930D01*
X81507Y-52838D01*
X81436Y-52768D01*
X81344Y-52730D01*
X81245Y-52729D01*
X81112Y-52730D01*
X81050Y-52792D01*
X81050Y-53250D01*
X81482Y-53250D01*
X81545Y-53187D01*
X81545Y-52930D01*
X81545Y-53669D01*
X81545Y-53412D01*
X81482Y-53350D01*
X81050Y-53350D01*
X81050Y-53807D01*
X81112Y-53870D01*
X81245Y-53870D01*
X81344Y-53869D01*
X81436Y-53831D01*
X81507Y-53761D01*
X81545Y-53669D01*
X81545Y-54080D01*
X81507Y-53988D01*
X81436Y-53918D01*
X81344Y-53880D01*
X81245Y-53879D01*
X80950Y-53879D01*
X80950Y-53807D01*
X80950Y-53350D01*
X80950Y-53250D01*
X80950Y-52792D01*
X80887Y-52730D01*
X80754Y-52729D01*
X80655Y-52730D01*
X80563Y-52768D01*
X80555Y-52775D01*
X80555Y-50250D01*
X80514Y-50041D01*
X80396Y-49864D01*
X80219Y-49746D01*
X80010Y-49705D01*
X79989Y-49705D01*
X79780Y-49746D01*
X79603Y-49864D01*
X79520Y-49990D01*
X79520Y-49905D01*
X79482Y-49813D01*
X79411Y-49743D01*
X79319Y-49705D01*
X79220Y-49704D01*
X78580Y-49704D01*
X78488Y-49742D01*
X78418Y-49813D01*
X78380Y-49905D01*
X78379Y-50004D01*
X78379Y-50594D01*
X78417Y-50686D01*
X78488Y-50756D01*
X78580Y-50794D01*
X78679Y-50795D01*
X79319Y-50795D01*
X79411Y-50757D01*
X79481Y-50686D01*
X79519Y-50594D01*
X79520Y-50509D01*
X79603Y-50635D01*
X79780Y-50753D01*
X79793Y-50756D01*
X79673Y-50813D01*
X79531Y-50971D01*
X79471Y-51115D01*
X79520Y-51200D01*
X79950Y-51200D01*
X79950Y-51192D01*
X80050Y-51192D01*
X80050Y-51200D01*
X80479Y-51200D01*
X80528Y-51115D01*
X80468Y-50971D01*
X80326Y-50813D01*
X80206Y-50756D01*
X80219Y-50753D01*
X80396Y-50635D01*
X80514Y-50458D01*
X80555Y-50250D01*
X80555Y-52775D01*
X80528Y-52803D01*
X80528Y-51384D01*
X80479Y-51300D01*
X80050Y-51300D01*
X80050Y-51730D01*
X80134Y-51778D01*
X80326Y-51686D01*
X80468Y-51528D01*
X80528Y-51384D01*
X80528Y-52803D01*
X80492Y-52838D01*
X80454Y-52930D01*
X80455Y-53187D01*
X80517Y-53250D01*
X80950Y-53250D01*
X80950Y-53350D01*
X80517Y-53350D01*
X80455Y-53412D01*
X80454Y-53669D01*
X80492Y-53761D01*
X80563Y-53831D01*
X80655Y-53869D01*
X80754Y-53870D01*
X80887Y-53870D01*
X80950Y-53807D01*
X80950Y-53879D01*
X80655Y-53879D01*
X80563Y-53917D01*
X80493Y-53988D01*
X80455Y-54080D01*
X80454Y-54179D01*
X80454Y-54819D01*
X80492Y-54911D01*
X80563Y-54981D01*
X80655Y-55019D01*
X80735Y-55020D01*
X80614Y-55101D01*
X80500Y-55272D01*
X80385Y-55101D01*
X80208Y-54982D01*
X80000Y-54941D01*
X79950Y-54951D01*
X79950Y-51730D01*
X79950Y-51300D01*
X79520Y-51300D01*
X79471Y-51384D01*
X79531Y-51528D01*
X79673Y-51686D01*
X79865Y-51778D01*
X79950Y-51730D01*
X79950Y-54951D01*
X79791Y-54982D01*
X79614Y-55101D01*
X79496Y-55277D01*
X79495Y-55282D01*
X79484Y-55245D01*
X79350Y-55079D01*
X79162Y-54977D01*
X79134Y-54971D01*
X79055Y-55016D01*
X79055Y-53500D01*
X79014Y-53291D01*
X78896Y-53114D01*
X78724Y-53000D01*
X78896Y-52885D01*
X79014Y-52708D01*
X79055Y-52500D01*
X79014Y-52291D01*
X78896Y-52114D01*
X78719Y-51996D01*
X78510Y-51955D01*
X78489Y-51955D01*
X78370Y-51978D01*
X78370Y-50495D01*
X78370Y-50004D01*
X78369Y-49905D01*
X78331Y-49813D01*
X78261Y-49742D01*
X78169Y-49704D01*
X77912Y-49705D01*
X77850Y-49767D01*
X77850Y-50200D01*
X78307Y-50200D01*
X78370Y-50137D01*
X78370Y-50004D01*
X78370Y-50495D01*
X78370Y-50362D01*
X78307Y-50300D01*
X77850Y-50300D01*
X77850Y-50732D01*
X77912Y-50795D01*
X78169Y-50795D01*
X78261Y-50757D01*
X78331Y-50686D01*
X78369Y-50594D01*
X78370Y-50495D01*
X78370Y-51978D01*
X78280Y-51996D01*
X78103Y-52114D01*
X77985Y-52291D01*
X77944Y-52500D01*
X77985Y-52708D01*
X78103Y-52885D01*
X78275Y-53000D01*
X78103Y-53114D01*
X77985Y-53291D01*
X77944Y-53500D01*
X77985Y-53708D01*
X78103Y-53885D01*
X78280Y-54003D01*
X78489Y-54045D01*
X78510Y-54045D01*
X78719Y-54003D01*
X78896Y-53885D01*
X79014Y-53708D01*
X79055Y-53500D01*
X79055Y-55016D01*
X79050Y-55020D01*
X79050Y-55597D01*
X79057Y-55597D01*
X79057Y-55697D01*
X79050Y-55697D01*
X79050Y-56274D01*
X79134Y-56323D01*
X79162Y-56317D01*
X79350Y-56215D01*
X79484Y-56049D01*
X79495Y-56012D01*
X79496Y-56017D01*
X79614Y-56193D01*
X79791Y-56312D01*
X80000Y-56353D01*
X80208Y-56312D01*
X80385Y-56193D01*
X80500Y-56022D01*
X80614Y-56193D01*
X80791Y-56312D01*
X81000Y-56353D01*
X81208Y-56312D01*
X81385Y-56193D01*
X81500Y-56022D01*
X81614Y-56193D01*
X81791Y-56312D01*
X82000Y-56353D01*
X82208Y-56312D01*
X82385Y-56193D01*
X82503Y-56017D01*
X82545Y-55808D01*
X82545Y-58191D01*
X82503Y-57982D01*
X82385Y-57806D01*
X82208Y-57687D01*
X82000Y-57646D01*
X81791Y-57687D01*
X81614Y-57806D01*
X81500Y-57977D01*
X81385Y-57806D01*
X81208Y-57687D01*
X81000Y-57646D01*
X80791Y-57687D01*
X80614Y-57806D01*
X80500Y-57977D01*
X80385Y-57806D01*
X80208Y-57687D01*
X80000Y-57646D01*
X79791Y-57687D01*
X79614Y-57806D01*
X79500Y-57977D01*
X79385Y-57806D01*
X79208Y-57687D01*
X79000Y-57646D01*
X78950Y-57656D01*
X78950Y-56274D01*
X78950Y-55697D01*
X78942Y-55697D01*
X78942Y-55597D01*
X78950Y-55597D01*
X78950Y-55020D01*
X78865Y-54971D01*
X78837Y-54977D01*
X78649Y-55079D01*
X78515Y-55245D01*
X78504Y-55282D01*
X78503Y-55277D01*
X78385Y-55101D01*
X78208Y-54982D01*
X78000Y-54941D01*
X77791Y-54982D01*
X77750Y-55010D01*
X77750Y-50732D01*
X77750Y-50300D01*
X77750Y-50200D01*
X77750Y-49767D01*
X77687Y-49705D01*
X77430Y-49704D01*
X77338Y-49742D01*
X77268Y-49813D01*
X77230Y-49905D01*
X77229Y-50004D01*
X77230Y-50137D01*
X77292Y-50200D01*
X77750Y-50200D01*
X77750Y-50300D01*
X77292Y-50300D01*
X77230Y-50362D01*
X77229Y-50495D01*
X77230Y-50594D01*
X77268Y-50686D01*
X77338Y-50757D01*
X77430Y-50795D01*
X77687Y-50795D01*
X77750Y-50732D01*
X77750Y-55010D01*
X77614Y-55101D01*
X77500Y-55272D01*
X77385Y-55101D01*
X77208Y-54982D01*
X77000Y-54941D01*
X76791Y-54982D01*
X76614Y-55101D01*
X76500Y-55272D01*
X76385Y-55101D01*
X76208Y-54982D01*
X76000Y-54941D01*
X75791Y-54982D01*
X75614Y-55101D01*
X75496Y-55277D01*
X75455Y-55486D01*
X75455Y-55808D01*
X75496Y-56017D01*
X75614Y-56193D01*
X75791Y-56312D01*
X76000Y-56353D01*
X76208Y-56312D01*
X76385Y-56193D01*
X76500Y-56022D01*
X76614Y-56193D01*
X76791Y-56312D01*
X77000Y-56353D01*
X77208Y-56312D01*
X77385Y-56193D01*
X77500Y-56022D01*
X77614Y-56193D01*
X77791Y-56312D01*
X78000Y-56353D01*
X78208Y-56312D01*
X78385Y-56193D01*
X78503Y-56017D01*
X78504Y-56012D01*
X78515Y-56049D01*
X78649Y-56215D01*
X78837Y-56317D01*
X78865Y-56323D01*
X78950Y-56274D01*
X78950Y-57656D01*
X78791Y-57687D01*
X78614Y-57806D01*
X78500Y-57977D01*
X78385Y-57806D01*
X78208Y-57687D01*
X78000Y-57646D01*
X77791Y-57687D01*
X77614Y-57806D01*
X77500Y-57977D01*
X77385Y-57806D01*
X77208Y-57687D01*
X77000Y-57646D01*
X76791Y-57687D01*
X76614Y-57806D01*
X76545Y-57910D01*
X76545Y-57860D01*
X76507Y-57768D01*
X76436Y-57698D01*
X76344Y-57660D01*
X76245Y-57659D01*
X75655Y-57659D01*
X75563Y-57697D01*
X75493Y-57768D01*
X75455Y-57860D01*
X75454Y-57959D01*
X75454Y-58844D01*
X75492Y-58936D01*
X75563Y-59006D01*
X75655Y-59044D01*
X75754Y-59045D01*
X76344Y-59045D01*
X76436Y-59007D01*
X76506Y-58936D01*
X76544Y-58844D01*
X76545Y-58794D01*
X76614Y-58898D01*
X76735Y-58979D01*
X76655Y-58979D01*
X76563Y-59017D01*
X76493Y-59088D01*
X76455Y-59180D01*
X76454Y-59279D01*
X76454Y-59919D01*
X76492Y-60011D01*
X76563Y-60081D01*
X76655Y-60119D01*
X76754Y-60120D01*
X77344Y-60120D01*
X77436Y-60082D01*
X77500Y-60018D01*
X77563Y-60081D01*
X77655Y-60119D01*
X77754Y-60120D01*
X78344Y-60120D01*
X78436Y-60082D01*
X78500Y-60018D01*
X78563Y-60081D01*
X78655Y-60119D01*
X78754Y-60120D01*
X79344Y-60120D01*
X79436Y-60082D01*
X79500Y-60018D01*
X79563Y-60081D01*
X79655Y-60119D01*
X79754Y-60120D01*
X80344Y-60120D01*
X80436Y-60082D01*
X80500Y-60018D01*
X80563Y-60081D01*
X80655Y-60119D01*
X80754Y-60120D01*
X81344Y-60120D01*
X81436Y-60082D01*
X81506Y-60011D01*
X81544Y-59919D01*
X81545Y-59820D01*
X81545Y-59180D01*
X81507Y-59088D01*
X81436Y-59018D01*
X81344Y-58980D01*
X81264Y-58979D01*
X81385Y-58898D01*
X81500Y-58727D01*
X81614Y-58898D01*
X81791Y-59017D01*
X82000Y-59058D01*
X82208Y-59017D01*
X82385Y-58898D01*
X82503Y-58722D01*
X82545Y-58513D01*
X82545Y-66193D01*
X82491Y-66139D01*
X82334Y-66075D01*
X82249Y-66074D01*
X81924Y-65750D01*
X81925Y-65665D01*
X81860Y-65509D01*
X81741Y-65389D01*
X81584Y-65325D01*
X81545Y-65325D01*
X81545Y-61069D01*
X81545Y-60330D01*
X81507Y-60238D01*
X81436Y-60168D01*
X81344Y-60130D01*
X81245Y-60129D01*
X81112Y-60130D01*
X81050Y-60192D01*
X81050Y-60650D01*
X81482Y-60650D01*
X81545Y-60587D01*
X81545Y-60330D01*
X81545Y-61069D01*
X81545Y-60812D01*
X81482Y-60750D01*
X81050Y-60750D01*
X81050Y-61207D01*
X81112Y-61270D01*
X81245Y-61270D01*
X81344Y-61269D01*
X81436Y-61231D01*
X81507Y-61161D01*
X81545Y-61069D01*
X81545Y-65325D01*
X81415Y-65324D01*
X81259Y-65389D01*
X81139Y-65508D01*
X81075Y-65665D01*
X81074Y-65834D01*
X81139Y-65990D01*
X81258Y-66110D01*
X81415Y-66174D01*
X81500Y-66175D01*
X81825Y-66499D01*
X81824Y-66584D01*
X81889Y-66740D01*
X82008Y-66860D01*
X82165Y-66924D01*
X82334Y-66925D01*
X82490Y-66860D01*
X82610Y-66741D01*
X82674Y-66584D01*
X82675Y-66415D01*
X82675Y-67490D01*
X82663Y-67495D01*
X82582Y-67575D01*
X82557Y-67513D01*
X82486Y-67443D01*
X82394Y-67405D01*
X82295Y-67404D01*
X81605Y-67404D01*
X81513Y-67442D01*
X81443Y-67513D01*
X81405Y-67605D01*
X81404Y-67704D01*
X81404Y-67950D01*
X80950Y-67950D01*
X80950Y-61207D01*
X80950Y-60750D01*
X80950Y-60650D01*
X80950Y-60192D01*
X80887Y-60130D01*
X80754Y-60129D01*
X80655Y-60130D01*
X80563Y-60168D01*
X80500Y-60231D01*
X80436Y-60168D01*
X80344Y-60130D01*
X80245Y-60129D01*
X80112Y-60130D01*
X80050Y-60192D01*
X80050Y-60650D01*
X80482Y-60650D01*
X80500Y-60632D01*
X80517Y-60650D01*
X80950Y-60650D01*
X80950Y-60750D01*
X80517Y-60750D01*
X80500Y-60767D01*
X80482Y-60750D01*
X80050Y-60750D01*
X80050Y-61207D01*
X80112Y-61270D01*
X80245Y-61270D01*
X80344Y-61269D01*
X80436Y-61231D01*
X80500Y-61168D01*
X80563Y-61231D01*
X80655Y-61269D01*
X80754Y-61270D01*
X80887Y-61270D01*
X80950Y-61207D01*
X80950Y-67950D01*
X80595Y-67950D01*
X80595Y-67882D01*
X80504Y-67663D01*
X80337Y-67495D01*
X80118Y-67405D01*
X80055Y-67405D01*
X80055Y-64500D01*
X80014Y-64291D01*
X79896Y-64114D01*
X79724Y-64000D01*
X79896Y-63885D01*
X80014Y-63708D01*
X80055Y-63500D01*
X80014Y-63291D01*
X79896Y-63114D01*
X79724Y-63000D01*
X79896Y-62885D01*
X80014Y-62708D01*
X80055Y-62500D01*
X80014Y-62291D01*
X79950Y-62195D01*
X79950Y-61207D01*
X79950Y-60750D01*
X79950Y-60650D01*
X79950Y-60192D01*
X79887Y-60130D01*
X79754Y-60129D01*
X79655Y-60130D01*
X79563Y-60168D01*
X79500Y-60231D01*
X79436Y-60168D01*
X79344Y-60130D01*
X79245Y-60129D01*
X79112Y-60130D01*
X79050Y-60192D01*
X79050Y-60650D01*
X79482Y-60650D01*
X79500Y-60632D01*
X79517Y-60650D01*
X79950Y-60650D01*
X79950Y-60750D01*
X79517Y-60750D01*
X79500Y-60767D01*
X79482Y-60750D01*
X79050Y-60750D01*
X79050Y-61207D01*
X79112Y-61270D01*
X79245Y-61270D01*
X79344Y-61269D01*
X79436Y-61231D01*
X79500Y-61168D01*
X79563Y-61231D01*
X79655Y-61269D01*
X79754Y-61270D01*
X79887Y-61270D01*
X79950Y-61207D01*
X79950Y-62195D01*
X79896Y-62114D01*
X79719Y-61996D01*
X79510Y-61955D01*
X79489Y-61955D01*
X79280Y-61996D01*
X79103Y-62114D01*
X78985Y-62291D01*
X78950Y-62471D01*
X78950Y-61207D01*
X78950Y-60750D01*
X78950Y-60650D01*
X78950Y-60192D01*
X78887Y-60130D01*
X78754Y-60129D01*
X78655Y-60130D01*
X78563Y-60168D01*
X78500Y-60231D01*
X78436Y-60168D01*
X78344Y-60130D01*
X78245Y-60129D01*
X78112Y-60130D01*
X78050Y-60192D01*
X78050Y-60650D01*
X78482Y-60650D01*
X78500Y-60632D01*
X78517Y-60650D01*
X78950Y-60650D01*
X78950Y-60750D01*
X78517Y-60750D01*
X78500Y-60767D01*
X78482Y-60750D01*
X78050Y-60750D01*
X78050Y-61207D01*
X78112Y-61270D01*
X78245Y-61270D01*
X78344Y-61269D01*
X78436Y-61231D01*
X78500Y-61168D01*
X78563Y-61231D01*
X78655Y-61269D01*
X78754Y-61270D01*
X78887Y-61270D01*
X78950Y-61207D01*
X78950Y-62471D01*
X78944Y-62500D01*
X78985Y-62708D01*
X79103Y-62885D01*
X79275Y-63000D01*
X79103Y-63114D01*
X78985Y-63291D01*
X78944Y-63500D01*
X78985Y-63708D01*
X79103Y-63885D01*
X79275Y-64000D01*
X79103Y-64114D01*
X78985Y-64291D01*
X78944Y-64500D01*
X78985Y-64708D01*
X79103Y-64885D01*
X79280Y-65003D01*
X79489Y-65045D01*
X79510Y-65045D01*
X79719Y-65003D01*
X79896Y-64885D01*
X80014Y-64708D01*
X80055Y-64500D01*
X80055Y-67405D01*
X79882Y-67404D01*
X79663Y-67495D01*
X79495Y-67662D01*
X79490Y-67675D01*
X79418Y-67652D01*
X79347Y-67722D01*
X79347Y-67581D01*
X79314Y-67481D01*
X79092Y-67400D01*
X78856Y-67410D01*
X78685Y-67481D01*
X78652Y-67581D01*
X79000Y-67929D01*
X79347Y-67581D01*
X79347Y-67722D01*
X79120Y-67950D01*
X78879Y-67950D01*
X78581Y-67652D01*
X78555Y-67660D01*
X78555Y-64500D01*
X78514Y-64291D01*
X78396Y-64114D01*
X78224Y-64000D01*
X78396Y-63885D01*
X78514Y-63708D01*
X78555Y-63500D01*
X78514Y-63291D01*
X78396Y-63114D01*
X78224Y-63000D01*
X78396Y-62885D01*
X78514Y-62708D01*
X78555Y-62500D01*
X78514Y-62291D01*
X78396Y-62114D01*
X78219Y-61996D01*
X78010Y-61955D01*
X77989Y-61955D01*
X77950Y-61962D01*
X77950Y-61207D01*
X77950Y-60750D01*
X77950Y-60650D01*
X77950Y-60192D01*
X77887Y-60130D01*
X77754Y-60129D01*
X77655Y-60130D01*
X77563Y-60168D01*
X77500Y-60231D01*
X77436Y-60168D01*
X77344Y-60130D01*
X77245Y-60129D01*
X77112Y-60130D01*
X77050Y-60192D01*
X77050Y-60650D01*
X77482Y-60650D01*
X77500Y-60632D01*
X77517Y-60650D01*
X77950Y-60650D01*
X77950Y-60750D01*
X77517Y-60750D01*
X77500Y-60767D01*
X77482Y-60750D01*
X77050Y-60750D01*
X77050Y-61207D01*
X77112Y-61270D01*
X77245Y-61270D01*
X77344Y-61269D01*
X77436Y-61231D01*
X77500Y-61168D01*
X77563Y-61231D01*
X77655Y-61269D01*
X77754Y-61270D01*
X77887Y-61270D01*
X77950Y-61207D01*
X77950Y-61962D01*
X77780Y-61996D01*
X77603Y-62114D01*
X77485Y-62291D01*
X77444Y-62500D01*
X77485Y-62708D01*
X77603Y-62885D01*
X77775Y-63000D01*
X77603Y-63114D01*
X77485Y-63291D01*
X77444Y-63500D01*
X77485Y-63708D01*
X77603Y-63885D01*
X77775Y-64000D01*
X77603Y-64114D01*
X77485Y-64291D01*
X77444Y-64500D01*
X77485Y-64708D01*
X77603Y-64885D01*
X77780Y-65003D01*
X77989Y-65045D01*
X78010Y-65045D01*
X78219Y-65003D01*
X78396Y-64885D01*
X78514Y-64708D01*
X78555Y-64500D01*
X78555Y-67660D01*
X78500Y-67678D01*
X78418Y-67652D01*
X78347Y-67722D01*
X78347Y-67581D01*
X78314Y-67481D01*
X78092Y-67400D01*
X77856Y-67410D01*
X77685Y-67481D01*
X77652Y-67581D01*
X78000Y-67929D01*
X78347Y-67581D01*
X78347Y-67722D01*
X78120Y-67950D01*
X77879Y-67950D01*
X77581Y-67652D01*
X77509Y-67675D01*
X77504Y-67663D01*
X77337Y-67495D01*
X77118Y-67405D01*
X76950Y-67404D01*
X76950Y-61207D01*
X76950Y-60750D01*
X76950Y-60650D01*
X76950Y-60192D01*
X76887Y-60130D01*
X76754Y-60129D01*
X76655Y-60130D01*
X76563Y-60168D01*
X76492Y-60238D01*
X76454Y-60330D01*
X76455Y-60587D01*
X76517Y-60650D01*
X76950Y-60650D01*
X76950Y-60750D01*
X76517Y-60750D01*
X76455Y-60812D01*
X76454Y-61069D01*
X76492Y-61161D01*
X76563Y-61231D01*
X76655Y-61269D01*
X76754Y-61270D01*
X76887Y-61270D01*
X76950Y-61207D01*
X76950Y-67404D01*
X76882Y-67404D01*
X76663Y-67495D01*
X76499Y-67658D01*
X76337Y-67495D01*
X76175Y-67428D01*
X76175Y-64415D01*
X76110Y-64259D01*
X75991Y-64139D01*
X75834Y-64075D01*
X75665Y-64074D01*
X75509Y-64139D01*
X75499Y-64150D01*
X75055Y-64150D01*
X75055Y-52500D01*
X75014Y-52291D01*
X74896Y-52114D01*
X74719Y-51996D01*
X74510Y-51955D01*
X74489Y-51955D01*
X74280Y-51996D01*
X74103Y-52114D01*
X73985Y-52291D01*
X73944Y-52500D01*
X73985Y-52708D01*
X74103Y-52885D01*
X74280Y-53003D01*
X74293Y-53006D01*
X74173Y-53063D01*
X74031Y-53221D01*
X73971Y-53365D01*
X74020Y-53450D01*
X74450Y-53450D01*
X74450Y-53442D01*
X74550Y-53442D01*
X74550Y-53450D01*
X74979Y-53450D01*
X75028Y-53365D01*
X74968Y-53221D01*
X74826Y-53063D01*
X74706Y-53006D01*
X74719Y-53003D01*
X74896Y-52885D01*
X75014Y-52708D01*
X75055Y-52500D01*
X75055Y-64150D01*
X75028Y-64150D01*
X75028Y-53634D01*
X74979Y-53550D01*
X74550Y-53550D01*
X74550Y-53980D01*
X74634Y-54028D01*
X74826Y-53936D01*
X74968Y-53778D01*
X75028Y-53634D01*
X75028Y-64150D01*
X74419Y-64150D01*
X74396Y-64114D01*
X74224Y-64000D01*
X74396Y-63885D01*
X74514Y-63708D01*
X74555Y-63500D01*
X74514Y-63291D01*
X74396Y-63114D01*
X74219Y-62996D01*
X74206Y-62993D01*
X74326Y-62936D01*
X74468Y-62778D01*
X74528Y-62634D01*
X74528Y-62365D01*
X74468Y-62221D01*
X74450Y-62200D01*
X74450Y-53980D01*
X74450Y-53550D01*
X74020Y-53550D01*
X73971Y-53634D01*
X74031Y-53778D01*
X74173Y-53936D01*
X74365Y-54028D01*
X74450Y-53980D01*
X74450Y-62200D01*
X74326Y-62063D01*
X74134Y-61971D01*
X74050Y-62019D01*
X74050Y-62450D01*
X74479Y-62450D01*
X74528Y-62365D01*
X74528Y-62634D01*
X74479Y-62550D01*
X74050Y-62550D01*
X74050Y-62557D01*
X73950Y-62557D01*
X73950Y-62550D01*
X73950Y-62450D01*
X73950Y-62019D01*
X73865Y-61971D01*
X73805Y-62000D01*
X73805Y-52000D01*
X73764Y-51791D01*
X73646Y-51614D01*
X73469Y-51496D01*
X73260Y-51455D01*
X73239Y-51455D01*
X73030Y-51496D01*
X73020Y-51503D01*
X73020Y-50495D01*
X73020Y-49905D01*
X72982Y-49813D01*
X72911Y-49743D01*
X72819Y-49705D01*
X72720Y-49704D01*
X72080Y-49704D01*
X71988Y-49742D01*
X71918Y-49813D01*
X71880Y-49905D01*
X71879Y-50004D01*
X71879Y-50594D01*
X71917Y-50686D01*
X71988Y-50756D01*
X72080Y-50794D01*
X72179Y-50795D01*
X72819Y-50795D01*
X72911Y-50757D01*
X72981Y-50686D01*
X73019Y-50594D01*
X73020Y-50495D01*
X73020Y-51503D01*
X72853Y-51614D01*
X72735Y-51791D01*
X72694Y-52000D01*
X72735Y-52208D01*
X72853Y-52385D01*
X73030Y-52503D01*
X73239Y-52545D01*
X73260Y-52545D01*
X73469Y-52503D01*
X73646Y-52385D01*
X73764Y-52208D01*
X73805Y-52000D01*
X73805Y-62000D01*
X73673Y-62063D01*
X73531Y-62221D01*
X73471Y-62365D01*
X73520Y-62450D01*
X73950Y-62450D01*
X73950Y-62550D01*
X73520Y-62550D01*
X73471Y-62634D01*
X73531Y-62778D01*
X73673Y-62936D01*
X73793Y-62993D01*
X73780Y-62996D01*
X73603Y-63114D01*
X73485Y-63291D01*
X73444Y-63500D01*
X73485Y-63708D01*
X73603Y-63885D01*
X73775Y-64000D01*
X73603Y-64114D01*
X73485Y-64291D01*
X73444Y-64500D01*
X73485Y-64708D01*
X73603Y-64885D01*
X73780Y-65003D01*
X73989Y-65045D01*
X74010Y-65045D01*
X74219Y-65003D01*
X74396Y-64885D01*
X74419Y-64850D01*
X75498Y-64850D01*
X75508Y-64860D01*
X75665Y-64924D01*
X75834Y-64925D01*
X75990Y-64860D01*
X76110Y-64741D01*
X76174Y-64584D01*
X76175Y-64415D01*
X76175Y-67428D01*
X76118Y-67405D01*
X75882Y-67404D01*
X75663Y-67495D01*
X75499Y-67658D01*
X75337Y-67495D01*
X75118Y-67405D01*
X74882Y-67404D01*
X74663Y-67495D01*
X74499Y-67658D01*
X74337Y-67495D01*
X74118Y-67405D01*
X73882Y-67404D01*
X73663Y-67495D01*
X73582Y-67575D01*
X73557Y-67513D01*
X73486Y-67443D01*
X73394Y-67405D01*
X73295Y-67404D01*
X72605Y-67404D01*
X72513Y-67442D01*
X72443Y-67513D01*
X72405Y-67605D01*
X72404Y-67704D01*
X72404Y-67950D01*
X71870Y-67950D01*
X71870Y-50495D01*
X71870Y-49905D01*
X71832Y-49813D01*
X71761Y-49743D01*
X71669Y-49705D01*
X71570Y-49704D01*
X70930Y-49704D01*
X70838Y-49742D01*
X70768Y-49813D01*
X70730Y-49905D01*
X70729Y-50004D01*
X70729Y-50594D01*
X70767Y-50686D01*
X70838Y-50756D01*
X70930Y-50794D01*
X71029Y-50795D01*
X71669Y-50795D01*
X71761Y-50757D01*
X71831Y-50686D01*
X71869Y-50594D01*
X71870Y-50495D01*
X71870Y-67950D01*
X71795Y-67950D01*
X71795Y-57760D01*
X71795Y-57739D01*
X71795Y-53760D01*
X71795Y-53739D01*
X71753Y-53530D01*
X71635Y-53353D01*
X71458Y-53235D01*
X71250Y-53194D01*
X71041Y-53235D01*
X70864Y-53353D01*
X70795Y-53458D01*
X70795Y-52245D01*
X70795Y-51655D01*
X70757Y-51563D01*
X70686Y-51493D01*
X70594Y-51455D01*
X70495Y-51454D01*
X69905Y-51454D01*
X69813Y-51492D01*
X69743Y-51563D01*
X69705Y-51655D01*
X69704Y-51754D01*
X69704Y-52344D01*
X69742Y-52436D01*
X69813Y-52506D01*
X69905Y-52544D01*
X70004Y-52545D01*
X70594Y-52545D01*
X70686Y-52507D01*
X70756Y-52436D01*
X70794Y-52344D01*
X70795Y-52245D01*
X70795Y-53458D01*
X70750Y-53525D01*
X70635Y-53353D01*
X70458Y-53235D01*
X70250Y-53194D01*
X70041Y-53235D01*
X69864Y-53353D01*
X69746Y-53530D01*
X69705Y-53739D01*
X69705Y-53760D01*
X69746Y-53969D01*
X69864Y-54146D01*
X70041Y-54264D01*
X70250Y-54305D01*
X70458Y-54264D01*
X70635Y-54146D01*
X70750Y-53974D01*
X70864Y-54146D01*
X71041Y-54264D01*
X71250Y-54305D01*
X71458Y-54264D01*
X71635Y-54146D01*
X71753Y-53969D01*
X71795Y-53760D01*
X71795Y-57739D01*
X71753Y-57530D01*
X71635Y-57353D01*
X71458Y-57235D01*
X71250Y-57194D01*
X71041Y-57235D01*
X70864Y-57353D01*
X70750Y-57525D01*
X70635Y-57353D01*
X70458Y-57235D01*
X70250Y-57194D01*
X70041Y-57235D01*
X69864Y-57353D01*
X69746Y-57530D01*
X69705Y-57739D01*
X69705Y-57760D01*
X69746Y-57969D01*
X69864Y-58146D01*
X70041Y-58264D01*
X70250Y-58305D01*
X70458Y-58264D01*
X70635Y-58146D01*
X70750Y-57974D01*
X70864Y-58146D01*
X71041Y-58264D01*
X71250Y-58305D01*
X71458Y-58264D01*
X71635Y-58146D01*
X71753Y-57969D01*
X71795Y-57760D01*
X71795Y-67950D01*
X69050Y-67950D01*
X69050Y-49594D01*
X69104Y-49595D01*
X69794Y-49595D01*
X69886Y-49557D01*
X69956Y-49486D01*
X69982Y-49424D01*
X70062Y-49504D01*
X70281Y-49594D01*
X70517Y-49595D01*
X70736Y-49504D01*
X70900Y-49341D01*
X71062Y-49504D01*
X71281Y-49594D01*
X71517Y-49595D01*
X71736Y-49504D01*
X71900Y-49341D01*
X72062Y-49504D01*
X72281Y-49594D01*
X72517Y-49595D01*
X72736Y-49504D01*
X72900Y-49341D01*
X73062Y-49504D01*
X73281Y-49594D01*
X73517Y-49595D01*
X73736Y-49504D01*
X73900Y-49341D01*
X74062Y-49504D01*
X74281Y-49594D01*
X74517Y-49595D01*
X74736Y-49504D01*
X74900Y-49341D01*
X75062Y-49504D01*
X75281Y-49594D01*
X75517Y-49595D01*
X75736Y-49504D01*
X75900Y-49341D01*
X76062Y-49504D01*
X76281Y-49594D01*
X76517Y-49595D01*
X76736Y-49504D01*
X76900Y-49341D01*
X77062Y-49504D01*
X77281Y-49594D01*
X77517Y-49595D01*
X77736Y-49504D01*
X77900Y-49341D01*
X78062Y-49504D01*
X78281Y-49594D01*
X78517Y-49595D01*
X78736Y-49504D01*
X78904Y-49337D01*
X78994Y-49118D01*
X78994Y-49050D01*
X79404Y-49050D01*
X79404Y-49394D01*
X79442Y-49486D01*
X79513Y-49556D01*
X79605Y-49594D01*
X79704Y-49595D01*
X80394Y-49595D01*
X80486Y-49557D01*
X80556Y-49486D01*
X80582Y-49424D01*
X80662Y-49504D01*
X80881Y-49594D01*
X81117Y-49595D01*
X81336Y-49504D01*
X81500Y-49341D01*
X81662Y-49504D01*
X81881Y-49594D01*
X82117Y-49595D01*
X82336Y-49504D01*
X82500Y-49341D01*
X82662Y-49504D01*
X82881Y-49594D01*
X83117Y-49595D01*
X83336Y-49504D01*
X83500Y-49341D01*
X83662Y-49504D01*
X83881Y-49594D01*
X84117Y-49595D01*
X84336Y-49504D01*
X84500Y-49341D01*
X84662Y-49504D01*
X84881Y-49594D01*
X85117Y-49595D01*
X85336Y-49504D01*
X85500Y-49341D01*
X85662Y-49504D01*
X85881Y-49594D01*
X86117Y-49595D01*
X86336Y-49504D01*
X86500Y-49341D01*
X86662Y-49504D01*
X86881Y-49594D01*
X87117Y-49595D01*
X87336Y-49504D01*
X87504Y-49337D01*
X87594Y-49118D01*
X87594Y-49050D01*
X90967Y-49050D01*
X90911Y-49105D01*
X90805Y-49361D01*
X90804Y-49637D01*
X90910Y-49893D01*
X91087Y-50070D01*
X90995Y-50162D01*
X90905Y-50381D01*
X90904Y-50617D01*
X90985Y-50813D01*
X90913Y-50843D01*
X90842Y-50913D01*
X90804Y-51005D01*
X90805Y-51387D01*
X90867Y-51450D01*
X91450Y-51450D01*
X91450Y-51442D01*
X91550Y-51442D01*
X91550Y-51450D01*
X92132Y-51450D01*
X92195Y-51387D01*
X92195Y-51005D01*
X92157Y-50913D01*
X92086Y-50843D01*
X92014Y-50813D01*
X92094Y-50618D01*
X92095Y-50382D01*
X92004Y-50163D01*
X91912Y-50070D01*
X92088Y-49894D01*
X92194Y-49638D01*
X92195Y-49362D01*
X92089Y-49106D01*
X92032Y-49050D01*
X92450Y-49050D01*
X92450Y-67950D01*
X92450Y-67950D01*
G37*
G54D23*
X92450Y-67950D02*
X92194Y-67950D01*
X92195Y-67895D01*
X92195Y-67005D01*
X92157Y-66913D01*
X92086Y-66843D01*
X92014Y-66813D01*
X92094Y-66618D01*
X92095Y-66382D01*
X92004Y-66163D01*
X91912Y-66070D01*
X92088Y-65894D01*
X92194Y-65638D01*
X92195Y-65362D01*
X92195Y-61362D01*
X92195Y-57362D01*
X92195Y-53362D01*
X92195Y-53362D01*
X92195Y-51994D01*
X92195Y-51612D01*
X92132Y-51550D01*
X91550Y-51550D01*
X91550Y-52132D01*
X91612Y-52195D01*
X91895Y-52195D01*
X91994Y-52194D01*
X92086Y-52156D01*
X92157Y-52086D01*
X92195Y-51994D01*
X92195Y-53362D01*
X92089Y-53106D01*
X91894Y-52911D01*
X91638Y-52805D01*
X91450Y-52804D01*
X91450Y-52132D01*
X91450Y-51550D01*
X90867Y-51550D01*
X90805Y-51612D01*
X90804Y-51994D01*
X90842Y-52086D01*
X90913Y-52156D01*
X91005Y-52194D01*
X91104Y-52195D01*
X91387Y-52195D01*
X91450Y-52132D01*
X91450Y-52804D01*
X91362Y-52804D01*
X91106Y-52910D01*
X90911Y-53105D01*
X90805Y-53361D01*
X90804Y-53637D01*
X90910Y-53893D01*
X91087Y-54070D01*
X90995Y-54162D01*
X90905Y-54381D01*
X90904Y-54617D01*
X90985Y-54813D01*
X90913Y-54842D01*
X90843Y-54913D01*
X90805Y-55005D01*
X90804Y-55104D01*
X90804Y-55994D01*
X90842Y-56086D01*
X90913Y-56156D01*
X91005Y-56194D01*
X91104Y-56195D01*
X91994Y-56195D01*
X92086Y-56157D01*
X92156Y-56086D01*
X92194Y-55994D01*
X92195Y-55895D01*
X92195Y-55005D01*
X92157Y-54913D01*
X92086Y-54843D01*
X92014Y-54813D01*
X92094Y-54618D01*
X92095Y-54382D01*
X92004Y-54163D01*
X91912Y-54070D01*
X92088Y-53894D01*
X92194Y-53638D01*
X92195Y-53362D01*
X92195Y-57362D01*
X92089Y-57106D01*
X91894Y-56911D01*
X91638Y-56805D01*
X91362Y-56804D01*
X91106Y-56910D01*
X90911Y-57105D01*
X90805Y-57361D01*
X90804Y-57637D01*
X90910Y-57893D01*
X91087Y-58070D01*
X90995Y-58162D01*
X90905Y-58381D01*
X90904Y-58617D01*
X90985Y-58813D01*
X90913Y-58843D01*
X90842Y-58913D01*
X90804Y-59005D01*
X90805Y-59387D01*
X90867Y-59450D01*
X91450Y-59450D01*
X91450Y-59442D01*
X91550Y-59442D01*
X91550Y-59450D01*
X92132Y-59450D01*
X92195Y-59387D01*
X92195Y-59005D01*
X92157Y-58913D01*
X92086Y-58843D01*
X92014Y-58813D01*
X92094Y-58618D01*
X92095Y-58382D01*
X92004Y-58163D01*
X91912Y-58070D01*
X92088Y-57894D01*
X92194Y-57638D01*
X92195Y-57362D01*
X92195Y-61362D01*
X92195Y-61362D01*
X92195Y-59994D01*
X92195Y-59612D01*
X92132Y-59550D01*
X91550Y-59550D01*
X91550Y-60132D01*
X91612Y-60195D01*
X91895Y-60195D01*
X91994Y-60194D01*
X92086Y-60156D01*
X92157Y-60086D01*
X92195Y-59994D01*
X92195Y-61362D01*
X92089Y-61106D01*
X91894Y-60911D01*
X91638Y-60805D01*
X91450Y-60804D01*
X91450Y-60132D01*
X91450Y-59550D01*
X90867Y-59550D01*
X90805Y-59612D01*
X90804Y-59994D01*
X90842Y-60086D01*
X90913Y-60156D01*
X91005Y-60194D01*
X91104Y-60195D01*
X91387Y-60195D01*
X91450Y-60132D01*
X91450Y-60804D01*
X91362Y-60804D01*
X91106Y-60910D01*
X90911Y-61105D01*
X90805Y-61361D01*
X90804Y-61637D01*
X90910Y-61893D01*
X91087Y-62070D01*
X90995Y-62162D01*
X90905Y-62381D01*
X90904Y-62617D01*
X90985Y-62813D01*
X90913Y-62842D01*
X90843Y-62913D01*
X90805Y-63005D01*
X90804Y-63104D01*
X90804Y-63994D01*
X90842Y-64086D01*
X90913Y-64156D01*
X91005Y-64194D01*
X91104Y-64195D01*
X91994Y-64195D01*
X92086Y-64157D01*
X92156Y-64086D01*
X92194Y-63994D01*
X92195Y-63895D01*
X92195Y-63005D01*
X92157Y-62913D01*
X92086Y-62843D01*
X92014Y-62813D01*
X92094Y-62618D01*
X92095Y-62382D01*
X92004Y-62163D01*
X91912Y-62070D01*
X92088Y-61894D01*
X92194Y-61638D01*
X92195Y-61362D01*
X92195Y-65362D01*
X92089Y-65106D01*
X91894Y-64911D01*
X91638Y-64805D01*
X91362Y-64804D01*
X91106Y-64910D01*
X90911Y-65105D01*
X90805Y-65361D01*
X90804Y-65637D01*
X90910Y-65893D01*
X91087Y-66070D01*
X90995Y-66162D01*
X90905Y-66381D01*
X90904Y-66617D01*
X90985Y-66813D01*
X90913Y-66842D01*
X90843Y-66913D01*
X90805Y-67005D01*
X90804Y-67104D01*
X90804Y-67950D01*
X89555Y-67950D01*
X89555Y-65000D01*
X89514Y-64791D01*
X89396Y-64614D01*
X89224Y-64500D01*
X89396Y-64385D01*
X89514Y-64208D01*
X89555Y-64000D01*
X89514Y-63791D01*
X89396Y-63614D01*
X89219Y-63496D01*
X89010Y-63455D01*
X88989Y-63455D01*
X88795Y-63493D01*
X88795Y-50245D01*
X88795Y-49655D01*
X88757Y-49563D01*
X88686Y-49493D01*
X88594Y-49455D01*
X88495Y-49454D01*
X87905Y-49454D01*
X87813Y-49492D01*
X87743Y-49563D01*
X87705Y-49655D01*
X87704Y-49754D01*
X87704Y-50344D01*
X87742Y-50436D01*
X87813Y-50506D01*
X87905Y-50544D01*
X87956Y-50545D01*
X87813Y-50673D01*
X87721Y-50865D01*
X87769Y-50950D01*
X88200Y-50950D01*
X88200Y-50942D01*
X88300Y-50942D01*
X88300Y-50950D01*
X88730Y-50950D01*
X88778Y-50865D01*
X88686Y-50673D01*
X88543Y-50545D01*
X88594Y-50545D01*
X88686Y-50507D01*
X88756Y-50436D01*
X88794Y-50344D01*
X88795Y-50245D01*
X88795Y-63493D01*
X88780Y-63496D01*
X88778Y-63498D01*
X88778Y-51134D01*
X88730Y-51050D01*
X88300Y-51050D01*
X88300Y-51479D01*
X88384Y-51528D01*
X88528Y-51468D01*
X88686Y-51326D01*
X88778Y-51134D01*
X88778Y-63498D01*
X88603Y-63614D01*
X88485Y-63791D01*
X88444Y-64000D01*
X88485Y-64208D01*
X88603Y-64385D01*
X88775Y-64500D01*
X88603Y-64614D01*
X88485Y-64791D01*
X88444Y-65000D01*
X88485Y-65208D01*
X88603Y-65385D01*
X88780Y-65503D01*
X88989Y-65545D01*
X89010Y-65545D01*
X89219Y-65503D01*
X89396Y-65385D01*
X89514Y-65208D01*
X89555Y-65000D01*
X89555Y-67950D01*
X88200Y-67950D01*
X88200Y-51479D01*
X88200Y-51050D01*
X87769Y-51050D01*
X87721Y-51134D01*
X87813Y-51326D01*
X87971Y-51468D01*
X88115Y-51528D01*
X88200Y-51479D01*
X88200Y-67950D01*
X87595Y-67950D01*
X87595Y-67882D01*
X87504Y-67663D01*
X87356Y-67515D01*
X87356Y-56000D01*
X87311Y-55772D01*
X87182Y-55579D01*
X87063Y-55500D01*
X87182Y-55420D01*
X87311Y-55227D01*
X87356Y-55000D01*
X87311Y-54772D01*
X87182Y-54579D01*
X86989Y-54450D01*
X86761Y-54405D01*
X86738Y-54405D01*
X86510Y-54450D01*
X86317Y-54579D01*
X86188Y-54772D01*
X86143Y-55000D01*
X86188Y-55227D01*
X86317Y-55420D01*
X86436Y-55500D01*
X86317Y-55579D01*
X86188Y-55772D01*
X86143Y-56000D01*
X86188Y-56227D01*
X86317Y-56420D01*
X86263Y-56442D01*
X86193Y-56513D01*
X86155Y-56605D01*
X86154Y-56704D01*
X86154Y-57394D01*
X86192Y-57486D01*
X86263Y-57556D01*
X86355Y-57594D01*
X86454Y-57595D01*
X87144Y-57595D01*
X87236Y-57557D01*
X87306Y-57486D01*
X87344Y-57394D01*
X87345Y-57295D01*
X87345Y-56605D01*
X87307Y-56513D01*
X87236Y-56443D01*
X87182Y-56420D01*
X87311Y-56227D01*
X87356Y-56000D01*
X87356Y-67515D01*
X87337Y-67495D01*
X87118Y-67405D01*
X86882Y-67404D01*
X86663Y-67495D01*
X86499Y-67658D01*
X86337Y-67495D01*
X86118Y-67405D01*
X86095Y-67405D01*
X86095Y-50795D01*
X86095Y-50105D01*
X86057Y-50013D01*
X85986Y-49943D01*
X85894Y-49905D01*
X85795Y-49904D01*
X85105Y-49904D01*
X85013Y-49942D01*
X84943Y-50013D01*
X84905Y-50105D01*
X84904Y-50204D01*
X84904Y-50894D01*
X84942Y-50986D01*
X85013Y-51056D01*
X85070Y-51080D01*
X84950Y-51260D01*
X84905Y-51488D01*
X84905Y-51511D01*
X84950Y-51739D01*
X85079Y-51932D01*
X85272Y-52061D01*
X85500Y-52106D01*
X85727Y-52061D01*
X85920Y-51932D01*
X86049Y-51739D01*
X86095Y-51511D01*
X86095Y-51488D01*
X86049Y-51260D01*
X85929Y-51080D01*
X85986Y-51057D01*
X86056Y-50986D01*
X86094Y-50894D01*
X86095Y-50795D01*
X86095Y-67405D01*
X85925Y-67404D01*
X85925Y-64415D01*
X85860Y-64259D01*
X85741Y-64139D01*
X85584Y-64075D01*
X85528Y-64075D01*
X85528Y-63865D01*
X85468Y-63721D01*
X85326Y-63563D01*
X85134Y-63471D01*
X85050Y-63519D01*
X85050Y-63950D01*
X85479Y-63950D01*
X85528Y-63865D01*
X85528Y-64075D01*
X85494Y-64074D01*
X85479Y-64050D01*
X85050Y-64050D01*
X85050Y-64057D01*
X84950Y-64057D01*
X84950Y-64050D01*
X84950Y-63950D01*
X84950Y-63519D01*
X84865Y-63471D01*
X84673Y-63563D01*
X84555Y-63694D01*
X84555Y-51250D01*
X84514Y-51041D01*
X84396Y-50864D01*
X84224Y-50750D01*
X84396Y-50635D01*
X84514Y-50458D01*
X84555Y-50250D01*
X84514Y-50041D01*
X84396Y-49864D01*
X84219Y-49746D01*
X84010Y-49705D01*
X83989Y-49705D01*
X83780Y-49746D01*
X83603Y-49864D01*
X83485Y-50041D01*
X83444Y-50250D01*
X83485Y-50458D01*
X83603Y-50635D01*
X83775Y-50750D01*
X83603Y-50864D01*
X83485Y-51041D01*
X83444Y-51250D01*
X83485Y-51458D01*
X83603Y-51635D01*
X83780Y-51753D01*
X83989Y-51795D01*
X84010Y-51795D01*
X84219Y-51753D01*
X84396Y-51635D01*
X84514Y-51458D01*
X84555Y-51250D01*
X84555Y-63694D01*
X84531Y-63721D01*
X84471Y-63865D01*
X84520Y-63950D01*
X84950Y-63950D01*
X84950Y-64050D01*
X84520Y-64050D01*
X84471Y-64134D01*
X84499Y-64200D01*
X83953Y-64200D01*
X83896Y-64114D01*
X83724Y-64000D01*
X83896Y-63885D01*
X84014Y-63708D01*
X84055Y-63500D01*
X84014Y-63291D01*
X83896Y-63114D01*
X83719Y-62996D01*
X83706Y-62993D01*
X83826Y-62936D01*
X83968Y-62778D01*
X84028Y-62634D01*
X84028Y-62365D01*
X83968Y-62221D01*
X83826Y-62063D01*
X83795Y-62048D01*
X83795Y-56260D01*
X83795Y-56239D01*
X83795Y-52260D01*
X83795Y-52239D01*
X83753Y-52030D01*
X83635Y-51853D01*
X83458Y-51735D01*
X83250Y-51694D01*
X83041Y-51735D01*
X82864Y-51853D01*
X82746Y-52030D01*
X82705Y-52239D01*
X82705Y-52260D01*
X82746Y-52469D01*
X82864Y-52646D01*
X83041Y-52764D01*
X83250Y-52805D01*
X83458Y-52764D01*
X83635Y-52646D01*
X83753Y-52469D01*
X83795Y-52260D01*
X83795Y-56239D01*
X83753Y-56030D01*
X83635Y-55853D01*
X83458Y-55735D01*
X83250Y-55694D01*
X83041Y-55735D01*
X82864Y-55853D01*
X82746Y-56030D01*
X82705Y-56239D01*
X82705Y-56260D01*
X82746Y-56469D01*
X82864Y-56646D01*
X83041Y-56764D01*
X83250Y-56805D01*
X83458Y-56764D01*
X83635Y-56646D01*
X83753Y-56469D01*
X83795Y-56260D01*
X83795Y-62048D01*
X83634Y-61971D01*
X83550Y-62019D01*
X83550Y-62450D01*
X83979Y-62450D01*
X84028Y-62365D01*
X84028Y-62634D01*
X83979Y-62550D01*
X83550Y-62550D01*
X83550Y-62557D01*
X83450Y-62557D01*
X83450Y-62550D01*
X83450Y-62450D01*
X83450Y-62019D01*
X83365Y-61971D01*
X83173Y-62063D01*
X83031Y-62221D01*
X82971Y-62365D01*
X83020Y-62450D01*
X83450Y-62450D01*
X83450Y-62550D01*
X83020Y-62550D01*
X82971Y-62634D01*
X83031Y-62778D01*
X83173Y-62936D01*
X83293Y-62993D01*
X83280Y-62996D01*
X83103Y-63114D01*
X82985Y-63291D01*
X82944Y-63500D01*
X82985Y-63708D01*
X83103Y-63885D01*
X83275Y-64000D01*
X83103Y-64114D01*
X82985Y-64291D01*
X82944Y-64500D01*
X82985Y-64708D01*
X83103Y-64885D01*
X83280Y-65003D01*
X83489Y-65045D01*
X83510Y-65045D01*
X83719Y-65003D01*
X83896Y-64885D01*
X83953Y-64800D01*
X84499Y-64800D01*
X84471Y-64865D01*
X84520Y-64950D01*
X84950Y-64950D01*
X84950Y-64942D01*
X85050Y-64942D01*
X85050Y-64950D01*
X85479Y-64950D01*
X85494Y-64924D01*
X85584Y-64925D01*
X85740Y-64860D01*
X85860Y-64741D01*
X85924Y-64584D01*
X85925Y-64415D01*
X85925Y-67404D01*
X85882Y-67404D01*
X85663Y-67495D01*
X85528Y-67630D01*
X85528Y-65134D01*
X85479Y-65050D01*
X85050Y-65050D01*
X85050Y-65480D01*
X85134Y-65528D01*
X85326Y-65436D01*
X85468Y-65278D01*
X85528Y-65134D01*
X85528Y-67630D01*
X85499Y-67658D01*
X85337Y-67495D01*
X85118Y-67405D01*
X84950Y-67404D01*
X84950Y-65480D01*
X84950Y-65050D01*
X84520Y-65050D01*
X84471Y-65134D01*
X84531Y-65278D01*
X84673Y-65436D01*
X84865Y-65528D01*
X84950Y-65480D01*
X84950Y-67404D01*
X84925Y-67404D01*
X84925Y-66415D01*
X84860Y-66259D01*
X84741Y-66139D01*
X84584Y-66075D01*
X84415Y-66074D01*
X84259Y-66139D01*
X84198Y-66200D01*
X83801Y-66200D01*
X83741Y-66139D01*
X83584Y-66075D01*
X83415Y-66074D01*
X83259Y-66139D01*
X83139Y-66258D01*
X83075Y-66415D01*
X83074Y-66584D01*
X83139Y-66740D01*
X83258Y-66860D01*
X83415Y-66924D01*
X83584Y-66925D01*
X83740Y-66860D01*
X83801Y-66800D01*
X84198Y-66800D01*
X84258Y-66860D01*
X84415Y-66924D01*
X84584Y-66925D01*
X84740Y-66860D01*
X84860Y-66741D01*
X84924Y-66584D01*
X84925Y-66415D01*
X84925Y-67404D01*
X84882Y-67404D01*
X84663Y-67495D01*
X84499Y-67658D01*
X84337Y-67495D01*
X84118Y-67405D01*
X83882Y-67404D01*
X83663Y-67495D01*
X83499Y-67658D01*
X83337Y-67495D01*
X83118Y-67405D01*
X82882Y-67404D01*
X82675Y-67490D01*
X82675Y-66415D01*
X82610Y-66259D01*
X82545Y-66193D01*
X82545Y-58513D01*
X82545Y-58191D01*
X82545Y-55808D01*
X82545Y-55486D01*
X82503Y-55277D01*
X82385Y-55101D01*
X82208Y-54982D01*
X82000Y-54941D01*
X81791Y-54982D01*
X81614Y-55101D01*
X81500Y-55272D01*
X81385Y-55101D01*
X81264Y-55020D01*
X81344Y-55020D01*
X81436Y-54982D01*
X81506Y-54911D01*
X81544Y-54819D01*
X81545Y-54720D01*
X81545Y-54080D01*
X81545Y-53669D01*
X81545Y-52930D01*
X81507Y-52838D01*
X81436Y-52768D01*
X81344Y-52730D01*
X81245Y-52729D01*
X81112Y-52730D01*
X81050Y-52792D01*
X81050Y-53250D01*
X81482Y-53250D01*
X81545Y-53187D01*
X81545Y-52930D01*
X81545Y-53669D01*
X81545Y-53412D01*
X81482Y-53350D01*
X81050Y-53350D01*
X81050Y-53807D01*
X81112Y-53870D01*
X81245Y-53870D01*
X81344Y-53869D01*
X81436Y-53831D01*
X81507Y-53761D01*
X81545Y-53669D01*
X81545Y-54080D01*
X81507Y-53988D01*
X81436Y-53918D01*
X81344Y-53880D01*
X81245Y-53879D01*
X80950Y-53879D01*
X80950Y-53807D01*
X80950Y-53350D01*
X80950Y-53250D01*
X80950Y-52792D01*
X80887Y-52730D01*
X80754Y-52729D01*
X80655Y-52730D01*
X80563Y-52768D01*
X80555Y-52775D01*
X80555Y-50250D01*
X80514Y-50041D01*
X80396Y-49864D01*
X80219Y-49746D01*
X80010Y-49705D01*
X79989Y-49705D01*
X79780Y-49746D01*
X79603Y-49864D01*
X79520Y-49990D01*
X79520Y-49905D01*
X79482Y-49813D01*
X79411Y-49743D01*
X79319Y-49705D01*
X79220Y-49704D01*
X78580Y-49704D01*
X78488Y-49742D01*
X78418Y-49813D01*
X78380Y-49905D01*
X78379Y-50004D01*
X78379Y-50594D01*
X78417Y-50686D01*
X78488Y-50756D01*
X78580Y-50794D01*
X78679Y-50795D01*
X79319Y-50795D01*
X79411Y-50757D01*
X79481Y-50686D01*
X79519Y-50594D01*
X79520Y-50509D01*
X79603Y-50635D01*
X79780Y-50753D01*
X79793Y-50756D01*
X79673Y-50813D01*
X79531Y-50971D01*
X79471Y-51115D01*
X79520Y-51200D01*
X79950Y-51200D01*
X79950Y-51192D01*
X80050Y-51192D01*
X80050Y-51200D01*
X80479Y-51200D01*
X80528Y-51115D01*
X80468Y-50971D01*
X80326Y-50813D01*
X80206Y-50756D01*
X80219Y-50753D01*
X80396Y-50635D01*
X80514Y-50458D01*
X80555Y-50250D01*
X80555Y-52775D01*
X80528Y-52803D01*
X80528Y-51384D01*
X80479Y-51300D01*
X80050Y-51300D01*
X80050Y-51730D01*
X80134Y-51778D01*
X80326Y-51686D01*
X80468Y-51528D01*
X80528Y-51384D01*
X80528Y-52803D01*
X80492Y-52838D01*
X80454Y-52930D01*
X80455Y-53187D01*
X80517Y-53250D01*
X80950Y-53250D01*
X80950Y-53350D01*
X80517Y-53350D01*
X80455Y-53412D01*
X80454Y-53669D01*
X80492Y-53761D01*
X80563Y-53831D01*
X80655Y-53869D01*
X80754Y-53870D01*
X80887Y-53870D01*
X80950Y-53807D01*
X80950Y-53879D01*
X80655Y-53879D01*
X80563Y-53917D01*
X80493Y-53988D01*
X80455Y-54080D01*
X80454Y-54179D01*
X80454Y-54819D01*
X80492Y-54911D01*
X80563Y-54981D01*
X80655Y-55019D01*
X80735Y-55020D01*
X80614Y-55101D01*
X80500Y-55272D01*
X80385Y-55101D01*
X80208Y-54982D01*
X80000Y-54941D01*
X79950Y-54951D01*
X79950Y-51730D01*
X79950Y-51300D01*
X79520Y-51300D01*
X79471Y-51384D01*
X79531Y-51528D01*
X79673Y-51686D01*
X79865Y-51778D01*
X79950Y-51730D01*
X79950Y-54951D01*
X79791Y-54982D01*
X79614Y-55101D01*
X79496Y-55277D01*
X79495Y-55282D01*
X79484Y-55245D01*
X79350Y-55079D01*
X79162Y-54977D01*
X79134Y-54971D01*
X79055Y-55016D01*
X79055Y-53500D01*
X79014Y-53291D01*
X78896Y-53114D01*
X78724Y-53000D01*
X78896Y-52885D01*
X79014Y-52708D01*
X79055Y-52500D01*
X79014Y-52291D01*
X78896Y-52114D01*
X78719Y-51996D01*
X78510Y-51955D01*
X78489Y-51955D01*
X78370Y-51978D01*
X78370Y-50495D01*
X78370Y-50004D01*
X78369Y-49905D01*
X78331Y-49813D01*
X78261Y-49742D01*
X78169Y-49704D01*
X77912Y-49705D01*
X77850Y-49767D01*
X77850Y-50200D01*
X78307Y-50200D01*
X78370Y-50137D01*
X78370Y-50004D01*
X78370Y-50495D01*
X78370Y-50362D01*
X78307Y-50300D01*
X77850Y-50300D01*
X77850Y-50732D01*
X77912Y-50795D01*
X78169Y-50795D01*
X78261Y-50757D01*
X78331Y-50686D01*
X78369Y-50594D01*
X78370Y-50495D01*
X78370Y-51978D01*
X78280Y-51996D01*
X78103Y-52114D01*
X77985Y-52291D01*
X77944Y-52500D01*
X77985Y-52708D01*
X78103Y-52885D01*
X78275Y-53000D01*
X78103Y-53114D01*
X77985Y-53291D01*
X77944Y-53500D01*
X77985Y-53708D01*
X78103Y-53885D01*
X78280Y-54003D01*
X78489Y-54045D01*
X78510Y-54045D01*
X78719Y-54003D01*
X78896Y-53885D01*
X79014Y-53708D01*
X79055Y-53500D01*
X79055Y-55016D01*
X79050Y-55020D01*
X79050Y-55597D01*
X79057Y-55597D01*
X79057Y-55697D01*
X79050Y-55697D01*
X79050Y-56274D01*
X79134Y-56323D01*
X79162Y-56317D01*
X79350Y-56215D01*
X79484Y-56049D01*
X79495Y-56012D01*
X79496Y-56017D01*
X79614Y-56193D01*
X79791Y-56312D01*
X80000Y-56353D01*
X80208Y-56312D01*
X80385Y-56193D01*
X80500Y-56022D01*
X80614Y-56193D01*
X80791Y-56312D01*
X81000Y-56353D01*
X81208Y-56312D01*
X81385Y-56193D01*
X81500Y-56022D01*
X81614Y-56193D01*
X81791Y-56312D01*
X82000Y-56353D01*
X82208Y-56312D01*
X82385Y-56193D01*
X82503Y-56017D01*
X82545Y-55808D01*
X82545Y-58191D01*
X82503Y-57982D01*
X82385Y-57806D01*
X82208Y-57687D01*
X82000Y-57646D01*
X81791Y-57687D01*
X81614Y-57806D01*
X81500Y-57977D01*
X81385Y-57806D01*
X81208Y-57687D01*
X81000Y-57646D01*
X80791Y-57687D01*
X80614Y-57806D01*
X80500Y-57977D01*
X80385Y-57806D01*
X80208Y-57687D01*
X80000Y-57646D01*
X79791Y-57687D01*
X79614Y-57806D01*
X79500Y-57977D01*
X79385Y-57806D01*
X79208Y-57687D01*
X79000Y-57646D01*
X78950Y-57656D01*
X78950Y-56274D01*
X78950Y-55697D01*
X78942Y-55697D01*
X78942Y-55597D01*
X78950Y-55597D01*
X78950Y-55020D01*
X78865Y-54971D01*
X78837Y-54977D01*
X78649Y-55079D01*
X78515Y-55245D01*
X78504Y-55282D01*
X78503Y-55277D01*
X78385Y-55101D01*
X78208Y-54982D01*
X78000Y-54941D01*
X77791Y-54982D01*
X77750Y-55010D01*
X77750Y-50732D01*
X77750Y-50300D01*
X77750Y-50200D01*
X77750Y-49767D01*
X77687Y-49705D01*
X77430Y-49704D01*
X77338Y-49742D01*
X77268Y-49813D01*
X77230Y-49905D01*
X77229Y-50004D01*
X77230Y-50137D01*
X77292Y-50200D01*
X77750Y-50200D01*
X77750Y-50300D01*
X77292Y-50300D01*
X77230Y-50362D01*
X77229Y-50495D01*
X77230Y-50594D01*
X77268Y-50686D01*
X77338Y-50757D01*
X77430Y-50795D01*
X77687Y-50795D01*
X77750Y-50732D01*
X77750Y-55010D01*
X77614Y-55101D01*
X77500Y-55272D01*
X77385Y-55101D01*
X77208Y-54982D01*
X77000Y-54941D01*
X76791Y-54982D01*
X76614Y-55101D01*
X76500Y-55272D01*
X76385Y-55101D01*
X76208Y-54982D01*
X76000Y-54941D01*
X75791Y-54982D01*
X75614Y-55101D01*
X75496Y-55277D01*
X75455Y-55486D01*
X75455Y-55808D01*
X75496Y-56017D01*
X75614Y-56193D01*
X75791Y-56312D01*
X76000Y-56353D01*
X76208Y-56312D01*
X76385Y-56193D01*
X76500Y-56022D01*
X76614Y-56193D01*
X76791Y-56312D01*
X77000Y-56353D01*
X77208Y-56312D01*
X77385Y-56193D01*
X77500Y-56022D01*
X77614Y-56193D01*
X77791Y-56312D01*
X78000Y-56353D01*
X78208Y-56312D01*
X78385Y-56193D01*
X78503Y-56017D01*
X78504Y-56012D01*
X78515Y-56049D01*
X78649Y-56215D01*
X78837Y-56317D01*
X78865Y-56323D01*
X78950Y-56274D01*
X78950Y-57656D01*
X78791Y-57687D01*
X78614Y-57806D01*
X78500Y-57977D01*
X78385Y-57806D01*
X78208Y-57687D01*
X78000Y-57646D01*
X77791Y-57687D01*
X77614Y-57806D01*
X77500Y-57977D01*
X77385Y-57806D01*
X77208Y-57687D01*
X77000Y-57646D01*
X76791Y-57687D01*
X76614Y-57806D01*
X76545Y-57910D01*
X76545Y-57860D01*
X76507Y-57768D01*
X76436Y-57698D01*
X76344Y-57660D01*
X76245Y-57659D01*
X75655Y-57659D01*
X75563Y-57697D01*
X75493Y-57768D01*
X75455Y-57860D01*
X75454Y-57959D01*
X75454Y-58844D01*
X75492Y-58936D01*
X75563Y-59006D01*
X75655Y-59044D01*
X75754Y-59045D01*
X76344Y-59045D01*
X76436Y-59007D01*
X76506Y-58936D01*
X76544Y-58844D01*
X76545Y-58794D01*
X76614Y-58898D01*
X76735Y-58979D01*
X76655Y-58979D01*
X76563Y-59017D01*
X76493Y-59088D01*
X76455Y-59180D01*
X76454Y-59279D01*
X76454Y-59919D01*
X76492Y-60011D01*
X76563Y-60081D01*
X76655Y-60119D01*
X76754Y-60120D01*
X77344Y-60120D01*
X77436Y-60082D01*
X77500Y-60018D01*
X77563Y-60081D01*
X77655Y-60119D01*
X77754Y-60120D01*
X78344Y-60120D01*
X78436Y-60082D01*
X78500Y-60018D01*
X78563Y-60081D01*
X78655Y-60119D01*
X78754Y-60120D01*
X79344Y-60120D01*
X79436Y-60082D01*
X79500Y-60018D01*
X79563Y-60081D01*
X79655Y-60119D01*
X79754Y-60120D01*
X80344Y-60120D01*
X80436Y-60082D01*
X80500Y-60018D01*
X80563Y-60081D01*
X80655Y-60119D01*
X80754Y-60120D01*
X81344Y-60120D01*
X81436Y-60082D01*
X81506Y-60011D01*
X81544Y-59919D01*
X81545Y-59820D01*
X81545Y-59180D01*
X81507Y-59088D01*
X81436Y-59018D01*
X81344Y-58980D01*
X81264Y-58979D01*
X81385Y-58898D01*
X81500Y-58727D01*
X81614Y-58898D01*
X81791Y-59017D01*
X82000Y-59058D01*
X82208Y-59017D01*
X82385Y-58898D01*
X82503Y-58722D01*
X82545Y-58513D01*
X82545Y-66193D01*
X82491Y-66139D01*
X82334Y-66075D01*
X82249Y-66074D01*
X81924Y-65750D01*
X81925Y-65665D01*
X81860Y-65509D01*
X81741Y-65389D01*
X81584Y-65325D01*
X81545Y-65325D01*
X81545Y-61069D01*
X81545Y-60330D01*
X81507Y-60238D01*
X81436Y-60168D01*
X81344Y-60130D01*
X81245Y-60129D01*
X81112Y-60130D01*
X81050Y-60192D01*
X81050Y-60650D01*
X81482Y-60650D01*
X81545Y-60587D01*
X81545Y-60330D01*
X81545Y-61069D01*
X81545Y-60812D01*
X81482Y-60750D01*
X81050Y-60750D01*
X81050Y-61207D01*
X81112Y-61270D01*
X81245Y-61270D01*
X81344Y-61269D01*
X81436Y-61231D01*
X81507Y-61161D01*
X81545Y-61069D01*
X81545Y-65325D01*
X81415Y-65324D01*
X81259Y-65389D01*
X81139Y-65508D01*
X81075Y-65665D01*
X81074Y-65834D01*
X81139Y-65990D01*
X81258Y-66110D01*
X81415Y-66174D01*
X81500Y-66175D01*
X81825Y-66499D01*
X81824Y-66584D01*
X81889Y-66740D01*
X82008Y-66860D01*
X82165Y-66924D01*
X82334Y-66925D01*
X82490Y-66860D01*
X82610Y-66741D01*
X82674Y-66584D01*
X82675Y-66415D01*
X82675Y-67490D01*
X82663Y-67495D01*
X82582Y-67575D01*
X82557Y-67513D01*
X82486Y-67443D01*
X82394Y-67405D01*
X82295Y-67404D01*
X81605Y-67404D01*
X81513Y-67442D01*
X81443Y-67513D01*
X81405Y-67605D01*
X81404Y-67704D01*
X81404Y-67950D01*
X80950Y-67950D01*
X80950Y-61207D01*
X80950Y-60750D01*
X80950Y-60650D01*
X80950Y-60192D01*
X80887Y-60130D01*
X80754Y-60129D01*
X80655Y-60130D01*
X80563Y-60168D01*
X80500Y-60231D01*
X80436Y-60168D01*
X80344Y-60130D01*
X80245Y-60129D01*
X80112Y-60130D01*
X80050Y-60192D01*
X80050Y-60650D01*
X80482Y-60650D01*
X80500Y-60632D01*
X80517Y-60650D01*
X80950Y-60650D01*
X80950Y-60750D01*
X80517Y-60750D01*
X80500Y-60767D01*
X80482Y-60750D01*
X80050Y-60750D01*
X80050Y-61207D01*
X80112Y-61270D01*
X80245Y-61270D01*
X80344Y-61269D01*
X80436Y-61231D01*
X80500Y-61168D01*
X80563Y-61231D01*
X80655Y-61269D01*
X80754Y-61270D01*
X80887Y-61270D01*
X80950Y-61207D01*
X80950Y-67950D01*
X80595Y-67950D01*
X80595Y-67882D01*
X80504Y-67663D01*
X80337Y-67495D01*
X80118Y-67405D01*
X80055Y-67405D01*
X80055Y-64500D01*
X80014Y-64291D01*
X79896Y-64114D01*
X79724Y-64000D01*
X79896Y-63885D01*
X80014Y-63708D01*
X80055Y-63500D01*
X80014Y-63291D01*
X79896Y-63114D01*
X79724Y-63000D01*
X79896Y-62885D01*
X80014Y-62708D01*
X80055Y-62500D01*
X80014Y-62291D01*
X79950Y-62195D01*
X79950Y-61207D01*
X79950Y-60750D01*
X79950Y-60650D01*
X79950Y-60192D01*
X79887Y-60130D01*
X79754Y-60129D01*
X79655Y-60130D01*
X79563Y-60168D01*
X79500Y-60231D01*
X79436Y-60168D01*
X79344Y-60130D01*
X79245Y-60129D01*
X79112Y-60130D01*
X79050Y-60192D01*
X79050Y-60650D01*
X79482Y-60650D01*
X79500Y-60632D01*
X79517Y-60650D01*
X79950Y-60650D01*
X79950Y-60750D01*
X79517Y-60750D01*
X79500Y-60767D01*
X79482Y-60750D01*
X79050Y-60750D01*
X79050Y-61207D01*
X79112Y-61270D01*
X79245Y-61270D01*
X79344Y-61269D01*
X79436Y-61231D01*
X79500Y-61168D01*
X79563Y-61231D01*
X79655Y-61269D01*
X79754Y-61270D01*
X79887Y-61270D01*
X79950Y-61207D01*
X79950Y-62195D01*
X79896Y-62114D01*
X79719Y-61996D01*
X79510Y-61955D01*
X79489Y-61955D01*
X79280Y-61996D01*
X79103Y-62114D01*
X78985Y-62291D01*
X78950Y-62471D01*
X78950Y-61207D01*
X78950Y-60750D01*
X78950Y-60650D01*
X78950Y-60192D01*
X78887Y-60130D01*
X78754Y-60129D01*
X78655Y-60130D01*
X78563Y-60168D01*
X78500Y-60231D01*
X78436Y-60168D01*
X78344Y-60130D01*
X78245Y-60129D01*
X78112Y-60130D01*
X78050Y-60192D01*
X78050Y-60650D01*
X78482Y-60650D01*
X78500Y-60632D01*
X78517Y-60650D01*
X78950Y-60650D01*
X78950Y-60750D01*
X78517Y-60750D01*
X78500Y-60767D01*
X78482Y-60750D01*
X78050Y-60750D01*
X78050Y-61207D01*
X78112Y-61270D01*
X78245Y-61270D01*
X78344Y-61269D01*
X78436Y-61231D01*
X78500Y-61168D01*
X78563Y-61231D01*
X78655Y-61269D01*
X78754Y-61270D01*
X78887Y-61270D01*
X78950Y-61207D01*
X78950Y-62471D01*
X78944Y-62500D01*
X78985Y-62708D01*
X79103Y-62885D01*
X79275Y-63000D01*
X79103Y-63114D01*
X78985Y-63291D01*
X78944Y-63500D01*
X78985Y-63708D01*
X79103Y-63885D01*
X79275Y-64000D01*
X79103Y-64114D01*
X78985Y-64291D01*
X78944Y-64500D01*
X78985Y-64708D01*
X79103Y-64885D01*
X79280Y-65003D01*
X79489Y-65045D01*
X79510Y-65045D01*
X79719Y-65003D01*
X79896Y-64885D01*
X80014Y-64708D01*
X80055Y-64500D01*
X80055Y-67405D01*
X79882Y-67404D01*
X79663Y-67495D01*
X79495Y-67662D01*
X79490Y-67675D01*
X79418Y-67652D01*
X79347Y-67722D01*
X79347Y-67581D01*
X79314Y-67481D01*
X79092Y-67400D01*
X78856Y-67410D01*
X78685Y-67481D01*
X78652Y-67581D01*
X79000Y-67929D01*
X79347Y-67581D01*
X79347Y-67722D01*
X79120Y-67950D01*
X78879Y-67950D01*
X78581Y-67652D01*
X78555Y-67660D01*
X78555Y-64500D01*
X78514Y-64291D01*
X78396Y-64114D01*
X78224Y-64000D01*
X78396Y-63885D01*
X78514Y-63708D01*
X78555Y-63500D01*
X78514Y-63291D01*
X78396Y-63114D01*
X78224Y-63000D01*
X78396Y-62885D01*
X78514Y-62708D01*
X78555Y-62500D01*
X78514Y-62291D01*
X78396Y-62114D01*
X78219Y-61996D01*
X78010Y-61955D01*
X77989Y-61955D01*
X77950Y-61962D01*
X77950Y-61207D01*
X77950Y-60750D01*
X77950Y-60650D01*
X77950Y-60192D01*
X77887Y-60130D01*
X77754Y-60129D01*
X77655Y-60130D01*
X77563Y-60168D01*
X77500Y-60231D01*
X77436Y-60168D01*
X77344Y-60130D01*
X77245Y-60129D01*
X77112Y-60130D01*
X77050Y-60192D01*
X77050Y-60650D01*
X77482Y-60650D01*
X77500Y-60632D01*
X77517Y-60650D01*
X77950Y-60650D01*
X77950Y-60750D01*
X77517Y-60750D01*
X77500Y-60767D01*
X77482Y-60750D01*
X77050Y-60750D01*
X77050Y-61207D01*
X77112Y-61270D01*
X77245Y-61270D01*
X77344Y-61269D01*
X77436Y-61231D01*
X77500Y-61168D01*
X77563Y-61231D01*
X77655Y-61269D01*
X77754Y-61270D01*
X77887Y-61270D01*
X77950Y-61207D01*
X77950Y-61962D01*
X77780Y-61996D01*
X77603Y-62114D01*
X77485Y-62291D01*
X77444Y-62500D01*
X77485Y-62708D01*
X77603Y-62885D01*
X77775Y-63000D01*
X77603Y-63114D01*
X77485Y-63291D01*
X77444Y-63500D01*
X77485Y-63708D01*
X77603Y-63885D01*
X77775Y-64000D01*
X77603Y-64114D01*
X77485Y-64291D01*
X77444Y-64500D01*
X77485Y-64708D01*
X77603Y-64885D01*
X77780Y-65003D01*
X77989Y-65045D01*
X78010Y-65045D01*
X78219Y-65003D01*
X78396Y-64885D01*
X78514Y-64708D01*
X78555Y-64500D01*
X78555Y-67660D01*
X78500Y-67678D01*
X78418Y-67652D01*
X78347Y-67722D01*
X78347Y-67581D01*
X78314Y-67481D01*
X78092Y-67400D01*
X77856Y-67410D01*
X77685Y-67481D01*
X77652Y-67581D01*
X78000Y-67929D01*
X78347Y-67581D01*
X78347Y-67722D01*
X78120Y-67950D01*
X77879Y-67950D01*
X77581Y-67652D01*
X77509Y-67675D01*
X77504Y-67663D01*
X77337Y-67495D01*
X77118Y-67405D01*
X76950Y-67404D01*
X76950Y-61207D01*
X76950Y-60750D01*
X76950Y-60650D01*
X76950Y-60192D01*
X76887Y-60130D01*
X76754Y-60129D01*
X76655Y-60130D01*
X76563Y-60168D01*
X76492Y-60238D01*
X76454Y-60330D01*
X76455Y-60587D01*
X76517Y-60650D01*
X76950Y-60650D01*
X76950Y-60750D01*
X76517Y-60750D01*
X76455Y-60812D01*
X76454Y-61069D01*
X76492Y-61161D01*
X76563Y-61231D01*
X76655Y-61269D01*
X76754Y-61270D01*
X76887Y-61270D01*
X76950Y-61207D01*
X76950Y-67404D01*
X76882Y-67404D01*
X76663Y-67495D01*
X76499Y-67658D01*
X76337Y-67495D01*
X76175Y-67428D01*
X76175Y-64415D01*
X76110Y-64259D01*
X75991Y-64139D01*
X75834Y-64075D01*
X75665Y-64074D01*
X75509Y-64139D01*
X75499Y-64150D01*
X75055Y-64150D01*
X75055Y-52500D01*
X75014Y-52291D01*
X74896Y-52114D01*
X74719Y-51996D01*
X74510Y-51955D01*
X74489Y-51955D01*
X74280Y-51996D01*
X74103Y-52114D01*
X73985Y-52291D01*
X73944Y-52500D01*
X73985Y-52708D01*
X74103Y-52885D01*
X74280Y-53003D01*
X74293Y-53006D01*
X74173Y-53063D01*
X74031Y-53221D01*
X73971Y-53365D01*
X74020Y-53450D01*
X74450Y-53450D01*
X74450Y-53442D01*
X74550Y-53442D01*
X74550Y-53450D01*
X74979Y-53450D01*
X75028Y-53365D01*
X74968Y-53221D01*
X74826Y-53063D01*
X74706Y-53006D01*
X74719Y-53003D01*
X74896Y-52885D01*
X75014Y-52708D01*
X75055Y-52500D01*
X75055Y-64150D01*
X75028Y-64150D01*
X75028Y-53634D01*
X74979Y-53550D01*
X74550Y-53550D01*
X74550Y-53980D01*
X74634Y-54028D01*
X74826Y-53936D01*
X74968Y-53778D01*
X75028Y-53634D01*
X75028Y-64150D01*
X74419Y-64150D01*
X74396Y-64114D01*
X74224Y-64000D01*
X74396Y-63885D01*
X74514Y-63708D01*
X74555Y-63500D01*
X74514Y-63291D01*
X74396Y-63114D01*
X74219Y-62996D01*
X74206Y-62993D01*
X74326Y-62936D01*
X74468Y-62778D01*
X74528Y-62634D01*
X74528Y-62365D01*
X74468Y-62221D01*
X74450Y-62200D01*
X74450Y-53980D01*
X74450Y-53550D01*
X74020Y-53550D01*
X73971Y-53634D01*
X74031Y-53778D01*
X74173Y-53936D01*
X74365Y-54028D01*
X74450Y-53980D01*
X74450Y-62200D01*
X74326Y-62063D01*
X74134Y-61971D01*
X74050Y-62019D01*
X74050Y-62450D01*
X74479Y-62450D01*
X74528Y-62365D01*
X74528Y-62634D01*
X74479Y-62550D01*
X74050Y-62550D01*
X74050Y-62557D01*
X73950Y-62557D01*
X73950Y-62550D01*
X73950Y-62450D01*
X73950Y-62019D01*
X73865Y-61971D01*
X73805Y-62000D01*
X73805Y-52000D01*
X73764Y-51791D01*
X73646Y-51614D01*
X73469Y-51496D01*
X73260Y-51455D01*
X73239Y-51455D01*
X73030Y-51496D01*
X73020Y-51503D01*
X73020Y-50495D01*
X73020Y-49905D01*
X72982Y-49813D01*
X72911Y-49743D01*
X72819Y-49705D01*
X72720Y-49704D01*
X72080Y-49704D01*
X71988Y-49742D01*
X71918Y-49813D01*
X71880Y-49905D01*
X71879Y-50004D01*
X71879Y-50594D01*
X71917Y-50686D01*
X71988Y-50756D01*
X72080Y-50794D01*
X72179Y-50795D01*
X72819Y-50795D01*
X72911Y-50757D01*
X72981Y-50686D01*
X73019Y-50594D01*
X73020Y-50495D01*
X73020Y-51503D01*
X72853Y-51614D01*
X72735Y-51791D01*
X72694Y-52000D01*
X72735Y-52208D01*
X72853Y-52385D01*
X73030Y-52503D01*
X73239Y-52545D01*
X73260Y-52545D01*
X73469Y-52503D01*
X73646Y-52385D01*
X73764Y-52208D01*
X73805Y-52000D01*
X73805Y-62000D01*
X73673Y-62063D01*
X73531Y-62221D01*
X73471Y-62365D01*
X73520Y-62450D01*
X73950Y-62450D01*
X73950Y-62550D01*
X73520Y-62550D01*
X73471Y-62634D01*
X73531Y-62778D01*
X73673Y-62936D01*
X73793Y-62993D01*
X73780Y-62996D01*
X73603Y-63114D01*
X73485Y-63291D01*
X73444Y-63500D01*
X73485Y-63708D01*
X73603Y-63885D01*
X73775Y-64000D01*
X73603Y-64114D01*
X73485Y-64291D01*
X73444Y-64500D01*
X73485Y-64708D01*
X73603Y-64885D01*
X73780Y-65003D01*
X73989Y-65045D01*
X74010Y-65045D01*
X74219Y-65003D01*
X74396Y-64885D01*
X74419Y-64850D01*
X75498Y-64850D01*
X75508Y-64860D01*
X75665Y-64924D01*
X75834Y-64925D01*
X75990Y-64860D01*
X76110Y-64741D01*
X76174Y-64584D01*
X76175Y-64415D01*
X76175Y-67428D01*
X76118Y-67405D01*
X75882Y-67404D01*
X75663Y-67495D01*
X75499Y-67658D01*
X75337Y-67495D01*
X75118Y-67405D01*
X74882Y-67404D01*
X74663Y-67495D01*
X74499Y-67658D01*
X74337Y-67495D01*
X74118Y-67405D01*
X73882Y-67404D01*
X73663Y-67495D01*
X73582Y-67575D01*
X73557Y-67513D01*
X73486Y-67443D01*
X73394Y-67405D01*
X73295Y-67404D01*
X72605Y-67404D01*
X72513Y-67442D01*
X72443Y-67513D01*
X72405Y-67605D01*
X72404Y-67704D01*
X72404Y-67950D01*
X71870Y-67950D01*
X71870Y-50495D01*
X71870Y-49905D01*
X71832Y-49813D01*
X71761Y-49743D01*
X71669Y-49705D01*
X71570Y-49704D01*
X70930Y-49704D01*
X70838Y-49742D01*
X70768Y-49813D01*
X70730Y-49905D01*
X70729Y-50004D01*
X70729Y-50594D01*
X70767Y-50686D01*
X70838Y-50756D01*
X70930Y-50794D01*
X71029Y-50795D01*
X71669Y-50795D01*
X71761Y-50757D01*
X71831Y-50686D01*
X71869Y-50594D01*
X71870Y-50495D01*
X71870Y-67950D01*
X71795Y-67950D01*
X71795Y-57760D01*
X71795Y-57739D01*
X71795Y-53760D01*
X71795Y-53739D01*
X71753Y-53530D01*
X71635Y-53353D01*
X71458Y-53235D01*
X71250Y-53194D01*
X71041Y-53235D01*
X70864Y-53353D01*
X70795Y-53458D01*
X70795Y-52245D01*
X70795Y-51655D01*
X70757Y-51563D01*
X70686Y-51493D01*
X70594Y-51455D01*
X70495Y-51454D01*
X69905Y-51454D01*
X69813Y-51492D01*
X69743Y-51563D01*
X69705Y-51655D01*
X69704Y-51754D01*
X69704Y-52344D01*
X69742Y-52436D01*
X69813Y-52506D01*
X69905Y-52544D01*
X70004Y-52545D01*
X70594Y-52545D01*
X70686Y-52507D01*
X70756Y-52436D01*
X70794Y-52344D01*
X70795Y-52245D01*
X70795Y-53458D01*
X70750Y-53525D01*
X70635Y-53353D01*
X70458Y-53235D01*
X70250Y-53194D01*
X70041Y-53235D01*
X69864Y-53353D01*
X69746Y-53530D01*
X69705Y-53739D01*
X69705Y-53760D01*
X69746Y-53969D01*
X69864Y-54146D01*
X70041Y-54264D01*
X70250Y-54305D01*
X70458Y-54264D01*
X70635Y-54146D01*
X70750Y-53974D01*
X70864Y-54146D01*
X71041Y-54264D01*
X71250Y-54305D01*
X71458Y-54264D01*
X71635Y-54146D01*
X71753Y-53969D01*
X71795Y-53760D01*
X71795Y-57739D01*
X71753Y-57530D01*
X71635Y-57353D01*
X71458Y-57235D01*
X71250Y-57194D01*
X71041Y-57235D01*
X70864Y-57353D01*
X70750Y-57525D01*
X70635Y-57353D01*
X70458Y-57235D01*
X70250Y-57194D01*
X70041Y-57235D01*
X69864Y-57353D01*
X69746Y-57530D01*
X69705Y-57739D01*
X69705Y-57760D01*
X69746Y-57969D01*
X69864Y-58146D01*
X70041Y-58264D01*
X70250Y-58305D01*
X70458Y-58264D01*
X70635Y-58146D01*
X70750Y-57974D01*
X70864Y-58146D01*
X71041Y-58264D01*
X71250Y-58305D01*
X71458Y-58264D01*
X71635Y-58146D01*
X71753Y-57969D01*
X71795Y-57760D01*
X71795Y-67950D01*
X69050Y-67950D01*
X69050Y-49594D01*
X69104Y-49595D01*
X69794Y-49595D01*
X69886Y-49557D01*
X69956Y-49486D01*
X69982Y-49424D01*
X70062Y-49504D01*
X70281Y-49594D01*
X70517Y-49595D01*
X70736Y-49504D01*
X70900Y-49341D01*
X71062Y-49504D01*
X71281Y-49594D01*
X71517Y-49595D01*
X71736Y-49504D01*
X71900Y-49341D01*
X72062Y-49504D01*
X72281Y-49594D01*
X72517Y-49595D01*
X72736Y-49504D01*
X72900Y-49341D01*
X73062Y-49504D01*
X73281Y-49594D01*
X73517Y-49595D01*
X73736Y-49504D01*
X73900Y-49341D01*
X74062Y-49504D01*
X74281Y-49594D01*
X74517Y-49595D01*
X74736Y-49504D01*
X74900Y-49341D01*
X75062Y-49504D01*
X75281Y-49594D01*
X75517Y-49595D01*
X75736Y-49504D01*
X75900Y-49341D01*
X76062Y-49504D01*
X76281Y-49594D01*
X76517Y-49595D01*
X76736Y-49504D01*
X76900Y-49341D01*
X77062Y-49504D01*
X77281Y-49594D01*
X77517Y-49595D01*
X77736Y-49504D01*
X77900Y-49341D01*
X78062Y-49504D01*
X78281Y-49594D01*
X78517Y-49595D01*
X78736Y-49504D01*
X78904Y-49337D01*
X78994Y-49118D01*
X78994Y-49050D01*
X79404Y-49050D01*
X79404Y-49394D01*
X79442Y-49486D01*
X79513Y-49556D01*
X79605Y-49594D01*
X79704Y-49595D01*
X80394Y-49595D01*
X80486Y-49557D01*
X80556Y-49486D01*
X80582Y-49424D01*
X80662Y-49504D01*
X80881Y-49594D01*
X81117Y-49595D01*
X81336Y-49504D01*
X81500Y-49341D01*
X81662Y-49504D01*
X81881Y-49594D01*
X82117Y-49595D01*
X82336Y-49504D01*
X82500Y-49341D01*
X82662Y-49504D01*
X82881Y-49594D01*
X83117Y-49595D01*
X83336Y-49504D01*
X83500Y-49341D01*
X83662Y-49504D01*
X83881Y-49594D01*
X84117Y-49595D01*
X84336Y-49504D01*
X84500Y-49341D01*
X84662Y-49504D01*
X84881Y-49594D01*
X85117Y-49595D01*
X85336Y-49504D01*
X85500Y-49341D01*
X85662Y-49504D01*
X85881Y-49594D01*
X86117Y-49595D01*
X86336Y-49504D01*
X86500Y-49341D01*
X86662Y-49504D01*
X86881Y-49594D01*
X87117Y-49595D01*
X87336Y-49504D01*
X87504Y-49337D01*
X87594Y-49118D01*
X87594Y-49050D01*
X90967Y-49050D01*
X90911Y-49105D01*
X90805Y-49361D01*
X90804Y-49637D01*
X90910Y-49893D01*
X91087Y-50070D01*
X90995Y-50162D01*
X90905Y-50381D01*
X90904Y-50617D01*
X90985Y-50813D01*
X90913Y-50843D01*
X90842Y-50913D01*
X90804Y-51005D01*
X90805Y-51387D01*
X90867Y-51450D01*
X91450Y-51450D01*
X91450Y-51442D01*
X91550Y-51442D01*
X91550Y-51450D01*
X92132Y-51450D01*
X92195Y-51387D01*
X92195Y-51005D01*
X92157Y-50913D01*
X92086Y-50843D01*
X92014Y-50813D01*
X92094Y-50618D01*
X92095Y-50382D01*
X92004Y-50163D01*
X91912Y-50070D01*
X92088Y-49894D01*
X92194Y-49638D01*
X92195Y-49362D01*
X92089Y-49106D01*
X92032Y-49050D01*
X92450Y-49050D01*
X92450Y-67950D01*
M02*
